<?xml version="1.0" standalone="no"?>
<!DOCTYPE svg PUBLIC "-//W3C//DTD SVG 20010904//EN"
 "http://www.w3.org/TR/2001/REC-SVG-20010904/DTD/svg10.dtd">
<svg version="1.0" xmlns="http://www.w3.org/2000/svg"
 width="470.000000pt" height="470.000000pt" viewBox="0 0 470.000000 470.000000"
 preserveAspectRatio="xMidYMid meet">

<g transform="translate(0.000000,470.000000) scale(0.100000,-0.100000)"
fill="#000000" stroke="none">
<path d="M2045 4170 c-322 -57 -611 -187 -855 -385 -101 -83 -268 -260 -340
-362 -94 -133 -156 -251 -240 -458 -13 -32 -37 -114 -54 -185 -62 -254 -61
-632 0 -860 30 -112 46 -165 54 -185 125 -307 221 -461 410 -659 350 -366 821
-566 1330 -566 529 0 1023 221 1372 615 292 329 447 712 464 1150 13 321 -44
598 -181 880 -267 549 -788 933 -1384 1020 -145 21 -444 19 -576 -5z m515 -25
c174 -22 285 -49 445 -109 74 -28 258 -124 340 -179 374 -248 644 -628 755
-1061 44 -172 53 -266 47 -494 -6 -204 -11 -252 -47 -397 -72 -295 -248 -602
-475 -830 -182 -182 -371 -305 -640 -415 -231 -95 -543 -135 -815 -106 -312
34 -571 128 -830 301 -267 179 -469 412 -615 710 -129 264 -179 485 -179 790
0 296 56 540 181 790 97 193 178 308 323 459 393 408 959 612 1510 541z"/>
<path d="M2183 4094 c-299 -31 -545 -117 -793 -279 -119 -77 -129 -85 -263
-215 -346 -335 -527 -764 -527 -1248 0 -212 36 -422 101 -592 11 -30 24 -66
28 -80 5 -14 27 -62 50 -107 337 -670 1049 -1052 1786 -958 143 18 222 36 353
81 436 149 802 473 1002 889 80 166 122 296 161 505 19 103 17 426 -5 545 -33
186 -98 382 -176 530 -117 221 -309 444 -508 592 -267 197 -539 301 -886 338
-165 17 -148 17 -323 -1z m65 -140 c12 -4 22 -14 22 -25 0 -15 -6 -17 -34 -12
-18 3 -43 0 -56 -7 -21 -11 -22 -17 -18 -82 4 -44 11 -74 19 -80 8 -5 38 -6
67 -3 58 6 73 -12 27 -33 -42 -19 -91 -14 -122 12 -25 21 -28 31 -31 100 -4
64 -1 80 14 98 31 33 67 44 112 32z m150 -39 c2 -22 1 -77 -3 -123 -6 -70 -10
-83 -23 -80 -10 2 -17 9 -16 16 1 6 2 62 3 123 1 99 3 110 19 107 12 -2 18
-15 20 -43z m206 3 c6 -31 24 -123 36 -177 5 -25 7 -49 4 -53 -11 -17 -26 -7
-39 26 -13 30 -20 34 -56 38 -40 4 -69 -10 -69 -33 0 -5 -9 -9 -20 -9 -26 0
-25 7 6 66 14 27 39 75 55 107 24 46 34 57 54 57 18 0 26 -6 29 -22z m-574
-12 c0 -9 -20 -19 -51 -27 -49 -13 -50 -14 -45 -43 4 -16 8 -31 10 -33 2 -2
25 1 50 8 26 6 49 9 53 6 11 -12 -7 -37 -26 -37 -11 0 -31 -5 -44 -11 -21 -9
-23 -16 -18 -38 8 -27 18 -29 96 -20 38 5 42 -21 5 -31 -14 -4 -44 -13 -68
-21 -54 -16 -53 -16 -82 106 -12 49 -24 98 -26 107 -4 13 6 21 43 32 63 19
103 20 103 2z m760 -18 c0 -6 -12 -51 -27 -100 -14 -48 -24 -91 -20 -94 3 -3
23 -12 44 -19 21 -7 40 -21 41 -30 3 -14 -1 -16 -30 -10 -18 4 -49 13 -68 19
-43 14 -43 25 -4 154 22 72 32 92 46 92 10 0 18 -5 18 -12z m-987 -68 c53 -42
44 -109 -19 -145 -40 -23 -42 -29 -29 -77 6 -22 4 -28 -9 -28 -11 0 -26 21
-42 58 -14 31 -34 76 -45 99 -10 23 -19 48 -19 56 0 15 83 56 116 56 12 1 33
-8 47 -19z m1313 -56 c72 -42 84 -90 35 -143 -33 -36 -63 -39 -107 -12 -34 21
-45 18 -63 -16 -13 -25 -41 -31 -41 -10 0 24 105 207 118 207 7 0 33 -12 58
-26z m-1558 -55 c2 -11 -7 -18 -27 -22 -38 -8 -73 -41 -64 -63 6 -16 6 -16
109 1 35 6 45 4 63 -14 43 -43 17 -107 -56 -138 -36 -15 -77 -9 -70 10 2 6 19
15 38 20 44 11 71 36 67 61 -3 22 -11 23 -110 10 -38 -5 -50 -2 -67 15 -12 12
-21 29 -21 40 0 26 33 65 72 84 39 20 62 18 66 -4z m1779 -89 c18 -10 39 -33
48 -51 21 -39 11 -67 -49 -134 -37 -42 -48 -49 -81 -49 -30 0 -44 7 -71 37
-19 20 -34 47 -34 59 0 30 66 125 99 143 35 19 50 18 88 -5z m-786 -79 c242
-44 443 -144 622 -311 171 -160 283 -350 350 -594 19 -71 21 -107 22 -281 0
-161 -4 -214 -18 -270 -83 -325 -278 -597 -542 -759 -78 -48 -198 -106 -218
-106 -7 0 -17 -4 -22 -9 -15 -13 -171 -49 -265 -61 -115 -14 -174 -13 -299 6
-272 40 -508 160 -693 352 -169 176 -267 356 -325 602 -27 113 -24 384 5 501
95 387 335 680 689 843 210 96 465 128 694 87z m-1234 -70 c95 -68 105 -115
42 -188 -23 -26 -45 -49 -48 -50 -3 -1 -46 36 -96 82 l-90 84 52 50 c62 60 84
63 140 22z m2221 -38 c50 -64 55 -79 37 -112 -18 -36 -52 -61 -80 -61 -12 0
-40 16 -64 36 l-42 36 -23 -21 c-27 -26 -48 -27 -44 -3 3 20 156 161 175 162
6 0 25 -17 41 -37z m-2448 -132 c0 -3 -12 -24 -26 -45 -30 -43 -24 -68 14 -74
16 -3 28 6 43 32 12 20 25 36 29 36 21 0 20 -24 -4 -60 l-26 -39 29 -21 30
-20 32 45 c18 25 36 45 40 45 23 0 16 -26 -21 -80 l-41 -61 -37 21 c-66 39
-162 111 -162 121 0 21 74 117 87 112 7 -3 13 -8 13 -12z m2587 -47 c2 -6 -33
-34 -77 -62 -85 -54 -97 -76 -63 -114 25 -27 51 -22 128 27 52 33 72 41 82 33
19 -15 5 -29 -77 -77 -95 -57 -143 -54 -176 11 -10 20 -14 42 -9 65 5 28 18
41 83 84 74 48 101 56 109 33z m-2631 -200 c101 -53 115 -66 94 -79 -8 -5
-199 83 -219 101 -5 5 7 34 15 34 4 0 53 -25 110 -56z m2769 -52 c0 -8 -38
-29 -85 -49 -47 -19 -89 -39 -94 -43 -5 -5 -2 -23 8 -43 21 -45 21 -69 0 -65
-18 3 -68 118 -57 129 15 14 198 88 213 86 8 -1 15 -8 15 -15z m-2913 -25 c-1
-14 -9 -38 -17 -54 -14 -26 -13 -28 8 -40 38 -21 53 -15 70 27 9 23 22 40 31
40 20 0 20 -11 1 -57 -8 -19 -15 -37 -15 -39 0 -2 18 -12 40 -21 42 -19 58
-40 36 -49 -7 -3 -54 11 -103 30 -50 20 -95 36 -101 36 -28 0 -24 36 15 128
16 38 39 38 35 -1z m8 -231 c112 -28 130 -35 130 -47 0 -20 -34 -21 -98 -4
-136 35 -159 45 -148 64 9 14 6 15 116 -13z m2893 2 c80 -10 100 -16 109 -32
8 -15 6 -23 -13 -37 -42 -32 -186 -119 -198 -119 -18 0 -13 25 9 45 38 34 20
109 -29 118 -40 8 -42 37 -3 37 15 0 71 -5 125 -12z m-3001 -127 c-5 -35 -2
-36 117 -50 79 -10 95 -18 82 -40 -7 -11 -20 -12 -68 -3 -32 6 -75 12 -97 14
-36 3 -39 1 -50 -32 -6 -19 -15 -33 -21 -30 -12 6 -7 147 7 173 14 27 36 5 30
-32z m3151 -142 c5 -76 -3 -113 -22 -94 -5 6 -11 24 -13 40 -3 34 -3 33 -143
24 -58 -3 -70 -1 -73 12 -4 21 21 27 113 30 90 3 95 5 95 43 0 18 3 36 7 40
16 16 31 -24 36 -95z m-3085 -84 c17 -14 33 -25 37 -25 3 0 21 11 39 25 40 30
46 31 46 6 0 -12 -18 -33 -45 -52 -55 -40 -57 -65 -4 -61 38 3 63 -15 50 -36
-6 -9 -40 -12 -127 -10 l-119 3 -3 58 c-3 52 0 60 27 87 36 37 60 38 99 5z
m3086 -90 c3 -9 -1 -18 -9 -21 -19 -8 -232 -1 -240 8 -20 20 15 28 125 28 97
0 119 -3 124 -15z m-64 -114 c61 -28 66 -121 8 -164 -23 -17 -35 -19 -94 -12
-55 6 -73 12 -96 35 -47 47 -32 131 27 156 36 15 105 9 155 -15z m-2886 -23
c3 -13 8 -40 11 -61 3 -21 9 -45 11 -52 6 -15 -16 -22 -132 -44 -118 -22 -120
-20 -131 82 -5 49 -4 59 8 55 8 -3 20 -27 28 -54 7 -27 14 -50 16 -52 1 -2 15
0 30 4 25 6 26 9 23 58 -2 40 0 51 12 51 9 0 17 -14 21 -38 8 -49 19 -60 53
-51 27 6 28 7 21 65 -6 50 -5 59 9 59 9 0 18 -10 20 -22z m41 -208 c10 -11 20
-41 22 -67 4 -41 1 -51 -19 -69 -52 -47 -154 -68 -191 -39 -23 17 -46 81 -40
106 9 33 30 21 37 -20 8 -51 26 -65 73 -56 97 18 127 54 93 113 -11 18 -20 37
-20 43 0 16 26 10 45 -11z m2739 -21 c136 -47 141 -69 20 -95 -38 -8 -79 -14
-91 -14 -43 0 -13 -25 55 -46 43 -13 68 -27 70 -37 5 -26 -22 -22 -136 20 -88
32 -102 40 -100 58 3 20 54 36 166 52 52 7 44 13 -50 44 -62 20 -79 34 -61 53
4 3 12 5 17 3 6 -2 55 -19 110 -38z m-578 -692 c-14 -10 -26 -24 -26 -31 0 -6
25 -46 56 -89 52 -72 60 -97 30 -97 -7 0 -37 36 -67 80 -29 44 -57 80 -62 80
-4 0 -19 -7 -32 -16 -23 -15 -49 -11 -43 7 2 4 35 30 73 58 54 38 73 47 83 38
11 -9 9 -15 -12 -30z m-1622 -18 c35 -28 51 -58 37 -72 -7 -7 -22 1 -51 26
-44 40 -50 43 -68 25 -17 -17 -16 -20 23 -69 40 -50 45 -89 15 -119 -37 -37
-116 -16 -145 40 -31 60 -6 70 38 15 18 -23 36 -35 53 -35 39 0 39 26 0 83
-40 58 -43 73 -20 105 20 29 81 30 118 1z m189 -116 c52 -33 62 -63 37 -113
-23 -46 -58 -59 -104 -41 -58 24 -61 23 -73 -8 -12 -32 -43 -43 -43 -16 0 15
84 196 97 209 9 9 41 -2 86 -31z m1267 17 c0 -15 -7 -20 -29 -20 -16 0 -39 -9
-52 -19 -20 -16 -22 -23 -13 -38 7 -10 20 -17 30 -15 90 15 109 13 132 -8 27
-26 28 -59 2 -92 -34 -44 -126 -65 -138 -31 -4 14 5 18 60 28 43 7 67 37 48
61 -10 11 -28 12 -80 8 -63 -6 -68 -5 -84 17 -23 34 -20 62 12 91 31 29 46 36
85 37 21 1 27 -4 27 -19z m-166 -173 c28 -80 35 -112 27 -120 -17 -17 -26 -2
-65 103 -41 108 -44 133 -19 128 12 -2 30 -36 57 -111z m-908 86 c50 -14 64
-21 64 -36 0 -15 -5 -18 -22 -13 -13 4 -39 10 -59 13 -32 5 -37 2 -42 -18 -7
-25 13 -49 41 -49 7 0 22 -5 33 -11 16 -8 18 -13 9 -24 -10 -11 -18 -12 -56 0
-45 13 -45 13 -55 -13 -12 -31 -5 -52 16 -52 9 0 32 -7 52 -15 28 -12 33 -18
24 -29 -10 -12 -21 -11 -74 6 -34 10 -65 22 -69 26 -6 6 33 154 57 220 6 15 4
15 81 -5z m704 -98 c10 -39 21 -83 24 -99 6 -26 9 -28 44 -21 20 3 45 8 55 11
12 4 17 0 17 -15 0 -16 -11 -22 -62 -34 -35 -8 -66 -11 -71 -7 -15 13 -64 229
-53 234 22 9 29 -1 46 -69z m-452 42 c28 -14 23 -33 -9 -29 -72 9 -83 7 -95
-18 -7 -14 -15 -45 -19 -70 -9 -64 8 -84 71 -85 37 0 49 -4 49 -15 0 -11 -14
-16 -53 -18 -47 -3 -56 0 -83 28 -30 29 -31 32 -24 93 14 121 68 160 163 114z
m279 1 c6 -7 31 -60 57 -117 33 -71 44 -107 37 -114 -12 -12 -41 8 -41 28 0
18 -18 23 -63 17 -32 -4 -41 -10 -49 -32 -10 -31 -36 -47 -44 -27 -2 7 5 48
17 92 11 44 25 95 29 114 11 46 38 63 57 39z m-172 -124 c0 -112 -1 -119 -20
-119 -19 0 -20 5 -16 115 3 121 6 133 24 127 8 -2 12 -41 12 -123z"/>
<path d="M2540 3840 l-21 -40 27 -11 c15 -5 31 -6 35 -2 10 10 -1 93 -12 93
-5 0 -18 -18 -29 -40z"/>
<path d="M1713 3788 c-27 -13 -29 -28 -7 -69 12 -24 19 -29 37 -23 12 3 31 15
42 25 18 18 19 21 5 47 -17 30 -43 37 -77 20z"/>
<path d="M3041 3701 l-20 -39 35 -17 c32 -15 37 -15 60 -1 31 21 31 49 -2 75
-38 30 -51 26 -73 -18z"/>
<path d="M3247 3568 c-41 -44 -61 -82 -54 -102 3 -8 18 -22 32 -32 33 -21 58
-9 98 46 42 59 35 97 -21 115 -18 5 -30 0 -55 -27z"/>
<path d="M2215 3459 c-208 -23 -420 -117 -596 -264 -74 -62 -249 -279 -249
-309 0 -3 439 -6 975 -6 778 0 975 3 975 13 0 27 -98 157 -184 243 -189 190
-412 297 -675 323 -115 12 -132 12 -246 0z m-204 -219 c9 -17 42 -95 53 -125
6 -16 9 -17 16 -5 6 8 10 25 10 38 0 44 22 112 36 112 18 0 17 -34 -5 -145
-14 -74 -20 -90 -36 -90 -13 0 -28 22 -54 83 -39 91 -44 90 -56 -10 -7 -56
-25 -86 -43 -74 -7 4 19 188 33 224 6 17 35 12 46 -8z m339 5 c10 -12 10 -21
2 -40 -15 -32 -26 -32 -40 1 -10 21 -18 25 -45 22 -28 -3 -32 -7 -32 -33 0
-26 5 -30 40 -40 63 -16 68 -22 61 -68 -10 -60 -20 -67 -92 -67 -52 0 -65 3
-74 19 -12 23 -3 51 15 51 8 0 16 -8 19 -18 12 -37 96 -20 96 19 0 21 -2 22
-67 39 -42 10 -43 12 -43 52 0 60 20 78 90 78 39 0 62 -5 70 -15z m218 -27 c3
-33 0 -38 -17 -38 -14 0 -21 6 -21 20 0 26 -25 36 -58 24 -22 -8 -28 -19 -40
-82 -9 -49 -11 -77 -4 -84 16 -16 79 1 85 23 7 27 37 24 37 -3 0 -41 -27 -58
-97 -58 -50 0 -65 4 -70 16 -8 22 22 191 38 210 9 11 29 14 78 12 l66 -3 3
-37z m176 10 c3 -18 10 -63 16 -99 5 -36 10 -75 10 -87 0 -33 -29 -27 -41 8
-10 26 -16 30 -49 30 -33 0 -42 -5 -57 -30 -18 -31 -43 -40 -43 -15 0 14 84
190 102 213 6 6 21 12 34 12 18 0 24 -7 28 -32z"/>
<path d="M2677 3167 c-22 -55 -22 -59 11 -55 24 3 27 7 26 41 -2 57 -17 62
-37 14z"/>
<path d="M1399 2707 c-21 -14 -36 -34 -40 -52 -11 -51 -10 -567 2 -608 17 -61
43 -71 197 -76 106 -2 143 0 176 13 54 21 66 46 66 142 l0 75 -77 -3 -78 -3
-3 -42 c-3 -46 -2 -45 -74 -45 -61 -1 -59 -11 -56 249 3 268 -3 251 84 238 43
-6 44 -7 44 -46 0 -28 4 -39 15 -40 8 0 40 0 70 0 30 0 60 0 65 0 16 1 12 138
-4 170 -23 44 -53 51 -210 51 -132 0 -146 -2 -177 -23z"/>
<path d="M1925 2719 c-50 -29 -55 -45 -55 -197 0 -143 0 -144 28 -171 20 -20
55 -35 132 -56 58 -15 111 -33 118 -38 9 -7 12 -32 10 -81 l-3 -71 -59 -3
c-66 -3 -76 4 -76 56 l0 32 -75 0 -75 0 0 -79 c0 -123 28 -141 219 -141 208 0
224 13 229 190 4 132 -8 194 -41 212 -12 6 -71 26 -132 43 l-110 30 -3 78 -3
78 58 -3 c58 -3 58 -3 63 -38 l5 -35 73 -3 72 -3 0 79 c0 71 -2 81 -26 103
-24 23 -32 24 -177 27 -100 1 -159 -2 -172 -9z"/>
<path d="M2393 2723 c-10 -4 -13 -88 -13 -374 l0 -369 70 0 70 0 0 130 0 130
110 0 c186 0 200 17 200 247 0 164 -6 184 -59 220 -32 22 -43 23 -200 22 -91
0 -172 -3 -178 -6z m292 -238 l0 -110 -82 -3 -83 -3 0 109 c0 60 3 112 7 116
4 4 41 5 83 4 l75 -3 0 -110z"/>
<path d="M2948 2714 c-15 -8 -32 -23 -38 -34 -5 -10 -10 -84 -10 -164 0 -186
-10 -174 195 -231 33 -9 67 -20 75 -24 16 -9 26 -96 15 -138 -5 -22 -10 -24
-68 -21 l-62 3 -3 43 -3 42 -75 0 -74 0 0 -80 c0 -72 3 -84 24 -105 30 -30 84
-38 233 -34 147 5 166 14 183 92 7 31 11 98 8 161 -3 106 -4 109 -34 135 -22
20 -62 36 -142 57 -126 32 -125 31 -120 125 l3 54 57 3 c53 3 58 1 63 -21 4
-13 5 -30 3 -38 -2 -11 13 -15 75 -17 l77 -3 0 71 c0 127 -21 140 -217 140
-102 -1 -145 -5 -165 -16z"/>
<path d="M3376 2688 c-9 -12 -13 -24 -10 -27 3 -3 8 -1 12 5 15 23 47 33 65
19 18 -13 25 -71 7 -60 -5 3 -10 17 -10 31 0 17 -5 24 -20 24 -15 0 -20 -7
-20 -29 0 -21 5 -28 16 -27 9 0 19 -5 21 -11 9 -25 -35 -13 -56 15 -20 27 -20
27 -16 3 12 -67 115 -48 115 21 0 53 -74 79 -104 36z"/>
<path d="M1384 1794 c18 -47 92 -141 181 -229 156 -157 288 -233 510 -296 70
-20 104 -23 265 -23 146 -1 201 3 260 17 41 10 83 22 92 28 10 5 24 9 31 9 29
0 225 107 299 163 92 69 187 170 251 265 26 39 47 73 47 76 0 3 -437 6 -971 6
-881 0 -971 -1 -965 -16z m1046 -122 c19 -15 22 -25 16 -54 -3 -19 -20 -47
-36 -63 -17 -16 -30 -32 -30 -36 0 -4 17 -9 38 -11 20 -2 36 -7 35 -13 -3 -13
-113 -19 -125 -7 -6 6 10 32 41 67 52 60 57 70 42 94 -9 13 -24 12 -63 -4 -12
-5 -18 -3 -18 5 0 18 31 39 56 40 12 0 32 -8 44 -18z m175 -7 c33 -33 36 -119
4 -159 -25 -32 -70 -35 -99 -6 -30 30 -29 141 2 170 29 27 64 25 93 -5z m275
5 c28 -28 25 -52 -15 -104 -19 -26 -35 -48 -35 -51 0 -3 16 -5 36 -5 24 0 34
-4 32 -12 -6 -18 -128 -24 -128 -6 0 7 20 36 45 63 46 52 57 91 29 102 -9 3
-25 1 -35 -5 -24 -15 -29 -15 -29 3 0 35 69 46 100 15z m-955 0 c7 -11 6 -11
-45 -14 -30 -1 -35 -5 -38 -29 -3 -25 -1 -27 37 -27 55 0 58 -27 4 -32 -33 -3
-38 -6 -38 -28 0 -22 5 -25 43 -28 63 -5 48 -26 -21 -30 l-57 -3 0 101 0 100
54 0 c30 0 58 -4 61 -10z m803 -87 c-4 -117 -21 -131 -28 -23 -4 64 -7 75 -22
72 -10 -2 -18 2 -18 9 0 16 31 38 53 39 16 0 17 -9 15 -97z m-592 62 c4 -8 12
-15 20 -15 19 0 18 -26 -1 -34 -10 -3 -15 -19 -15 -44 0 -31 5 -41 23 -49 21
-10 21 -11 3 -19 -38 -15 -51 8 -54 95 -2 53 1 81 8 81 6 0 13 -7 16 -15z
m-74 -30 c-1 -5 -10 -11 -20 -11 -9 -1 -23 -2 -29 -3 -21 -2 -15 -31 6 -31 32
0 65 -33 57 -58 -12 -36 -97 -45 -104 -10 -3 14 3 16 32 11 28 -4 36 -2 36 10
0 9 -12 18 -30 22 -45 10 -59 54 -26 78 16 10 82 4 78 -8z m171 -110 c8 -18
-11 -31 -25 -17 -11 11 -3 32 12 32 4 0 10 -7 13 -15z"/>
<path d="M2532 1648 c-7 -7 -12 -38 -12 -70 0 -54 2 -58 27 -64 34 -9 53 16
53 69 0 66 -34 99 -68 65z"/>
<path d="M1216 3439 c-14 -11 -26 -26 -26 -33 0 -14 101 -116 116 -116 18 0
54 45 54 67 0 22 -81 103 -103 103 -8 0 -26 -9 -41 -21z"/>
<path d="M3455 3390 c-26 -28 -27 -30 -12 -53 20 -31 50 -39 76 -20 26 18 26
51 2 81 -25 29 -32 28 -66 -8z"/>
<path d="M3760 2686 c0 -35 17 -41 56 -20 54 29 52 44 -6 44 -46 0 -50 -2 -50
-24z"/>
<path d="M797 2367 c-13 -9 -18 -23 -15 -47 3 -32 6 -35 40 -38 29 -3 38 1 43
17 8 25 -14 75 -35 79 -9 1 -24 -3 -33 -11z"/>
<path d="M3741 2161 c-21 -21 -27 -56 -13 -77 9 -15 77 -34 118 -34 38 0 54
16 54 56 0 36 -12 49 -56 57 -18 3 -43 9 -57 12 -18 5 -31 1 -46 -14z"/>
<path d="M1687 1065 c-9 -20 -17 -38 -17 -40 0 -3 14 -12 31 -21 43 -22 79 -6
79 35 0 32 -13 46 -50 56 -22 5 -28 1 -43 -30z"/>
<path d="M2466 909 c-12 -60 -8 -69 24 -69 35 0 35 1 14 57 -20 51 -29 54 -38
12z"/>
<path d="M3776 1020 c-80 -24 -117 -114 -80 -193 21 -45 61 -67 119 -67 86 0
135 47 135 130 0 59 -24 98 -73 121 -46 20 -58 21 -101 9z m117 -60 c38 -43
37 -98 -2 -142 -26 -29 -35 -33 -77 -32 -41 1 -52 5 -76 35 -89 107 61 243
155 139z"/>
<path d="M3760 896 c0 -39 5 -68 12 -72 6 -4 13 -3 15 2 2 5 8 16 14 24 8 13
12 12 26 -7 8 -13 24 -23 35 -23 19 0 19 2 6 22 -13 19 -13 25 1 50 24 42 6
62 -58 66 l-51 3 0 -65z m80 19 c0 -8 -9 -15 -20 -15 -11 0 -20 7 -20 15 0 8
9 15 20 15 11 0 20 -7 20 -15z"/>
</g>
</svg>
