<svg id="svg" xmlns="http://www.w3.org/2000/svg" xmlns:xlink="http://www.w3.org/1999/xlink" width="400" height="211.54562383612662" viewBox="0, 0, 400,211.54562383612662"><g id="svgg"><path id="path0" d="M16.387 67.039 L 16.387 115.456 29.408 115.456 L 42.428 115.456 42.630 99.628 L 42.831 83.799 47.741 83.581 C 53.696 83.317,52.377 81.748,61.849 100.372 L 69.520 115.456 82.308 115.456 C 89.342 115.456,95.293 115.259,95.534 115.019 C 95.774 114.778,92.355 107.320,87.935 98.445 C 79.252 81.009,79.293 81.163,83.016 79.817 C 90.821 76.995,92.366 72.058,92.361 49.958 C 92.355 28.008,91.257 24.209,83.839 20.476 L 80.154 18.622 48.271 18.622 L 16.387 18.622 16.387 67.039 M121.415 20.373 C 114.634 23.831,112.472 30.050,112.486 46.053 C 112.499 61.063,114.123 66.074,120.106 69.564 C 123.755 71.692,129.908 73.765,142.272 77.031 C 163.228 82.566,161.616 81.629,161.616 88.268 C 161.616 94.848,161.942 94.674,150.036 94.435 L 139.665 94.227 139.446 89.263 C 139.163 82.847,139.515 82.991,125.140 83.426 L 112.849 83.799 112.638 92.283 C 112.102 113.747,114.881 115.456,150.311 115.456 L 175.499 115.456 179.188 113.618 C 186.664 109.893,188.917 102.673,188.244 84.597 C 187.553 66.047,185.340 63.251,167.598 58.515 C 163.706 57.476,159.516 56.324,158.287 55.955 C 157.058 55.586,152.533 54.353,148.231 53.215 C 139.308 50.855,139.319 50.864,139.304 45.685 C 139.285 39.266,138.925 39.479,149.800 39.479 L 159.404 39.479 159.416 43.762 C 159.433 50.209,158.885 49.972,173.240 49.739 L 185.847 49.534 186.060 41.435 C 186.393 28.710,184.084 23.267,176.986 20.043 C 171.793 17.685,126.156 17.956,121.415 20.373 M217.986 20.114 C 213.931 22.139,213.151 22.912,211.115 26.930 L 209.311 30.491 209.311 67.039 L 209.311 103.588 211.153 107.222 C 215.112 115.035,216.927 115.456,246.604 115.456 C 282.303 115.456,284.045 114.281,283.632 90.469 L 283.426 78.585 270.577 78.381 L 257.728 78.177 257.728 85.245 C 257.728 91.470,257.556 92.404,256.287 93.084 C 254.756 93.903,238.548 94.165,236.560 93.403 C 234.768 92.715,234.768 41.363,236.560 40.676 C 238.984 39.745,256.020 40.180,256.861 41.193 C 257.304 41.727,257.764 45.163,257.883 48.828 L 258.101 55.493 270.764 55.493 L 283.426 55.493 283.653 43.948 C 283.967 27.960,282.417 23.567,275.279 20.212 C 270.307 17.874,222.636 17.793,217.986 20.114 M313.222 20.134 C 304.251 24.509,303.911 26.241,303.911 67.491 C 303.911 117.823,302.075 115.456,341.105 115.456 C 377.319 115.456,378.730 114.535,378.757 90.875 L 378.771 78.585 365.736 78.585 L 352.700 78.585 352.484 85.636 C 352.221 94.201,352.715 93.832,341.527 93.832 C 329.473 93.832,330.674 96.910,330.903 66.617 L 331.099 40.596 340.037 40.380 C 353.013 40.067,352.233 39.575,352.487 48.238 L 352.700 55.493 365.736 55.493 L 378.771 55.493 379.012 46.182 C 379.437 29.752,377.205 23.356,369.885 20.032 C 365.139 17.876,317.676 17.962,313.222 20.134 M65.108 40.112 C 65.952 41.478,65.696 61.274,64.827 61.811 C 63.706 62.504,45.433 62.807,43.749 62.161 C 42.094 61.526,41.756 40.631,43.389 39.972 C 45.002 39.321,64.698 39.448,65.108 40.112 M62.640 136.542 C 55.536 139.028,54.109 154.012,60.598 157.969 C 67.955 162.455,74.881 158.462,74.348 150.044 L 74.115 146.369 70.019 146.369 C 65.618 146.369,63.623 149.022,67.599 149.586 C 71.885 150.195,70.735 155.680,66.321 155.680 C 61.663 155.680,58.947 146.756,62.128 141.901 C 63.485 139.829,68.893 139.209,70.612 140.928 C 71.473 141.790,73.652 139.977,73.719 138.343 C 73.788 136.675,65.916 135.396,62.640 136.542 M92.585 136.376 C 84.883 138.656,86.710 146.985,95.451 149.438 C 98.519 150.298,99.913 151.093,100.257 152.177 C 101.239 155.271,96.509 156.706,92.375 154.568 C 89.884 153.279,87.896 153.771,87.896 155.675 C 87.896 159.741,100.013 160.682,103.292 156.870 C 107.108 152.433,104.794 147.968,97.471 145.639 C 93.320 144.319,92.737 143.905,92.737 142.272 C 92.737 140.152,98.161 139.101,100.232 140.820 C 101.660 142.005,103.538 141.165,103.538 139.342 C 103.538 136.724,97.203 135.009,92.585 136.376 M223.464 136.085 C 220.209 136.711,218.250 139.191,218.250 142.683 C 218.250 146.444,218.968 147.131,225.112 149.238 C 229.932 150.892,231.176 152.449,229.393 154.598 C 228.202 156.033,224.604 155.973,222.326 154.480 C 220.133 153.043,218.250 153.578,218.250 155.637 C 218.250 159.041,227.355 160.710,231.753 158.112 C 237.892 154.485,233.727 145.251,225.951 145.251 C 223.632 145.251,221.522 142.596,222.707 141.169 C 223.792 139.861,228.090 139.670,230.264 140.834 C 231.881 141.699,233.892 140.654,233.892 138.948 C 233.892 137.136,227.344 135.339,223.464 136.085 M326.257 136.388 C 319.434 139.171,318.348 154.967,324.752 158.279 C 331.812 161.930,338.336 158.542,338.023 151.387 L 337.803 146.369 333.706 146.369 C 329.426 146.369,327.376 148.913,331.099 149.604 C 336.054 150.524,335.081 155.592,329.938 155.656 C 325.463 155.712,322.752 145.378,326.162 141.269 C 327.325 139.868,333.309 139.538,334.108 140.831 C 334.627 141.670,337.430 139.630,337.430 138.414 C 337.430 136.773,329.041 135.252,326.257 136.388 M18.043 147.595 C 18.244 158.731,18.293 159.038,19.885 159.264 C 21.370 159.476,21.541 159.133,21.747 155.547 C 22.064 150.027,23.604 149.951,27.528 155.263 C 32.394 161.851,36.544 161.123,31.976 154.484 L 29.687 151.158 32.058 148.458 C 37.425 142.345,33.805 136.823,24.168 136.422 L 17.837 136.158 18.043 147.595 M38.901 147.672 L 39.106 159.032 46.182 159.032 C 52.954 159.032,53.269 158.959,53.497 157.356 C 53.722 155.770,53.480 155.679,49.028 155.668 C 43.347 155.655,42.261 155.078,42.585 152.247 C 42.806 150.312,43.133 150.073,45.810 149.895 C 54.070 149.344,55.173 145.907,47.300 145.251 C 42.913 144.886,42.831 144.838,42.831 142.644 L 42.831 140.410 47.858 140.189 C 52.640 139.980,52.886 139.880,52.886 138.141 C 52.886 136.328,52.828 136.313,45.791 136.313 L 38.695 136.313 38.901 147.672 M79.124 147.621 C 79.325 158.761,79.369 159.037,80.979 159.266 C 83.244 159.588,83.527 157.993,83.269 146.369 L 83.054 136.685 80.986 136.448 L 78.918 136.210 79.124 147.621 M106.652 137.989 C 106.849 139.375,107.470 139.729,110.242 140.037 L 113.594 140.410 113.803 149.956 C 114.008 159.338,114.040 159.498,115.665 159.267 C 117.249 159.042,117.334 158.640,117.691 149.721 L 118.063 140.410 121.229 140.181 C 124.027 139.978,124.395 139.740,124.395 138.132 L 124.395 136.313 115.404 136.313 C 106.507 136.313,106.417 136.330,106.652 137.989 M128.119 147.858 L 128.119 159.404 135.116 159.404 C 140.824 159.404,142.196 159.186,142.567 158.220 C 143.350 156.179,142.333 155.680,137.386 155.680 L 132.588 155.680 132.588 152.700 L 132.588 149.721 136.127 149.709 C 143.447 149.686,143.922 145.856,136.679 145.251 C 132.300 144.886,132.216 144.837,132.216 142.644 C 132.216 140.429,132.257 140.407,137.058 140.037 C 141.378 139.705,141.925 139.484,142.137 137.989 C 142.370 136.351,142.213 136.313,135.247 136.313 L 128.119 136.313 128.119 147.858 M147.652 147.586 C 147.842 158.089,147.972 159.035,149.259 159.282 C 151.135 159.642,151.930 158.189,151.944 154.376 C 151.960 150.034,153.306 150.277,157.104 155.307 C 162.088 161.909,166.117 161.072,161.520 154.390 C 159.186 150.997,159.179 150.960,160.666 149.756 C 167.727 144.038,164.055 136.840,153.862 136.422 L 147.446 136.158 147.652 147.586 M168.839 136.809 C 168.219 137.430,168.179 156.620,168.795 158.226 C 169.683 160.540,183.240 159.898,183.240 157.542 C 183.240 155.733,183.091 155.680,178.026 155.680 L 172.812 155.680 172.812 152.700 L 172.812 149.721 176.818 149.721 C 181.067 149.721,182.875 148.596,182.056 146.463 C 181.699 145.534,180.568 145.251,177.201 145.251 L 172.812 145.251 172.812 142.644 L 172.812 140.037 178.026 140.037 C 183.091 140.037,183.240 139.984,183.240 138.175 C 183.240 136.333,170.522 135.127,168.839 136.809 M188.454 147.858 L 188.454 159.404 193.320 159.404 C 202.697 159.404,205.587 156.614,205.587 147.558 C 205.587 138.490,203.366 136.313,194.112 136.313 L 188.454 136.313 188.454 147.858 M236.872 138.132 C 236.872 139.740,237.239 139.978,240.037 140.181 L 243.203 140.410 243.575 149.712 C 243.910 158.063,244.091 159.042,245.348 159.283 C 247.597 159.713,248.021 158.062,248.033 148.832 L 248.045 140.123 251.210 139.894 C 253.842 139.703,254.416 139.382,254.614 137.989 C 254.850 136.330,254.759 136.313,245.862 136.313 L 236.872 136.313 236.872 138.132 M257.895 147.663 C 258.084 158.091,258.214 159.035,259.501 159.282 C 261.377 159.642,262.172 158.189,262.186 154.376 C 262.202 149.898,264.084 150.230,267.629 155.336 C 269.753 158.394,270.909 159.404,272.285 159.404 C 274.730 159.404,274.601 158.063,271.779 154.168 C 269.471 150.982,269.461 150.927,270.925 149.742 C 278.062 143.962,273.961 136.313,263.725 136.313 L 257.689 136.313 257.895 147.663 M278.752 147.672 L 278.957 159.032 286.034 159.032 C 292.760 159.032,293.121 158.950,293.343 157.391 C 293.562 155.855,293.252 155.736,288.502 155.529 L 283.426 155.307 283.201 152.606 L 282.975 149.905 287.468 149.580 C 294.943 149.040,294.782 145.800,287.260 145.400 L 283.054 145.177 283.054 142.607 L 283.054 140.037 287.896 140.037 C 292.564 140.037,292.737 139.970,292.737 138.175 C 292.737 136.319,292.714 136.313,285.642 136.313 L 278.546 136.313 278.752 147.672 M298.448 136.809 C 297.717 137.541,297.865 157.370,298.611 158.546 C 300.576 161.647,302.044 159.105,302.421 151.948 L 302.793 144.879 304.713 147.858 C 305.769 149.497,307.613 152.609,308.810 154.774 C 310.906 158.563,313.243 160.169,315.041 159.058 C 315.538 158.751,315.829 154.457,315.829 147.442 L 315.829 136.313 313.966 136.313 L 312.104 136.313 312.104 143.806 C 312.104 152.682,311.939 152.668,306.804 143.373 C 302.950 136.396,300.660 134.597,298.448 136.809 M340.410 138.175 C 340.410 139.884,340.684 140.037,343.739 140.037 L 347.069 140.037 347.278 149.534 L 347.486 159.032 349.348 159.032 L 351.210 159.032 351.419 149.576 L 351.627 140.121 354.771 139.893 C 357.380 139.704,357.955 139.380,358.152 137.989 C 358.388 136.330,358.297 136.313,349.400 136.313 L 340.410 136.313 340.410 138.175 M361.763 136.809 C 361.032 137.541,361.180 157.370,361.926 158.546 C 363.578 161.153,365.358 159.121,365.585 154.369 L 365.807 149.721 369.868 149.721 C 373.800 149.721,373.929 149.786,373.937 151.769 C 373.958 156.915,374.823 159.489,376.454 159.256 C 377.965 159.040,378.034 158.587,378.232 147.672 L 378.437 136.313 376.556 136.313 C 375.521 136.313,374.648 136.732,374.617 137.244 C 374.586 137.756,374.502 139.683,374.431 141.527 L 374.302 144.879 370.019 145.102 L 365.736 145.326 365.736 140.819 C 365.736 136.395,363.965 134.607,361.763 136.809 M29.087 141.596 C 31.066 145.293,25.906 149.387,22.662 146.694 C 21.587 145.802,21.188 141.444,22.098 140.534 C 23.329 139.303,28.262 140.053,29.087 141.596 M158.510 140.931 C 161.253 143.674,159.136 146.741,154.501 146.741 C 151.980 146.741,151.955 146.708,151.955 143.389 L 151.955 140.037 154.786 140.037 C 156.343 140.037,158.019 140.439,158.510 140.931 M199.755 141.270 C 200.815 142.229,201.117 143.603,201.117 147.459 C 201.117 153.759,200.179 155.138,195.830 155.235 L 192.551 155.307 192.334 148.662 C 192.215 145.008,192.288 141.572,192.497 141.027 C 193.039 139.615,198.114 139.785,199.755 141.270 M269.149 141.575 C 271.274 144.609,269.685 146.716,265.078 146.973 C 262.591 147.112,262.568 147.083,262.343 143.575 L 262.116 140.037 265.094 140.037 C 267.259 140.037,268.366 140.457,269.149 141.575 M20.585 172.121 C 18.539 173.730,17.932 177.272,19.324 179.472 C 19.799 180.222,19.458 181.195,18.196 182.695 C 13.230 188.596,20.280 196.833,26.807 192.756 C 27.960 192.036,28.461 192.036,29.181 192.756 C 31.763 195.339,34.365 193.417,32.382 190.391 C 31.507 189.054,31.422 188.190,32.015 186.630 C 33.129 183.701,29.981 181.303,28.787 184.171 C 28.510 184.836,28.072 184.698,27.260 183.691 C 26.219 182.401,26.279 182.090,27.958 180.095 C 31.311 176.110,29.132 170.577,24.209 170.577 C 23.295 170.577,21.664 171.272,20.585 172.121 M50.196 171.307 C 44.708 173.525,43.194 187.995,48.045 191.874 C 51.959 195.004,61.432 193.896,60.928 190.368 C 60.696 188.748,59.966 188.646,55.121 189.559 C 51.481 190.245,49.849 188.824,49.367 184.545 C 48.475 176.625,50.786 173.446,56.325 174.975 C 58.643 175.616,61.080 174.651,61.080 173.093 C 61.080 171.405,53.167 170.107,50.196 171.307 M69.646 171.239 C 63.245 174.043,62.772 189.996,69.006 192.836 C 78.431 197.130,86.242 186.496,81.680 175.581 C 79.985 171.526,73.956 169.351,69.646 171.239 M176.545 171.204 C 170.147 173.115,169.194 188.294,175.208 192.506 C 179.101 195.233,186.155 193.528,188.121 189.384 C 192.989 179.125,186.123 168.342,176.545 171.204 M254.279 171.607 C 251.244 172.984,250.982 173.490,250.243 179.387 C 248.621 192.333,256.407 197.856,266.559 190.960 C 267.249 190.491,267.283 182.902,266.601 181.627 C 265.322 179.239,258.845 179.952,258.845 182.481 C 258.845 183.952,259.225 184.332,260.708 184.343 C 263.718 184.366,263.867 188.878,260.879 189.534 C 255.625 190.688,253.346 187.359,254.200 179.777 C 254.760 174.810,256.625 173.830,262.704 175.310 C 265.782 176.060,267.759 173.449,265.165 172.061 C 262.611 170.694,256.822 170.452,254.279 171.607 M284.552 171.204 C 278.825 172.915,277.042 185.923,281.838 191.008 C 285.448 194.836,294.972 194.550,294.972 190.613 C 294.972 188.696,294.194 188.471,290.743 189.392 C 285.457 190.803,283.799 189.067,283.799 182.123 C 283.799 175.278,285.482 173.425,290.347 174.918 C 293.774 175.970,296.165 174.431,294.183 172.448 C 292.879 171.145,287.204 170.412,284.552 171.204 M303.919 171.204 C 297.529 173.113,296.623 188.440,302.665 192.399 C 309.774 197.057,316.574 192.075,316.574 182.209 C 316.574 172.891,311.894 168.821,303.919 171.204 M345.909 171.712 C 341.049 174.203,339.922 187.107,344.191 191.377 C 348.463 195.648,359.743 193.825,356.890 189.324 C 356.385 188.528,355.688 188.503,353.363 189.195 C 347.669 190.892,346.369 189.598,346.369 182.232 C 346.369 174.936,348.034 173.178,353.229 174.989 C 355.307 175.714,355.804 175.648,356.611 174.545 C 358.804 171.546,350.515 169.351,345.909 171.712 M87.896 182.448 L 87.896 193.669 89.758 193.669 C 91.606 193.669,91.620 193.619,91.620 186.965 C 91.620 178.710,91.917 178.689,96.502 186.624 C 100.054 192.771,102.170 194.602,104.241 193.322 C 104.735 193.017,105.028 188.818,105.028 182.029 L 105.028 171.223 102.980 171.459 C 100.935 171.694,100.930 171.710,100.559 178.771 L 100.186 185.847 98.885 183.240 C 94.303 174.058,92.566 171.697,90.218 171.461 L 87.896 171.228 87.896 182.448 M111.153 182.309 L 111.359 193.296 115.456 193.534 C 124.842 194.078,127.374 191.601,127.374 181.878 C 127.374 172.614,126.129 171.322,117.197 171.322 L 110.947 171.322 111.153 182.309 M133.090 171.881 C 131.786 174.079,133.625 193.733,135.115 193.520 C 136.620 193.305,136.694 192.841,136.891 182.309 L 137.098 171.322 135.259 171.322 C 134.248 171.322,133.272 171.574,133.090 171.881 M140.782 172.006 C 140.782 174.187,141.852 175.047,144.563 175.047 L 147.440 175.047 147.649 184.171 L 147.858 193.296 149.721 193.296 L 151.583 193.296 151.792 184.171 L 152.001 175.047 154.878 175.047 C 157.694 175.047,159.255 173.634,158.245 172.000 C 157.696 171.110,140.782 171.117,140.782 172.006 M162.384 182.495 L 162.384 193.669 164.246 193.669 L 166.108 193.669 166.108 182.495 L 166.108 171.322 164.246 171.322 L 162.384 171.322 162.384 182.495 M194.579 182.260 L 194.786 193.296 196.648 193.296 C 198.466 193.296,198.519 193.141,198.883 186.690 L 199.255 180.083 203.354 186.690 C 206.738 192.145,207.776 193.296,209.313 193.296 L 211.173 193.296 211.379 182.309 L 211.585 171.322 209.703 171.322 C 207.822 171.322,207.821 171.324,207.821 178.442 C 207.821 185.521,207.190 186.780,205.545 182.982 C 202.675 176.358,199.124 171.688,196.783 171.460 L 194.373 171.225 194.579 182.260 M217.671 182.258 C 217.872 193.013,217.919 193.302,219.527 193.531 C 221.782 193.851,222.077 192.240,221.817 181.006 L 221.601 171.695 219.533 171.457 L 217.464 171.219 217.671 182.258 M227.685 171.819 C 226.954 172.550,227.102 191.634,227.847 192.811 C 229.876 196.011,231.282 193.370,231.499 185.952 L 231.713 178.626 235.398 184.844 C 237.425 188.263,239.373 191.564,239.728 192.179 C 242.288 196.610,244.990 193.323,244.744 186.076 C 244.657 183.492,244.525 179.115,244.453 176.350 C 244.325 171.519,244.247 171.322,242.458 171.322 C 240.610 171.322,240.596 171.372,240.596 178.026 C 240.596 181.999,240.292 184.730,239.851 184.730 C 239.441 184.730,239.106 184.434,239.106 184.072 C 239.106 179.311,229.981 169.522,227.685 171.819 M326.057 172.959 C 325.843 173.902,324.273 178.613,322.568 183.428 C 320.863 188.243,319.674 192.517,319.927 192.925 C 320.963 194.603,323.274 193.628,324.347 191.061 C 325.390 188.565,325.597 188.454,329.236 188.454 C 332.876 188.454,333.083 188.565,334.126 191.061 C 335.175 193.570,337.504 194.612,338.492 193.013 C 338.715 192.652,337.302 187.708,335.351 182.026 L 331.804 171.695 329.125 171.469 C 326.847 171.277,326.387 171.501,326.057 172.959 M362.177 182.309 C 362.378 192.978,362.431 193.303,364.017 193.529 C 365.707 193.769,366.120 192.683,366.656 186.592 C 366.846 184.433,366.979 184.358,370.577 184.358 L 374.302 184.358 374.674 188.827 C 375.002 192.760,375.248 193.325,376.723 193.534 C 378.397 193.772,378.399 193.762,378.399 182.547 L 378.399 171.322 376.536 171.322 C 374.757 171.322,374.674 171.521,374.674 175.791 L 374.674 180.261 370.577 180.261 C 367.842 180.261,366.452 179.951,366.395 179.330 C 366.347 178.818,366.231 178.063,366.136 177.654 C 366.040 177.244,365.911 175.652,365.849 174.115 C 365.749 171.655,365.512 171.322,363.853 171.322 L 361.971 171.322 362.177 182.309 M383.166 173.917 C 383.166 175.850,383.442 176.475,384.173 176.195 C 384.727 175.982,384.975 176.140,384.725 176.545 C 384.474 176.950,384.541 177.276,384.872 177.270 C 388.012 177.210,388.191 171.838,385.065 171.473 C 383.342 171.272,383.166 171.499,383.166 173.917 M25.921 175.936 C 26.255 177.668,23.237 179.272,22.628 177.686 C 21.960 175.944,22.925 174.160,24.384 174.441 C 25.097 174.579,25.789 175.251,25.921 175.936 M76.723 175.791 C 79.996 179.065,78.128 189.976,74.302 189.934 C 70.282 189.890,68.529 187.518,68.529 182.123 C 68.529 175.315,72.882 171.951,76.723 175.791 M183.194 175.605 C 185.833 177.743,185.192 187.565,182.309 189.174 C 178.368 191.373,176.211 189.175,175.946 182.688 C 175.641 175.238,178.860 172.094,183.194 175.605 M310.569 175.605 C 315.472 179.577,310.866 192.120,305.587 189.174 C 301.017 186.624,302.714 174.302,307.635 174.302 C 308.364 174.302,309.684 174.888,310.569 175.605 M122.069 175.719 C 123.451 176.595,123.393 187.685,122.001 188.568 C 121.474 188.903,119.786 189.182,118.250 189.188 L 115.456 189.199 115.456 182.123 L 115.456 175.047 118.250 175.058 C 119.786 175.064,121.505 175.362,122.069 175.719 M330.577 179.755 C 332.004 183.702,331.752 184.730,329.361 184.730 C 326.453 184.730,326.318 184.420,327.570 180.617 C 328.882 176.631,329.394 176.484,330.577 179.755 M24.822 186.943 C 26.124 189.147,26.121 189.158,24.228 189.633 C 21.113 190.415,18.930 187.700,21.006 185.624 C 22.415 184.214,23.414 184.559,24.822 186.943 " stroke="none" fill="#000000" fill-rule="evenodd"></path></g></svg>