<?xml version="1.0" standalone="no"?>
<!DOCTYPE svg PUBLIC "-//W3C//DTD SVG 20010904//EN"
 "http://www.w3.org/TR/2001/REC-SVG-20010904/DTD/svg10.dtd">
<svg version="1.0" xmlns="http://www.w3.org/2000/svg"
 width="785.000000pt" height="431.000000pt" viewBox="0 0 785.000000 431.000000"
 preserveAspectRatio="xMidYMid meet">

<g transform="translate(0.000000,431.000000) scale(0.100000,-0.100000)"
fill="#000000" stroke="none">
<path d="M1298 3719 c-131 -140 -333 -655 -507 -1296 l-48 -178 -106 -3 c-99
-2 -106 -4 -121 -27 -39 -59 -64 -266 -36 -299 9 -12 33 -16 96 -16 46 0 84
-3 84 -6 0 -3 -15 -81 -34 -172 -152 -736 -176 -1267 -59 -1296 24 -7 243 -6
243 0 0 2 -9 18 -20 37 -53 90 -43 423 26 862 151 966 529 2173 751 2402 l42
43 -131 0 -132 0 -48 -51z m232 14 c-1 -5 -11 -21 -24 -36 -22 -27 -24 -28
-119 -25 l-96 3 25 33 25 32 95 0 c52 0 94 -3 94 -7z m-850 -1760 c0 -5 -3
-18 -6 -30 -6 -21 -12 -23 -78 -23 -74 0 -96 9 -96 42 0 16 10 18 90 18 50 0
90 -3 90 -7z m140 -407 c0 -42 -9 -46 -107 -46 -83 0 -94 2 -89 16 3 9 6 22 6
30 0 11 20 14 95 14 75 0 95 -3 95 -14z m-17 -81 c-62 -371 -86 -612 -81 -813
l4 -163 -90 3 c-87 3 -90 4 -97 28 -13 45 -9 322 6 462 15 143 62 458 72 484
4 12 23 14 97 12 54 -2 90 -7 89 -13z"/>
<path d="M1666 3718 c-223 -232 -604 -1456 -750 -2413 -43 -278 -51 -365 -51
-575 0 -305 3 -310 191 -310 l121 0 -25 50 c-95 192 30 1079 279 1994 173 633
383 1156 512 1272 l37 34 -132 0 -132 0 -50 -52z m212 -10 c-25 -33 -26 -33
-122 -36 -53 -1 -96 1 -96 5 0 4 12 20 27 35 26 27 31 28 121 28 l95 0 -25
-32z m-692 -2144 c-3 -9 -6 -22 -6 -30 0 -11 -20 -14 -95 -14 -93 0 -95 1 -95
23 0 13 3 27 7 30 3 4 49 7 101 7 82 0 93 -2 88 -16z m-16 -69 c0 -3 -13 -92
-29 -198 -17 -105 -35 -244 -42 -307 -14 -134 -17 -376 -6 -437 l7 -43 -94 0
c-80 0 -95 3 -100 17 -15 37 -18 215 -7 353 16 201 71 585 88 613 5 8 183 10
183 2z"/>
<path d="M2037 3731 c-285 -263 -790 -2085 -814 -2937 -7 -222 0 -290 31 -336
l22 -33 148 -3 c133 -2 151 -1 180 17 63 39 144 183 202 361 34 104 142 494
138 499 -2 2 -46 -20 -98 -48 -53 -29 -96 -48 -96 -43 0 5 40 150 89 323 116
409 107 369 82 369 -12 0 -33 11 -46 25 -20 20 -25 34 -25 78 0 70 25 140 62
177 27 28 35 30 101 30 l70 0 -20 23 c-62 67 -86 180 -60 277 13 48 237 699
266 773 10 26 13 27 84 27 l74 0 7 133 c9 186 -13 303 -59 321 -9 3 -79 6
-156 6 l-139 0 -43 -39z m195 -28 l-30 -38 -97 3 -98 3 34 35 c33 34 33 34
127 34 l94 0 -30 -37z m-692 -2153 l0 -30 -100 0 c-84 0 -99 2 -95 15 3 8 7
22 10 30 3 12 23 15 95 15 l90 0 0 -30z m-17 -77 c-1 -10 -13 -92 -27 -183
-14 -91 -31 -212 -37 -270 -14 -116 -18 -426 -7 -478 l8 -33 -98 3 -97 3 -6
30 c-12 57 -9 297 6 443 18 168 62 457 74 487 7 18 17 20 97 18 79 -2 89 -4
87 -20z"/>
<path d="M2184 2883 c-118 -346 -129 -384 -129 -448 1 -52 6 -81 23 -112 26
-50 84 -100 132 -113 21 -6 242 -10 536 -10 419 0 509 2 552 15 109 33 259
160 311 264 26 53 265 761 258 767 -3 3 -106 6 -228 7 l-224 2 -125 -365 c-69
-201 -128 -373 -132 -383 -7 -16 -33 -17 -317 -17 -170 0 -312 4 -315 8 -3 5
51 174 119 375 69 202 125 372 125 377 0 6 -84 10 -229 10 l-229 0 -128 -377z"/>
<path d="M7190 3249 c-125 -50 -133 -222 -12 -280 103 -50 215 22 215 137 0
58 -30 104 -83 132 -47 24 -80 27 -120 11z m124 -40 c32 -25 56 -69 56 -104 0
-64 -59 -125 -122 -125 -57 0 -97 25 -119 74 -19 44 -17 75 10 124 28 52 127
69 175 31z"/>
<path d="M7180 3105 c0 -60 3 -75 15 -75 9 0 15 9 15 25 0 18 5 25 18 25 10 0
25 -11 32 -25 7 -14 22 -25 32 -25 17 0 18 1 2 25 -16 24 -16 27 2 46 14 15
16 25 8 47 -9 25 -15 27 -67 30 l-57 3 0 -76z m89 46 c23 -15 5 -41 -29 -41
-25 0 -30 4 -30 25 0 19 5 25 23 25 12 0 28 -4 36 -9z"/>
<path d="M4245 3232 c-80 -28 -145 -70 -216 -142 -144 -146 -171 -317 -68
-434 72 -82 63 -80 504 -86 l390 -5 3 -26 c6 -53 14 -53 -561 -53 l-532 -1
-47 -135 c-26 -74 -47 -141 -47 -148 -1 -10 127 -12 662 -10 l663 3 79 39 c99
49 207 153 251 241 24 50 29 72 29 136 0 64 -4 84 -30 134 -20 40 -45 69 -73
90 l-44 30 -421 5 c-462 5 -453 4 -407 63 l21 27 531 2 530 3 74 135 c40 74
74 138 74 143 0 4 -296 7 -657 7 -598 -1 -663 -2 -708 -18z"/>
<path d="M5925 2739 c-297 -280 -549 -518 -560 -529 -19 -20 -17 -20 513 -20
l532 0 127 120 c70 66 131 120 134 120 7 0 16 -24 74 -184 l35 -99 -2404 8
-2405 7 -24 -26 c-44 -48 -61 -150 -29 -178 15 -14 315 -16 2745 -23 1500 -4
2727 -5 2727 -3 0 1 -112 298 -249 658 l-249 655 -213 2 -214 2 -540 -510z
m676 -92 l56 -157 -233 0 c-129 0 -234 2 -234 4 0 11 335 316 344 313 6 -2 36
-74 67 -160z"/>
<path d="M2567 1885 c-81 -28 -109 -73 -161 -255 -70 -241 -57 -260 178 -260
80 0 157 5 173 11 68 25 100 80 149 250 34 119 42 195 24 229 -6 11 -27 24
-48 30 -54 15 -269 12 -315 -5z m231 -137 c17 -17 15 -42 -13 -135 -33 -106
-43 -113 -158 -113 -111 0 -131 9 -122 57 14 74 47 164 67 183 19 17 36 20
118 20 61 0 100 -4 108 -12z"/>
<path d="M1912 1608 c-45 -154 -81 -283 -79 -285 3 -3 114 43 125 52 2 2 11
30 20 64 l18 62 126 2 c140 2 160 10 206 77 55 82 80 252 42 290 -19 19 -33
20 -198 20 l-178 0 -82 -282z m350 112 c-5 -69 -20 -78 -127 -82 -63 -2 -95 1
-95 8 0 6 7 34 15 63 l16 52 97 -3 97 -3 -3 -35z"/>
<path d="M3010 1856 c0 -32 -13 -243 -25 -414 l-5 -73 66 3 66 3 90 165 90
165 -7 -167 -6 -168 65 0 64 0 131 254 c72 140 131 257 131 260 0 3 -24 6 -53
6 l-54 0 -91 -187 -91 -188 5 160 c3 88 7 173 9 188 l5 28 -56 -3 -55 -3 -97
-182 c-53 -100 -97 -181 -99 -180 -1 1 5 72 12 157 21 231 25 210 -40 210
l-55 0 0 -34z"/>
<path d="M3642 1637 c-40 -139 -72 -256 -72 -260 0 -4 91 -6 201 -5 l202 3 14
49 c22 76 23 76 -132 76 l-137 0 7 33 c4 17 9 35 12 40 2 4 65 7 138 7 l134 0
14 48 c8 26 13 50 10 55 -2 4 -63 7 -135 7 -115 0 -129 2 -124 16 3 9 9 27 12
40 6 24 6 24 149 24 l144 0 15 54 c9 30 16 57 16 60 0 3 -89 6 -198 6 l-198 0
-72 -253z"/>
<path d="M4187 1883 c-6 -10 -147 -496 -147 -506 0 -4 25 -7 55 -7 l54 0 19
63 18 62 103 3 104 3 -6 -48 c-3 -26 -9 -56 -13 -66 -6 -16 -1 -18 52 -15 l58
3 18 70 c17 66 16 103 -4 116 -5 3 6 21 25 40 38 38 64 108 74 194 4 43 2 53
-17 70 -20 18 -39 20 -205 23 -101 2 -185 -1 -188 -5z m272 -132 c18 -12 9
-76 -15 -102 -15 -16 -32 -19 -116 -19 -64 0 -98 4 -98 11 0 6 7 35 16 65 l15
54 92 0 c51 0 98 -4 106 -9z"/>
<path d="M4699 1863 c-12 -31 -139 -477 -139 -487 0 -3 81 -6 180 -6 l179 0
16 52 c24 82 30 78 -105 78 -66 0 -120 3 -120 7 0 3 23 84 50 179 28 95 50
180 50 188 0 12 -11 16 -50 16 -46 0 -51 -3 -61 -27z"/>
<path d="M5110 1855 c-11 -34 -113 -391 -128 -447 l-10 -38 56 0 57 0 72 252
c39 139 70 254 68 256 -1 2 -26 4 -54 5 -49 2 -52 1 -61 -28z"/>
<path d="M5290 1813 c-11 -38 -44 -152 -74 -255 l-53 -188 48 0 c27 0 52 0 57
-1 4 0 18 38 31 85 l25 86 127 0 128 0 16 52 c8 28 15 55 15 60 0 4 -56 8
-125 8 l-125 0 6 28 c19 76 9 72 158 72 l134 0 11 44 c6 24 13 51 17 60 6 14
-12 16 -185 16 l-190 0 -21 -67z"/>
<path d="M5726 1868 c-3 -7 -9 -28 -15 -47 -21 -67 -19 -70 62 -73 l73 -3 -53
-185 c-29 -102 -53 -188 -53 -192 0 -5 24 -8 54 -8 43 0 56 4 60 18 8 29 97
336 102 355 5 14 18 17 83 17 l78 0 17 58 c9 32 16 61 16 65 0 4 -95 7 -210 7
-160 0 -212 -3 -214 -12z"/>
<path d="M6207 1873 c-3 -5 -35 -114 -71 -243 -37 -129 -69 -243 -72 -253 -5
-16 0 -18 52 -15 l57 3 73 255 c40 140 74 256 74 258 0 6 -109 1 -113 -5z"/>
<path d="M6381 1813 c-67 -230 -121 -424 -121 -438 0 -13 10 -15 53 -13 l52 3
51 177 c28 98 53 180 55 182 2 2 26 -79 53 -180 l49 -184 87 0 87 0 72 250
c39 137 71 254 71 260 0 5 -23 10 -54 10 l-53 0 -48 -167 c-26 -93 -51 -175
-55 -182 -9 -17 -6 -26 -66 202 l-39 147 -87 0 -87 0 -20 -67z"/>
<path d="M7013 1860 c-51 -31 -82 -89 -124 -232 -71 -243 -52 -276 161 -278
162 0 225 24 258 100 14 34 61 188 62 203 0 4 -56 7 -125 7 l-124 0 -11 -41
c-6 -22 -14 -47 -17 -55 -4 -11 8 -14 65 -14 66 0 70 -1 65 -20 -10 -38 -42
-50 -133 -50 -123 0 -127 7 -84 149 35 119 50 131 163 131 93 0 118 -11 105
-44 -5 -14 2 -16 49 -16 31 0 59 5 62 11 4 6 9 36 12 68 5 50 3 61 -16 80 -20
20 -31 21 -178 21 -139 0 -162 -2 -190 -20z"/>
</g>
</svg>
