<?xml version="1.0" standalone="no"?>
<!DOCTYPE svg PUBLIC "-//W3C//DTD SVG 20010904//EN"
 "http://www.w3.org/TR/2001/REC-SVG-20010904/DTD/svg10.dtd">
<svg version="1.0" xmlns="http://www.w3.org/2000/svg"
 width="512.000000pt" height="512.000000pt" viewBox="0 0 512.000000 512.000000"
 preserveAspectRatio="xMidYMid meet">

<g transform="translate(0.000000,512.000000) scale(0.100000,-0.100000)"
fill="#000000" stroke="none">
<path d="M3150 4890 c-133 -13 -237 -51 -317 -116 -142 -116 -129 -308 27
-402 64 -38 132 -59 330 -102 198 -43 233 -61 233 -121 0 -34 -39 -80 -89
-104 -50 -24 -168 -35 -254 -24 -100 12 -192 57 -227 110 -14 21 -28 39 -30
39 -9 0 -248 -62 -251 -65 -8 -8 49 -84 94 -126 57 -53 135 -92 231 -116 98
-25 401 -25 493 1 246 68 378 250 299 413 -47 98 -141 144 -396 198 -91 19
-185 44 -209 54 -53 24 -72 57 -55 98 50 120 364 123 461 5 l30 -36 87 23 c49
12 105 27 126 32 20 5 37 14 37 20 0 20 -111 126 -159 153 -102 55 -296 83
-461 66z"/>
<path d="M1527 4537 c-53 -227 -78 -351 -77 -392 1 -192 178 -305 475 -305
130 0 224 18 313 60 115 54 168 110 207 220 9 25 52 196 96 380 44 184 82 343
85 353 5 15 -5 17 -110 17 l-115 0 -10 -37 c-6 -21 -40 -163 -76 -315 -93
-397 -101 -416 -186 -463 -98 -53 -293 -44 -364 18 -48 40 -44 71 44 440 45
185 81 342 81 347 0 6 -55 10 -142 10 l-143 0 -78 -333z"/>
<path d="M4307 4778 c-50 -73 -427 -623 -599 -875 l-29 -43 135 0 136 0 80
120 80 120 244 0 244 0 28 -116 c15 -64 32 -118 39 -120 6 -3 76 -3 156 -2
l145 3 -131 500 -131 500 -166 3 -167 2 -64 -92z m213 -324 c25 -102 44 -187
41 -190 -7 -7 -341 -4 -341 3 0 11 242 373 249 373 3 0 26 -84 51 -186z"/>
<path d="M1060 4048 c-200 -787 -250 -983 -256 -1000 -5 -17 5 -18 124 -18
l130 0 20 78 c32 116 342 1366 342 1375 0 4 -56 7 -123 7 l-124 0 -113 -442z"/>
<path d="M806 4211 c-7 -10 -236 -858 -236 -872 0 -5 45 -9 103 -9 l104 0 116
439 c65 242 117 442 117 445 0 9 -198 7 -204 -3z"/>
<path d="M420 3925 l-22 -65 -76 0 -76 0 61 -45 62 -46 -24 -70 c-14 -41 -19
-67 -12 -62 7 4 33 22 58 40 26 18 50 33 54 33 5 0 32 -18 62 -40 29 -23 53
-37 53 -32 0 5 -9 35 -20 68 l-21 59 24 20 c12 11 39 32 58 47 l34 27 -72 1
-71 0 -22 65 c-12 36 -23 65 -25 65 -2 0 -13 -29 -25 -65z"/>
<path d="M1398 3795 c-2 -3 5 -62 16 -132 21 -124 22 -128 48 -131 29 -4 42
11 103 122 44 79 45 79 67 -44 12 -69 15 -75 39 -78 14 -2 30 3 36 10 18 22
143 240 143 249 0 5 -11 9 -23 9 -20 0 -33 -17 -77 -96 -60 -108 -63 -107 -75
8 -9 80 -15 90 -50 86 -24 -3 -36 -16 -79 -95 -28 -51 -54 -93 -57 -93 -4 0
-10 33 -13 73 -11 109 -14 117 -45 117 -15 0 -30 -2 -33 -5z"/>
<path d="M1905 3788 c-3 -7 -18 -66 -34 -130 l-28 -118 117 0 c92 0 119 3 123
14 9 23 -2 26 -86 26 -77 0 -79 1 -73 23 3 12 6 28 6 35 0 8 21 12 69 12 65 0
81 7 81 35 0 2 -31 5 -68 7 l-68 3 8 32 8 32 83 3 c69 3 82 6 85 21 3 15 -7
17 -108 17 -79 0 -112 -4 -115 -12z"/>
<path d="M2195 3788 c-7 -20 -55 -229 -55 -240 0 -5 14 -8 32 -6 l31 3 28 120
c16 66 29 123 29 128 0 12 -60 8 -65 -5z"/>
<path d="M2370 3778 c-90 -62 -106 -175 -31 -225 37 -25 132 -24 160 1 19 17
21 17 27 2 3 -9 12 -16 19 -16 14 0 18 9 30 65 3 17 8 38 11 48 5 15 -3 17
-64 17 -66 0 -82 -7 -82 -35 0 -2 19 -5 43 -7 l42 -3 -27 -27 c-49 -51 -138
-22 -138 43 0 95 103 157 164 100 36 -34 85 -26 65 10 -27 52 -159 68 -219 27z"/>
<path d="M2695 3788 c-3 -7 -18 -66 -34 -130 l-28 -118 33 0 c31 0 33 2 45 55
l12 55 73 0 72 0 -14 -52 c-7 -29 -14 -54 -14 -55 0 -2 15 -3 33 -3 l33 0 27
118 c15 64 27 123 27 130 0 7 -13 12 -29 12 -28 0 -30 -4 -42 -55 l-12 -55
-70 0 -70 0 7 39 c3 22 9 46 12 55 5 13 -1 16 -25 16 -18 0 -34 -6 -36 -12z"/>
<path d="M3007 3793 c-20 -20 -4 -33 39 -33 39 0 45 -3 40 -17 -6 -21 -46
-192 -46 -198 0 -3 15 -5 33 -5 l32 0 19 88 c29 134 28 132 81 132 38 0 45 3
45 20 0 19 -7 20 -118 20 -65 0 -122 -3 -125 -7z"/>
<path d="M3295 3788 c-5 -16 -55 -234 -55 -243 0 -3 48 -4 107 -3 93 3 108 5
111 21 3 15 -5 17 -71 17 l-74 0 23 98 c13 53 24 103 24 110 0 7 -13 12 -30
12 -17 0 -33 -6 -35 -12z"/>
<path d="M3546 3728 c-9 -40 -23 -99 -31 -130 l-13 -58 33 0 33 0 27 118 c15
64 28 122 29 127 0 6 -13 11 -30 13 -32 3 -32 3 -48 -70z"/>
<path d="M3706 3783 c-6 -21 -56 -233 -56 -239 0 -2 16 -4 35 -4 27 0 35 4 35
18 0 9 5 34 11 55 l10 37 63 0 c48 0 65 4 70 15 8 21 -13 28 -74 23 l-51 -3 7
30 c10 45 10 45 89 45 69 0 85 7 85 36 0 2 -49 4 -109 4 -96 0 -110 -2 -115
-17z"/>
<path d="M3937 3780 c-5 -18 0 -20 39 -20 24 0 44 -2 44 -5 0 -6 -40 -177 -46
-197 -4 -15 1 -18 29 -18 l34 0 25 108 25 107 44 3 c40 3 58 14 59 35 0 4 -56
7 -124 7 -115 0 -124 -1 -129 -20z"/>
<path d="M4226 3783 c-3 -10 -15 -61 -26 -113 -11 -52 -23 -103 -26 -112 -4
-15 1 -18 28 -18 l34 0 27 118 c15 64 27 123 27 130 0 20 -58 15 -64 -5z"/>
<path d="M4375 3788 c-7 -22 -55 -229 -55 -239 0 -5 11 -9 24 -9 22 0 25 8 46
97 l22 96 62 -96 c52 -83 65 -97 88 -97 25 0 27 4 52 113 15 61 29 120 32 130
5 15 1 18 -22 15 -25 -3 -28 -8 -48 -92 l-21 -89 -56 89 c-49 78 -60 89 -87
92 -20 2 -34 -2 -37 -10z"/>
<path d="M4759 3778 c-69 -39 -101 -142 -63 -197 19 -27 71 -51 112 -51 15 0
44 8 64 19 30 15 38 16 42 5 13 -33 33 -11 48 51 l15 66 -71 -3 c-57 -2 -71
-6 -74 -20 -3 -13 6 -17 39 -20 l41 -3 -27 -27 c-34 -34 -85 -38 -115 -8 -37
37 -18 134 31 161 34 18 88 13 113 -10 12 -12 30 -21 39 -21 31 0 30 23 -2 52
-27 24 -39 28 -94 28 -45 0 -72 -6 -98 -22z"/>
<path d="M1172 3073 c-56 -230 -105 -428 -108 -440 -6 -23 -6 -23 116 -23
l123 0 -6 -62 c-31 -311 -5 -568 85 -848 178 -553 588 -1026 1124 -1297 l132
-66 63 12 c260 51 595 193 839 356 283 188 494 403 705 720 313 471 535 1074
694 1887 17 87 31 162 31 168 0 7 -590 10 -1848 10 l-1848 0 -102 -417z m1162
185 c3 -13 8 -45 11 -73 11 -81 39 -148 108 -253 101 -154 127 -212 142 -318
11 -81 18 -100 49 -143 41 -55 64 -104 131 -279 26 -67 50 -120 53 -117 3 3
11 53 18 111 16 126 26 159 64 213 36 49 102 89 189 113 81 22 128 23 203 2
98 -28 157 -95 215 -242 8 -22 13 -18 64 60 57 85 79 134 79 174 0 13 32 121
71 240 81 250 89 295 65 357 -22 57 -58 91 -127 117 -31 11 -64 29 -74 40 -18
20 -17 20 218 20 130 0 238 -4 241 -9 3 -4 6 -147 8 -317 2 -357 -3 -396 -77
-553 -27 -58 -53 -135 -65 -192 -52 -247 -140 -444 -252 -565 -50 -54 -66
-103 -78 -243 -21 -225 -24 -235 -137 -423 -56 -95 -70 -111 -121 -141 -157
-95 -342 -170 -532 -217 l-120 -29 -63 20 c-68 23 -193 86 -244 125 -18 14
-33 33 -33 43 0 10 14 72 30 138 21 84 30 143 30 199 -2 591 -5 667 -28 739
-18 55 -26 115 -37 283 -8 117 -17 217 -20 222 -3 5 -11 38 -16 72 -7 47 -21
80 -54 130 -59 89 -80 156 -100 318 -12 103 -22 148 -43 190 -26 52 -31 57
-119 100 -96 47 -133 74 -133 97 0 10 46 13 240 13 l240 0 4 -22z"/>
</g>
</svg>
