<?xml version="1.0" standalone="no"?>
<!DOCTYPE svg PUBLIC "-//W3C//DTD SVG 20010904//EN"
 "http://www.w3.org/TR/2001/REC-SVG-20010904/DTD/svg10.dtd">
<svg version="1.0" xmlns="http://www.w3.org/2000/svg"
 width="225.000000pt" height="225.000000pt" viewBox="0 0 225.000000 225.000000"
 preserveAspectRatio="xMidYMid meet">

<g transform="translate(0.000000,225.000000) scale(0.100000,-0.100000)"
fill="#000000" stroke="none">
<path d="M1126 2228 c-9 -12 -16 -29 -16 -38 0 -29 30 -60 59 -60 56 0 83 73
39 104 -32 22 -64 20 -82 -6z m62 -10 c17 -17 15 -43 -4 -58 -12 -11 -18 -10
-31 3 -14 13 -14 21 -5 42 13 28 22 31 40 13z"/>
<path d="M931 2233 c-20 -4 -22 -9 -17 -35 3 -17 6 -41 6 -54 0 -20 5 -24 29
-24 36 0 61 9 61 22 0 5 -13 7 -30 3 -23 -5 -30 -3 -30 9 0 10 9 16 25 16 14
0 25 5 25 10 0 6 -13 10 -30 10 -36 0 -40 17 -5 26 14 3 25 10 25 15 0 9 -17
10 -59 2z"/>
<path d="M1276 2222 c-2 -9 -8 -36 -11 -59 -6 -35 -4 -43 9 -43 9 0 16 8 16
20 0 15 7 20 25 20 14 0 25 5 25 10 0 6 -9 10 -20 10 -12 0 -20 7 -20 16 0 12
7 15 25 12 35 -7 42 10 8 18 -15 3 -33 7 -40 9 -7 2 -14 -4 -17 -13z"/>
<path d="M792 2198 c-31 -15 -38 -52 -17 -84 15 -23 22 -26 57 -21 51 7 61 17
49 49 -8 20 -15 25 -35 21 -28 -6 -36 -23 -11 -23 8 0 15 -7 15 -15 0 -25 -39
-17 -52 10 -15 33 4 57 39 48 19 -4 24 -2 21 8 -6 18 -37 21 -66 7z"/>
<path d="M1467 2173 c-14 -13 -6 -43 13 -55 19 -12 28 -38 12 -38 -4 0 -16 10
-27 23 -18 20 -20 21 -23 3 -5 -25 10 -38 49 -39 28 -2 35 2 37 21 2 14 -5 29
-20 41 -13 11 -20 23 -16 27 5 4 16 0 26 -9 23 -21 32 -21 32 -2 0 25 -64 47
-83 28z"/>
<path d="M668 2150 l-37 -20 20 -47 c11 -26 22 -49 23 -51 6 -6 76 32 76 41 0
5 -8 6 -17 2 -10 -4 -24 -9 -30 -12 -7 -3 -13 2 -13 10 0 9 9 19 20 22 32 10
24 27 -10 20 -34 -7 -44 13 -10 22 11 3 20 12 20 19 0 17 3 17 -42 -6z"/>
<path d="M1577 2081 c-23 -42 -25 -50 -12 -55 9 -3 18 1 21 9 5 11 16 13 44 9
33 -6 39 -3 45 17 6 18 2 28 -21 46 -16 13 -34 23 -40 23 -6 0 -23 -22 -37
-49z m69 8 c3 -6 2 -15 -2 -19 -12 -12 -38 5 -30 19 9 14 23 14 32 0z"/>
<path d="M527 2074 c-7 -8 45 -94 58 -94 17 0 67 37 58 43 -5 3 -15 2 -23 -4
-23 -14 -27 -12 -50 26 -21 34 -31 41 -43 29z"/>
<path d="M1706 2029 c-43 -33 -30 -87 25 -104 26 -9 69 29 69 61 0 20 -41 64
-60 64 -4 0 -19 -9 -34 -21z m64 -32 c0 -28 -17 -47 -42 -47 -21 0 -25 39 -6
58 21 21 48 14 48 -11z"/>
<path d="M426 2002 c-5 -8 54 -91 66 -92 14 0 63 48 56 56 -5 4 -16 0 -27 -10
-17 -16 -20 -15 -45 19 -27 35 -40 42 -50 27z"/>
<path d="M1816 1921 c-22 -23 -35 -44 -31 -51 5 -8 12 -7 25 5 24 22 44 11 30
-16 -14 -25 -3 -44 16 -28 8 6 14 17 14 24 0 7 9 15 20 18 11 3 20 12 20 20 0
16 -37 67 -49 67 -4 0 -24 -18 -45 -39z m64 -17 c0 -17 -22 -14 -28 4 -2 7 3
12 12 12 9 0 16 -7 16 -16z"/>
<path d="M363 1939 c-49 -18 -52 -76 -7 -106 20 -13 30 -14 50 -5 72 34 32
139 -43 111z m42 -39 c19 -21 14 -50 -9 -50 -18 0 -46 27 -46 44 0 31 29 34
55 6z"/>
<path d="M1945 1841 c4 -14 -3 -25 -25 -41 -16 -12 -30 -28 -30 -36 0 -20 11
-18 50 11 26 19 37 22 47 13 26 -21 25 1 -2 36 -30 39 -50 47 -40 17z"/>
<path d="M247 1812 c-18 -19 -22 -49 -9 -68 12 -19 52 -35 71 -29 23 7 45 49
37 70 -8 21 -26 10 -26 -16 0 -30 -28 -35 -53 -10 l-22 21 30 25 c27 22 28 24
9 25 -11 0 -28 -8 -37 -18z"/>
<path d="M1086 1801 c-3 -5 -6 -24 -6 -43 2 -153 0 -191 -11 -204 -8 -10 -8
-14 0 -14 6 0 11 -13 11 -30 0 -40 -26 -52 -96 -44 -41 5 -55 4 -50 -4 9 -14
-65 -68 -104 -77 -16 -4 -36 -2 -45 2 -13 8 -5 17 41 46 31 20 64 37 73 37 9
1 -10 12 -42 25 -31 13 -64 31 -73 39 -8 9 -27 16 -40 16 -29 0 -64 16 -64 30
0 6 11 10 25 10 13 0 70 10 126 22 80 17 105 19 120 10 11 -7 19 -8 19 -2 0
20 -50 21 -126 4 -43 -9 -117 -23 -164 -29 -51 -8 -70 -13 -47 -14 38 -1 51
-16 20 -24 -10 -2 -6 -3 8 -1 43 5 44 -10 2 -24 -28 -9 -30 -11 -8 -7 101 18
108 18 100 5 -6 -10 -4 -12 8 -7 9 3 19 2 22 -3 4 -6 5 -10 3 -10 -12 0 -120
-50 -108 -50 8 0 39 11 67 25 55 25 82 18 38 -11 -42 -28 -138 -64 -171 -64
-17 0 -37 6 -43 14 -9 11 -2 15 40 20 28 4 49 9 46 12 -3 3 -27 1 -54 -4 -26
-4 -61 -5 -76 -1 -16 4 -25 3 -21 -2 3 -5 13 -9 22 -9 10 0 25 -9 35 -20 10
-13 29 -20 50 -20 18 0 38 -5 44 -11 6 -6 26 -9 44 -6 l34 4 -37 1 c-21 1 -38
5 -38 10 1 14 180 94 197 88 21 -8 13 -16 -59 -59 l-57 -34 38 -13 c22 -7 44
-9 50 -5 7 4 18 1 26 -5 10 -8 30 -10 58 -6 65 10 76 3 63 -39 -12 -40 -27
-43 -63 -15 -32 25 -79 26 -119 1 -31 -19 -51 -66 -33 -77 5 -3 9 -16 9 -28 0
-14 8 -26 18 -30 48 -17 72 -24 72 -20 0 3 -14 10 -31 16 l-30 10 22 24 c17
18 33 24 66 24 24 0 43 -4 43 -8 0 -13 -23 -38 -45 -50 -16 -9 -17 -11 -3 -12
18 0 58 45 58 66 0 10 -14 14 -49 14 -39 0 -56 -6 -83 -27 -18 -15 -26 -19
-18 -9 13 16 12 20 -5 32 -16 12 -17 16 -6 23 11 7 11 9 0 14 -11 4 -11 6 -1
6 7 1 10 6 7 11 -3 6 1 10 9 10 8 0 18 -4 21 -10 3 -5 18 -10 33 -9 26 1 25 1
-6 10 -40 12 -33 29 12 29 34 0 74 -28 45 -31 -23 -3 93 -17 144 -18 l47 -1 0
35 c0 30 3 35 24 35 20 0 25 -6 29 -32 l4 -33 1 33 c2 28 5 33 23 30 35 -5 47
-33 25 -57 -15 -16 -28 -20 -60 -16 l-41 4 46 -12 c25 -7 65 -29 89 -49 39
-34 44 -36 64 -23 25 18 68 19 84 3 7 -7 12 -24 12 -38 0 -29 -32 -50 -76 -50
-22 0 -23 -2 -13 -21 6 -12 8 -37 4 -58 -3 -20 -8 -58 -10 -86 l-3 -50 10 55
c5 30 10 76 11 103 1 31 6 47 15 47 7 0 26 7 42 15 23 12 30 23 30 44 0 52
-60 79 -105 47 -18 -12 -24 -11 -49 9 -28 22 -28 23 -11 49 13 19 16 38 12 67
-5 38 -4 40 25 46 l29 6 -26 17 c-31 20 -57 55 -48 64 15 15 48 4 86 -29 22
-19 44 -35 49 -35 4 0 8 -4 8 -10 0 -5 -15 -11 -32 -11 -32 -2 -33 -2 -4 -6
16 -3 33 0 38 5 6 6 25 8 43 5 18 -3 35 -1 39 5 4 6 28 8 60 5 34 -4 56 -2 60
6 4 6 22 11 40 11 29 0 98 38 71 40 -5 0 -41 7 -79 15 -38 8 -71 13 -73 11 -5
-5 81 -26 107 -26 13 0 20 -5 17 -12 -2 -8 -23 -13 -57 -12 -29 0 -48 -2 -42
-4 25 -8 10 -22 -23 -22 -36 0 -109 33 -155 69 -23 18 -23 20 -6 27 12 5 41
-5 86 -30 37 -20 71 -36 76 -36 5 1 -9 10 -31 21 -65 34 -86 49 -80 59 4 6 23
1 47 -11 22 -11 42 -19 44 -16 2 2 -14 12 -36 22 -38 17 -48 41 -12 28 14 -5
15 -3 5 7 -10 11 -16 11 -31 -3 -10 -9 -42 -24 -72 -34 -40 -13 -49 -19 -35
-23 39 -11 126 -73 116 -83 -16 -16 -75 1 -120 35 -32 23 -39 33 -29 40 8 6
-10 8 -50 4 -76 -7 -102 4 -102 43 0 28 1 28 44 24 62 -7 87 9 84 55 -3 33 0
37 27 43 27 6 28 7 5 8 -41 1 -53 -12 -46 -52 7 -39 -2 -47 -59 -47 -46 0 -56
17 -55 102 1 149 -2 163 -32 166 -14 2 -29 -1 -32 -7z m52 -24 c4 -20 -25 -34
-40 -19 -15 15 -1 44 19 40 10 -2 19 -11 21 -21z m-17 -65 c-28 -4 -40 6 -21
18 9 6 20 4 29 -3 12 -10 11 -13 -8 -15z m29 -22 c0 -5 -16 -10 -35 -10 -19 0
-35 5 -35 10 0 6 16 10 35 10 19 0 35 -4 35 -10z m-12 -162 c-3 -140 -4 -143
-25 -146 -23 -3 -23 -3 -23 142 l0 146 25 0 26 0 -3 -142z m-84 -113 c-26 -34
-63 -53 -82 -41 -13 8 44 68 77 82 36 15 38 1 5 -41z m182 -2 c33 -34 33 -43
1 -43 -22 0 -87 64 -87 85 0 22 48 -2 86 -42z m-232 39 c9 -16 -55 -71 -89
-78 -54 -10 -60 5 -16 36 21 16 42 33 46 39 7 13 52 15 59 3z m165 -44 c12
-15 11 -18 -3 -18 -10 0 -16 8 -16 22 0 12 1 19 3 17 1 -2 9 -12 16 -21z m-89
-3 c0 -8 -7 -15 -16 -15 -14 0 -14 3 -4 15 7 8 14 15 16 15 2 0 4 -7 4 -15z
m0 -36 c0 -5 4 -8 9 -4 5 3 12 1 16 -5 4 -6 -9 -10 -32 -10 -44 0 -63 -14 -63
-47 0 -13 -4 -23 -9 -23 -33 0 -19 65 18 85 31 17 61 19 61 4z m143 -16 c23
-21 22 -75 -1 -96 -25 -23 -35 -10 -15 20 13 19 14 29 5 48 -10 21 -19 25 -52
25 -22 0 -40 4 -40 10 0 5 7 7 15 4 8 -4 15 -1 15 6 0 16 49 4 73 -17z m-143
-43 c0 -27 -3 -30 -30 -30 -25 0 -30 4 -30 23 0 30 7 37 37 37 19 0 23 -5 23
-30z"/>
<path d="M1997 1728 c-2 -7 -2 -28 1 -45 3 -21 0 -33 -7 -33 -6 0 -12 6 -12
13 -1 6 -2 18 -3 26 -2 27 -26 24 -26 -3 0 -25 30 -66 49 -66 20 0 33 30 26
61 -5 24 -4 30 6 27 8 -3 14 -13 14 -23 0 -10 6 -20 13 -22 19 -7 15 42 -6 60
-22 20 -49 22 -55 5z"/>
<path d="M140 1638 c0 -7 17 -20 38 -30 l37 -16 -51 -1 c-42 -1 -53 -5 -57
-20 -3 -14 6 -23 40 -40 50 -24 63 -26 63 -8 0 6 -17 19 -38 29 l-37 16 51 1
c42 1 53 5 57 20 3 14 -6 23 -40 40 -50 24 -63 26 -63 9z"/>
<path d="M1385 1614 c28 -7 59 -13 70 -13 11 0 -5 7 -35 14 -72 18 -100 17
-35 -1z"/>
<path d="M957 1593 c-14 -13 -7 -43 12 -53 11 -5 35 -9 53 -9 26 1 28 3 8 6
-68 10 -72 13 -66 38 7 25 5 30 -7 18z"/>
<path d="M1493 1593 c9 -2 23 -2 30 0 6 3 -1 5 -18 5 -16 0 -22 -2 -12 -5z"/>
<path d="M380 1575 c0 -8 20 -35 45 -60 44 -44 47 -45 103 -43 52 1 53 2 12 5
-67 5 -90 12 -90 27 0 8 -8 18 -17 22 -12 6 17 11 82 14 l100 6 -107 2 c-103
2 -139 13 -107 33 11 7 10 9 -3 9 -10 0 -18 -7 -18 -15z"/>
<path d="M1543 1583 c12 -11 -15 -33 -42 -34 -22 -1 -21 -2 9 -9 19 -5 37 -7
39 -4 2 2 -1 4 -8 4 -7 0 -9 5 -6 10 3 6 16 8 28 6 12 -1 16 -1 10 1 -22 8
-14 22 15 26 21 3 18 4 -12 6 -22 0 -36 -2 -33 -6z"/>
<path d="M1725 1579 l-110 -6 113 1 c102 1 142 -8 93 -21 -11 -3 -17 -11 -14
-19 5 -14 -16 -21 -82 -27 -37 -3 -36 -4 10 -5 70 -3 39 -21 -40 -24 -50 -1
-53 -2 -17 -5 41 -4 55 -16 30 -26 -8 -3 -6 -6 5 -6 9 -1 17 6 17 14 0 8 7 15
16 15 16 0 104 86 104 101 0 13 -12 14 -125 8z"/>
<path d="M468 1573 c23 -2 61 -2 85 0 23 2 4 4 -43 4 -47 0 -66 -2 -42 -4z"/>
<path d="M2088 1541 c-27 -9 -48 -20 -47 -26 0 -11 8 -11 54 0 29 6 29 6 -7
-16 -53 -32 -49 -49 10 -50 l47 -1 -37 -15 c-21 -9 -38 -21 -38 -28 0 -10 12
-10 53 3 64 20 60 17 52 41 -4 14 -16 21 -43 23 l-37 3 28 14 c26 14 34 35 19
57 -5 8 -21 6 -54 -5z"/>
<path d="M1628 1543 c18 -2 45 -2 60 0 15 2 0 4 -33 4 -33 0 -45 -2 -27 -4z"/>
<path d="M1568 1523 c7 -3 16 -2 19 1 4 3 -2 6 -13 5 -11 0 -14 -3 -6 -6z"/>
<path d="M558 1513 c12 -2 32 -2 45 0 12 2 2 4 -23 4 -25 0 -35 -2 -22 -4z"/>
<path d="M1515 1505 c17 -8 39 -14 50 -14 11 0 0 7 -25 15 -56 17 -64 17 -25
-1z"/>
<path d="M1618 1513 c12 -2 30 -2 40 0 9 3 -1 5 -23 4 -22 0 -30 -2 -17 -4z"/>
<path d="M635 1495 c-28 -8 -39 -13 -25 -13 14 0 43 5 65 13 51 17 25 17 -40
0z"/>
<path d="M1598 1483 c6 -2 18 -2 25 0 6 3 1 5 -13 5 -14 0 -19 -2 -12 -5z"/>
<path d="M109 1473 c-57 -6 -56 -33 0 -76 27 -22 50 -32 55 -27 6 6 4 15 -3
24 -15 18 -5 56 15 56 8 0 14 7 14 15 0 15 -6 16 -81 8z m29 -35 c-3 -7 -11
-13 -18 -13 -7 0 -15 6 -17 13 -3 7 4 12 17 12 13 0 20 -5 18 -12z"/>
<path d="M2106 1363 c-26 -4 -28 -7 -22 -35 3 -17 6 -37 6 -44 0 -8 5 -14 11
-14 7 0 10 12 7 30 -6 37 19 42 28 5 3 -14 10 -22 15 -19 5 3 6 16 3 30 -5 18
-2 24 10 24 10 0 16 -9 16 -25 0 -14 5 -25 10 -25 11 0 13 39 4 64 -6 16 -27
18 -88 9z"/>
<path d="M52 1337 c-19 -22 -23 -61 -9 -80 16 -23 84 -28 98 -7 13 21 7 83
-10 88 -11 4 -12 -3 -7 -32 7 -36 7 -36 -28 -36 -43 0 -52 13 -32 42 9 12 16
26 16 30 0 12 -16 9 -28 -5z"/>
<path d="M2100 1204 c0 -53 15 -74 53 -74 44 0 57 15 57 67 l0 43 -55 0 -55 0
0 -36z m88 -16 c-2 -18 -10 -23 -33 -23 -23 0 -31 5 -33 23 -3 19 1 22 33 22
32 0 36 -3 33 -22z"/>
<path d="M1012 1220 c46 -14 48 -19 23 -57 -14 -20 -25 -43 -25 -51 0 -9 -6
-23 -14 -31 -16 -18 -56 -115 -55 -134 0 -7 10 13 22 43 41 103 112 194 158
203 22 4 22 4 -4 6 -15 0 -44 8 -64 16 -19 8 -43 15 -52 14 -9 0 -4 -4 11 -9z
m44 -58 l-29 -27 23 32 c13 18 26 30 29 28 3 -3 -8 -18 -23 -33z"/>
<path d="M30 1185 c0 -10 10 -15 33 -15 17 0 42 -3 55 -6 16 -5 22 -2 22 9 0
16 -29 27 -77 27 -23 0 -33 -5 -33 -15z"/>
<path d="M107 1124 c-4 -4 -21 -7 -39 -8 -31 -1 -33 -3 -36 -43 l-3 -43 60 0
c48 0 61 3 61 15 0 9 -9 15 -25 15 -30 0 -34 26 -5 35 22 7 28 35 7 35 -8 0
-17 -3 -20 -6z m-27 -49 c0 -8 -7 -15 -15 -15 -8 0 -15 7 -15 15 0 8 7 15 15
15 8 0 15 -7 15 -15z"/>
<path d="M2100 1075 c0 -11 11 -15 39 -15 22 0 46 -3 55 -6 10 -4 16 -1 16 9
0 17 -29 27 -77 27 -23 0 -33 -5 -33 -15z"/>
<path d="M1149 1000 c-9 -10 -23 -20 -30 -22 -11 -5 -12 -8 -1 -19 14 -15 17
-89 3 -89 -14 0 -23 36 -17 63 l6 22 -11 -22 c-7 -13 -17 -23 -23 -23 -5 0 6
-17 25 -37 19 -21 48 -57 63 -81 22 -36 25 -46 15 -58 -10 -12 -10 -17 -1 -23
22 -13 3 -35 -83 -94 -53 -36 -85 -65 -84 -75 0 -14 2 -14 6 -2 7 16 44 49 56
50 4 0 1 -13 -8 -30 -19 -36 -19 -48 1 -85 18 -34 30 -100 14 -75 -9 13 -10
13 -10 -1 0 -8 5 -20 12 -27 9 -9 9 -12 1 -12 -18 0 -25 37 -12 62 11 21 11
22 -4 9 -22 -18 -22 -57 1 -73 10 -7 21 -21 25 -31 6 -16 11 -14 43 17 34 33
44 76 19 77 -17 2 -65 40 -81 65 -13 19 -14 30 -5 57 13 37 51 80 51 57 0 -7
-6 -21 -14 -29 -30 -33 -29 -66 2 -102 28 -32 33 -34 86 -31 43 3 59 8 66 23
8 13 7 19 -1 19 -26 0 -69 42 -70 68 0 15 -3 21 -6 14 -10 -25 7 -57 38 -75
42 -24 26 -39 -35 -35 l-48 3 -2 88 c-3 79 -1 89 18 102 18 13 21 13 29 -1 5
-9 7 -26 4 -40 -2 -13 0 -21 4 -18 5 3 9 15 9 27 0 12 9 28 20 35 11 7 20 19
20 28 0 9 12 49 26 90 14 41 23 84 21 97 -4 21 -4 20 -6 -3 -1 -14 -14 -62
-29 -107 -22 -64 -31 -80 -40 -71 -7 7 -12 18 -12 25 0 7 -6 13 -12 13 -7 0 0
11 15 25 16 15 27 37 28 53 0 15 4 66 7 115 4 48 4 87 0 87 -5 0 -8 -30 -9
-67 -1 -92 -12 -166 -25 -170 -6 -2 -16 7 -23 19 -10 19 -9 31 4 62 18 44 14
96 -10 116 -25 21 -18 40 13 36 15 -2 20 -1 12 1 -8 3 -19 8 -25 12 -5 4 -17
0 -26 -9z m14 -37 c8 -10 18 -30 22 -45 8 -30 -11 -98 -27 -98 -6 0 -7 7 -3
18 17 40 16 63 -4 95 -12 19 -21 37 -21 41 0 12 17 6 33 -11z m-3 -85 c0 -9
-4 -20 -10 -23 -6 -4 -10 9 -10 32 0 28 3 34 10 23 5 -8 10 -23 10 -32z m-38
-350 c-2 -27 -8 -48 -13 -48 -13 0 -11 57 3 80 15 24 15 24 10 -32z m4 -112
c8 -8 14 -19 14 -25 0 -12 -16 -15 -23 -3 -2 4 -2 1 -1 -5 2 -7 -1 -13 -6 -13
-6 0 -10 14 -10 30 0 34 5 37 26 16z m30 -42 c-3 -8 -11 -14 -18 -14 -9 0 -9
3 0 12 7 7 13 21 13 33 1 17 2 18 6 2 3 -10 2 -25 -1 -33z"/>
<path d="M2095 1004 c-19 -19 -17 -75 3 -82 8 -3 12 6 10 30 -2 26 1 34 17 36
11 1 29 -4 40 -12 19 -14 19 -15 2 -33 -21 -24 -22 -33 -2 -33 17 0 35 30 35
59 0 42 -73 67 -105 35z"/>
<path d="M138 969 c3 -24 1 -30 -9 -27 -8 3 -15 14 -17 26 -2 12 -8 22 -14 22
-6 0 -8 -12 -4 -30 7 -38 -19 -42 -28 -5 -4 14 -11 25 -17 25 -6 0 -8 -8 -6
-17 3 -10 8 -30 11 -44 6 -26 6 -26 58 -14 50 11 53 14 50 41 -4 38 -9 54 -20
54 -5 0 -6 -14 -4 -31z"/>
<path d="M941 907 c-2 -28 25 -72 56 -92 56 -36 72 -56 63 -79 -5 -11 -11 -34
-15 -49 -3 -16 -28 -51 -56 -77 l-51 -49 11 -53 10 -53 -5 57 c-5 58 -5 58 30
79 20 11 36 25 36 29 0 16 53 72 76 81 32 12 25 23 -62 98 -47 41 -78 76 -83
95 -5 17 -10 23 -10 13z m143 -190 c-7 -18 -24 -23 -24 -8 0 22 13 42 22 33 5
-5 6 -16 2 -25z"/>
<path d="M2060 877 c0 -9 19 -21 47 -31 57 -20 63 -20 63 -1 0 8 -17 19 -41
25 -22 6 -47 14 -55 17 -8 3 -14 -1 -14 -10z"/>
<path d="M122 861 c-24 -9 -43 -20 -43 -24 1 -4 1 -14 1 -23 0 -13 8 -15 41
-12 l40 4 -29 -26 c-29 -25 -33 -60 -6 -60 28 0 94 33 94 46 0 12 -6 12 -37
-1 -48 -20 -52 -14 -9 16 47 32 37 53 -23 45 l-46 -5 37 17 c21 9 38 23 38 30
0 15 -5 15 -58 -7z"/>
<path d="M2036 815 c-3 -9 6 -18 29 -27 19 -6 35 -16 35 -20 0 -4 -3 -7 -7 -7
-5 1 -24 1 -44 0 -27 -1 -38 -6 -42 -20 -4 -15 5 -23 42 -38 25 -10 49 -19 53
-21 5 -2 8 3 8 10 0 8 -15 22 -32 31 l-33 16 42 0 c32 1 45 6 53 21 10 18 7
22 -27 36 -21 9 -45 20 -55 25 -11 6 -18 4 -22 -6z"/>
<path d="M197 681 c-48 -63 -43 -83 21 -74 26 3 56 9 67 13 19 7 18 9 -6 18
-27 11 -43 37 -33 53 3 5 1 16 -3 24 -7 12 -17 5 -46 -34z m33 -36 c0 -9 -9
-15 -21 -15 -18 0 -19 2 -9 15 7 8 16 15 21 15 5 0 9 -7 9 -15z"/>
<path d="M1961 655 c-11 -19 -16 -37 -11 -40 5 -3 14 4 20 15 6 11 17 20 26
20 11 0 12 -4 4 -19 -17 -33 -11 -48 10 -23 25 30 45 20 24 -13 -9 -13 -11
-26 -6 -29 8 -5 52 54 52 69 0 3 -89 55 -95 55 -2 0 -12 -16 -24 -35z"/>
<path d="M293 494 c-3 -8 -1 -20 5 -26 16 -16 42 -2 42 22 0 24 -38 28 -47 4z"/>
<path d="M999 488 c-1 -13 0 -29 1 -37 1 -9 -5 -12 -19 -8 -12 3 -21 1 -21 -4
0 -5 14 -9 30 -9 29 0 40 13 21 24 -4 3 -6 17 -3 31 2 14 2 25 -2 25 -3 0 -7
-10 -7 -22z"/>
<path d="M1873 494 c-3 -8 -1 -20 5 -26 16 -16 42 -2 42 22 0 24 -38 28 -47 4z"/>
<path d="M421 389 c-20 -25 -30 -46 -27 -56 6 -14 8 -14 26 2 16 15 22 16 35
5 23 -19 31 -3 11 19 -23 25 -2 39 24 16 10 -9 21 -12 24 -7 3 5 -2 16 -12 24
-47 38 -46 38 -81 -3z"/>
<path d="M1757 403 c-7 -6 -1 -60 9 -92 3 -11 7 -11 19 -1 9 7 25 13 37 14 15
1 22 8 23 24 1 12 -4 22 -10 22 -7 0 -20 9 -30 20 -18 20 -36 25 -48 13z m36
-48 c4 -8 2 -17 -2 -20 -5 -2 -11 4 -14 15 -6 23 8 27 16 5z"/>
<path d="M518 323 c-28 -33 -29 -53 -3 -79 31 -31 58 -31 84 2 26 33 26 49 1
74 -25 25 -62 26 -82 3z m66 -18 c13 -36 -32 -77 -54 -50 -10 12 -9 20 4 40
18 28 41 33 50 10z"/>
<path d="M1652 322 c-21 -16 -22 -21 -11 -45 14 -30 27 -35 35 -12 8 19 34 20
34 1 0 -7 -10 -16 -22 -20 -17 -4 -20 -8 -11 -17 16 -16 63 14 63 40 0 30 -28
47 -52 32 -29 -18 -35 -5 -7 18 31 26 4 28 -29 3z"/>
<path d="M2056 284 c-33 -32 -9 -86 36 -83 7 0 1 5 -14 11 -26 9 -39 44 -22
60 11 12 45 -5 39 -20 -6 -17 13 -44 26 -36 17 10 10 63 -10 74 -27 14 -37 13
-55 -6z m48 0 c10 -4 16 -18 16 -36 0 -18 -4 -27 -10 -23 -6 4 -8 15 -5 26 5
14 0 22 -17 28 -13 6 -18 10 -11 10 6 1 18 -2 27 -5z"/>
<path d="M647 245 c-9 -20 -17 -42 -17 -50 0 -23 30 -45 61 -45 24 0 32 7 50
41 17 34 18 43 7 50 -9 6 -18 -3 -32 -31 -33 -66 -71 -45 -42 23 13 33 12 47
-4 47 -3 0 -14 -16 -23 -35z"/>
<path d="M1555 268 c-29 -16 -35 -29 -24 -50 11 -21 39 -24 58 -5 10 10 12 8
9 -8 -2 -11 -14 -22 -28 -25 -18 -4 -21 -8 -12 -14 22 -14 61 3 68 28 11 47
-34 94 -71 74z m26 -33 c-1 -15 -24 -12 -29 3 -3 9 2 13 12 10 10 -1 17 -7 17
-13z"/>
<path d="M1437 212 c-22 -24 -21 -34 0 -30 12 2 20 -7 26 -29 6 -18 16 -33 23
-33 18 0 17 6 -2 63 -18 52 -23 55 -47 29z"/>
<path d="M782 182 c-7 -22 -12 -47 -12 -56 0 -28 20 -17 27 14 9 47 20 44 28
-6 5 -38 10 -45 27 -42 15 2 25 16 34 48 17 57 17 60 -1 60 -8 0 -17 -14 -21
-35 -8 -43 -15 -39 -23 12 -5 28 -12 39 -27 41 -16 2 -23 -5 -32 -36z"/>
<path d="M930 169 c0 -13 -3 -41 -6 -61 l-7 -38 46 0 c51 0 77 18 77 55 0 30
-25 55 -55 55 -13 0 -30 3 -39 6 -12 5 -16 0 -16 -17z m73 -31 c14 -21 -7 -48
-35 -48 -16 0 -19 5 -14 23 3 12 6 28 6 35 0 18 30 11 43 -10z"/>
<path d="M1205 170 c-4 -6 -4 -34 0 -61 l7 -51 37 7 c35 6 71 36 71 59 0 31
-32 56 -70 56 -21 0 -42 -5 -45 -10z m74 -27 c11 -21 -3 -53 -23 -53 -13 0
-26 29 -26 58 0 18 38 15 49 -5z"/>
<path d="M1080 115 l0 -55 46 0 c27 0 43 4 39 10 -3 6 -17 10 -31 10 -15 0
-24 6 -24 16 0 12 7 15 25 12 15 -3 25 -1 25 7 0 6 -10 11 -21 11 -12 -1 -24
5 -26 12 -3 7 5 12 21 12 14 0 26 5 26 10 0 6 -18 10 -40 10 l-40 0 0 -55z"/>
</g>
</svg>
