<?xml version="1.0" standalone="no"?>
<!DOCTYPE svg PUBLIC "-//W3C//DTD SVG 20010904//EN"
 "http://www.w3.org/TR/2001/REC-SVG-20010904/DTD/svg10.dtd">
<svg version="1.0" xmlns="http://www.w3.org/2000/svg"
 width="325.000000pt" height="285.000000pt" viewBox="0 0 325.000000 285.000000"
 preserveAspectRatio="xMidYMid meet">

<g transform="translate(0.000000,285.000000) scale(0.100000,-0.100000)"
fill="#000000" stroke="none">
<path d="M1530 2659 c-585 -47 -1040 -483 -1131 -1084 -57 -371 105 -810 394
-1070 338 -305 812 -405 1241 -261 225 76 450 241 596 437 295 396 325 944 75
1369 -242 412 -697 648 -1175 609z m370 -38 c410 -94 736 -381 887 -781 112
-296 90 -677 -54 -965 -122 -242 -348 -461 -585 -569 -315 -143 -655 -151
-972 -23 -361 145 -633 454 -732 833 -21 79 -27 131 -31 259 -8 240 23 388
122 590 173 353 504 601 896 670 114 20 353 13 469 -14z"/>
<path d="M1465 2579 c-186 -27 -418 -129 -567 -249 -193 -156 -335 -379 -398
-625 -30 -117 -42 -277 -30 -385 33 -295 132 -508 328 -712 515 -534 1395
-453 1808 168 314 472 242 1101 -172 1494 -257 244 -618 359 -969 309z m59
-88 c24 -26 12 -42 -27 -38 -30 2 -32 0 -35 -33 -3 -42 18 -76 42 -67 20 8 21
27 1 27 -26 0 -17 39 10 46 32 8 35 5 42 -44 4 -33 2 -42 -18 -56 -62 -43
-119 3 -119 96 0 38 5 50 26 67 33 26 56 27 78 2z m174 -3 c-2 -16 -9 -22 -20
-20 -16 3 -18 -6 -18 -73 0 -68 -2 -75 -20 -75 -18 0 -20 7 -20 75 0 68 -2 75
-20 75 -13 0 -20 7 -20 20 0 18 7 20 61 20 57 0 60 -1 57 -22z m80 -13 c-3
-23 1 -36 10 -40 24 -9 32 -6 32 14 0 35 10 49 31 44 16 -4 19 -12 15 -32 -3
-14 -11 -56 -17 -93 -6 -38 -14 -68 -18 -68 -21 1 -32 21 -29 51 2 28 0 34
-17 34 -15 0 -21 -8 -23 -32 -3 -27 -7 -33 -27 -33 -15 0 -23 5 -20 13 2 6 9
49 16 95 11 70 15 82 32 82 16 0 19 -6 15 -35z m-390 -84 c17 -49 28 -92 24
-95 -15 -15 -43 -3 -68 29 -32 43 -40 39 -24 -11 10 -30 10 -38 -1 -45 -8 -4
-17 -5 -20 -1 -12 14 -58 165 -53 173 10 17 30 9 64 -26 18 -19 35 -33 37 -31
2 1 -3 21 -11 44 -14 39 -12 48 16 51 3 1 20 -39 36 -88z m676 33 c22 -22 20
-41 -9 -68 -28 -27 -31 -36 -11 -36 20 0 31 -19 18 -32 -6 -6 -8 -16 -6 -23 7
-16 -22 -40 -31 -25 -3 5 -17 10 -31 10 -27 0 -64 32 -64 56 0 9 14 29 30 44
17 15 30 35 30 43 0 19 27 47 45 47 7 0 21 -7 29 -16z m-860 -20 c7 -19 9 -17
-26 -35 -20 -10 -25 -18 -18 -28 7 -12 12 -12 34 2 24 16 26 16 35 -2 8 -15 6
-20 -14 -29 -24 -11 -32 -31 -19 -45 4 -3 20 1 37 9 24 13 31 14 38 2 5 -7 9
-15 9 -19 0 -5 -85 -49 -95 -49 -6 0 -87 161 -83 165 7 6 83 44 89 45 4 0 10
-7 13 -16z m-118 -99 c9 -14 14 -31 11 -40 -4 -9 7 -22 33 -36 45 -26 49 -35
19 -44 -14 -5 -31 0 -51 15 -38 28 -46 20 -19 -18 18 -26 19 -31 5 -42 -9 -8
-18 -9 -23 -4 -20 23 -103 145 -100 148 2 1 17 12 33 24 38 29 72 28 92 -3z
m1192 -1 c21 -14 31 -62 16 -77 -11 -11 -34 5 -34 24 0 28 -35 24 -60 -8 -28
-36 -22 -58 15 -58 37 0 40 -24 6 -41 -49 -25 -92 21 -77 80 8 33 69 96 92 96
11 0 30 -7 42 -16z m-1334 -70 c4 -9 1 -23 -5 -31 -10 -11 -3 -23 36 -63 43
-43 47 -51 35 -66 -13 -15 -19 -11 -61 37 -41 47 -49 52 -63 40 -15 -12 -19
-12 -34 2 -15 16 -13 20 23 57 42 43 59 49 69 24z m854 0 c263 -54 478 -223
591 -464 61 -132 75 -195 75 -350 1 -175 -30 -293 -115 -438 -49 -81 -200
-231 -285 -281 -422 -248 -960 -86 -1174 354 -48 99 -67 165 -79 278 -38 335
150 678 454 829 160 80 361 107 533 72z m619 -50 c13 -20 13 -29 3 -54 -17
-41 -75 -90 -107 -90 -33 0 -63 26 -63 55 0 54 85 130 131 118 11 -3 27 -16
36 -29z m-1574 -70 c11 -11 -5 -34 -24 -34 -10 0 -19 -7 -19 -15 0 -14 3 -14
30 0 40 20 60 19 87 -7 30 -28 29 -59 -2 -88 -21 -20 -28 -22 -50 -12 -31 14
-23 42 11 42 15 0 24 6 24 16 0 17 -1 17 -78 -3 -27 -7 -62 21 -62 50 0 39 59
75 83 51z m1640 -80 c-27 -49 -24 -54 14 -24 14 11 32 20 39 20 32 0 10 -31
-56 -80 -58 -43 -73 -50 -85 -40 -13 11 -12 18 10 58 14 24 25 46 25 49 0 2
-17 -8 -37 -21 -28 -20 -40 -23 -50 -14 -17 13 -16 15 72 76 60 43 71 48 81
34 8 -12 5 -25 -13 -58z m120 -109 c9 -20 17 -41 17 -49 0 -27 -88 -86 -128
-86 -22 0 -57 35 -66 67 -6 20 2 27 71 62 43 22 81 40 84 41 3 0 13 -16 22
-35z m-1832 -15 c53 -28 65 -54 44 -103 -8 -20 -20 -37 -25 -37 -19 0 -160 75
-160 85 0 5 9 25 20 43 24 39 60 42 121 12z m1893 -116 c4 -9 5 -18 4 -19 -13
-10 -173 -63 -180 -59 -23 15 -1 35 70 63 91 35 98 36 106 15z m-2029 -34 c-5
-32 -4 -40 8 -40 9 0 18 13 22 30 7 32 12 35 33 22 9 -6 10 -16 3 -34 -5 -14
-7 -29 -4 -32 14 -14 32 -4 42 24 10 31 17 35 39 22 10 -7 9 -17 -3 -51 -8
-23 -17 -46 -20 -51 -3 -5 -45 5 -94 21 l-89 30 16 50 c12 36 21 49 35 49 16
0 18 -5 12 -40z m2061 -81 c7 -29 10 -57 8 -61 -10 -15 -42 -8 -47 11 -4 18
-8 18 -58 5 -71 -19 -89 -18 -89 4 0 14 14 22 62 33 49 11 64 19 67 34 4 22
20 36 35 32 6 -2 15 -28 22 -58z m-2028 -45 c66 -14 82 -20 80 -33 -4 -19 -43
-19 -130 0 -46 9 -58 16 -58 30 0 23 4 23 108 3z m2052 -73 c0 -21 -19 -26
-125 -37 -61 -6 -65 -5 -65 13 0 17 10 22 73 30 112 16 117 15 117 -6z m-2133
-21 c-6 -25 -3 -30 13 -30 15 0 20 7 20 25 0 18 5 25 20 25 16 0 20 -7 20 -30
0 -28 3 -30 35 -30 28 0 35 -4 35 -20 0 -23 -12 -24 -122 -13 l-68 6 0 33 c0
46 9 64 32 64 17 0 20 -5 15 -30z m2119 -65 c33 -22 32 -67 -2 -94 -39 -31
-117 -29 -149 4 -30 29 -31 45 -5 78 31 39 106 45 156 12z m-1976 -65 c0 -19
-7 -20 -95 -20 -88 0 -95 1 -95 20 0 19 7 20 95 20 88 0 95 -1 95 -20z m-140
-80 c0 -16 5 -19 23 -16 79 17 115 17 121 0 9 -22 5 -25 -46 -30 -77 -9 -88
-13 -88 -34 0 -14 -7 -20 -24 -20 -20 0 -24 6 -30 46 -9 70 -8 74 19 74 18 0
25 -5 25 -20z m2050 -3 c63 -10 75 -15 78 -32 2 -18 -6 -23 -50 -35 -42 -10
-49 -15 -33 -21 11 -4 32 -8 48 -8 20 -1 27 -6 27 -21 0 -24 -13 -24 -115 -7
-58 10 -70 16 -70 31 0 14 14 24 50 36 l50 17 -47 8 c-38 6 -48 11 -48 26 0
22 6 22 110 6z m-1890 -107 c0 -10 -13 -28 -30 -40 -37 -26 -39 -43 -4 -30 38
15 54 12 54 -9 0 -15 -16 -23 -78 -40 -43 -12 -83 -21 -90 -21 -14 0 -37 73
-29 94 9 23 58 40 78 28 11 -7 24 -2 49 18 37 30 50 30 50 0z m1855 -54 c64
-18 80 -27 80 -42 0 -23 1 -23 -102 6 -75 21 -95 35 -76 53 9 9 7 10 98 -17z
m52 -106 c2 0 3 -9 3 -20 0 -16 -8 -19 -57 -22 l-58 -4 43 -18 c40 -18 53 -38
33 -50 -5 -3 -44 9 -88 27 -58 26 -78 39 -78 53 0 16 9 20 55 24 l55 5 -43 19
c-23 10 -42 20 -42 22 0 1 3 9 6 18 5 12 19 9 87 -20 45 -19 83 -34 84 -34z
m-1857 4 c11 -25 20 -49 20 -53 0 -6 -79 -46 -157 -78 -13 -5 -56 84 -47 98
10 17 31 9 42 -16 13 -29 49 -36 37 -7 -16 38 -16 49 0 55 11 5 18 -1 25 -17
11 -30 22 -37 39 -27 10 7 10 14 -3 39 -15 29 -15 32 2 41 9 6 18 11 20 11 1
0 12 -21 22 -46z m60 -116 c35 -38 20 -78 -45 -118 -47 -29 -94 -24 -114 12
-13 22 -13 30 -2 52 18 34 51 20 44 -19 -4 -20 -1 -25 15 -25 31 0 77 43 69
64 -5 12 -13 15 -27 11 -15 -5 -20 -2 -20 13 0 36 49 42 80 10z m1627 11 c44
-16 83 -59 83 -91 0 -52 -69 -92 -78 -45 -3 12 4 20 17 24 38 10 16 54 -36 74
-30 11 -43 4 -43 -22 0 -21 16 -26 23 -6 3 9 9 8 21 -4 16 -15 16 -17 -2 -39
-15 -19 -22 -21 -39 -11 -40 21 -55 42 -48 70 14 55 46 71 102 50z m-1349
-295 c20 -14 30 -53 16 -67 -11 -11 -34 5 -34 24 0 10 -7 19 -15 19 -19 0 -19
-2 5 -43 17 -29 19 -39 9 -60 -17 -37 -51 -52 -80 -37 -38 20 -49 49 -31 78
13 19 44 3 37 -18 -7 -21 12 -37 27 -22 6 6 4 20 -6 40 -21 41 -20 58 4 82 24
24 38 25 68 4z m1042 -17 c0 -5 -7 -15 -15 -21 -12 -9 -9 -20 21 -68 34 -55
37 -78 11 -78 -7 0 -27 25 -45 55 -29 48 -36 54 -58 49 -14 -4 -25 -2 -25 5
-1 6 -2 16 -3 21 -2 19 87 69 102 58 6 -6 12 -15 12 -21z m-932 -47 c40 -24
43 -60 8 -95 -21 -21 -29 -23 -51 -15 -24 9 -28 7 -38 -20 -12 -31 -30 -39
-43 -19 -8 14 66 169 81 169 5 0 25 -9 43 -20z m806 -19 c21 -23 8 -34 -29
-25 -19 5 -25 2 -25 -10 0 -12 10 -16 40 -16 69 0 94 -72 38 -113 -25 -19 -28
-19 -52 -3 -14 9 -26 24 -26 32 0 13 7 15 35 10 28 -6 35 -4 35 9 0 10 -10 15
-32 15 -36 0 -78 33 -78 62 0 23 35 58 58 58 11 0 27 -9 36 -19z m-669 -31
c32 -12 31 -47 0 -41 -38 7 -48 6 -52 -5 -2 -7 10 -16 26 -22 22 -8 29 -15 25
-27 -5 -12 -14 -14 -40 -9 -28 5 -34 3 -34 -10 0 -10 13 -22 30 -27 32 -12 35
-16 22 -37 -7 -9 -19 -9 -59 3 l-52 15 26 78 c13 42 27 83 29 91 4 13 26 11
79 -9z m568 -77 c26 -88 27 -103 2 -103 -15 0 -70 164 -60 180 16 27 34 3 58
-77z m-431 40 c10 -9 18 -24 18 -35 0 -22 -29 -24 -45 -2 -10 15 -13 15 -28
-1 -19 -18 -23 -80 -6 -90 5 -4 18 0 28 9 16 15 19 15 31 1 20 -24 -25 -68
-60 -60 -36 9 -50 32 -50 82 0 91 60 143 112 96z m298 -40 c18 -86 16 -83 48
-77 22 5 31 2 36 -12 9 -24 -1 -31 -54 -39 l-46 -7 -17 88 c-17 89 -16 104 8
104 9 0 18 -21 25 -57z m-214 32 c4 -9 3 -54 -1 -101 -6 -72 -10 -85 -23 -82
-21 4 -26 49 -17 136 5 44 11 62 21 62 8 0 17 -7 20 -15z m136 -75 c15 -46 28
-88 28 -92 0 -14 -38 -8 -44 7 -8 22 -43 18 -49 -5 -3 -12 -14 -20 -27 -20
-16 0 -20 5 -16 18 2 9 7 33 11 52 20 112 27 131 48 128 16 -2 26 -21 49 -88z"/>
<path d="M2025 2399 c-10 -15 3 -25 16 -12 7 7 7 13 1 17 -6 3 -14 1 -17 -5z"/>
<path d="M1977 2323 c-13 -12 -7 -33 8 -33 8 0 15 9 15 20 0 20 -11 26 -23 13z"/>
<path d="M1024 2279 c-10 -17 13 -36 27 -22 12 12 4 33 -11 33 -5 0 -12 -5
-16 -11z"/>
<path d="M1370 2040 c0 -94 18 -108 22 -17 l3 62 39 -63 c53 -85 71 -81 71 16
0 43 -4 71 -10 70 -5 -2 -9 -29 -8 -60 1 -32 -1 -58 -3 -58 -2 0 -21 26 -41
58 -62 97 -73 96 -73 -8z"/>
<path d="M1548 2109 c-11 -6 -18 -22 -18 -39 0 -30 8 -35 70 -42 17 -2 25 -9
25 -23 0 -16 -8 -21 -37 -23 -29 -2 -38 0 -38 12 0 9 -4 16 -10 16 -16 0 -11
-37 6 -44 26 -10 79 -7 92 6 16 16 15 53 -1 66 -6 6 -28 12 -47 14 -27 2 -35
7 -35 23 0 28 51 34 70 8 15 -20 29 -14 20 10 -10 25 -66 35 -97 16z"/>
<path d="M1693 2110 c-20 -8 -23 -17 -23 -68 0 -71 12 -84 71 -80 33 2 44 8
50 25 5 14 4 25 -2 29 -6 3 -13 -4 -16 -16 -5 -17 -12 -21 -42 -18 -36 3 -36
4 -39 52 -2 32 1 52 10 57 24 15 55 9 71 -13 l16 -23 0 22 c1 37 -47 53 -96
33z"/>
<path d="M1842 2068 c-11 -29 -25 -65 -31 -80 -9 -23 -8 -28 4 -28 8 0 15 7
15 15 0 23 76 20 89 -2 22 -39 22 0 1 59 -39 106 -50 111 -78 36z m56 -54 c-4
-3 -17 -4 -30 -2 -24 3 -24 4 -10 38 l14 35 16 -32 c9 -18 13 -35 10 -39z"/>
<path d="M1043 1891 c-66 -41 -83 -116 -90 -391 -5 -207 6 -396 28 -470 7 -21
25 -51 40 -66 25 -24 37 -28 95 -28 60 -1 68 1 90 27 32 38 51 113 59 235 l6
102 -49 0 -50 0 -4 -54 c-5 -64 -20 -86 -58 -86 -52 0 -55 13 -55 261 0 221 1
229 22 250 43 44 93 0 93 -82 0 -28 2 -29 45 -29 l45 0 0 95 c0 115 -15 188
-44 222 -32 37 -125 44 -173 14z"/>
<path d="M1395 1901 c-63 -27 -80 -88 -80 -286 0 -231 19 -271 135 -289 63
-10 70 -19 70 -91 0 -47 -4 -66 -18 -78 -41 -38 -91 -12 -99 51 l-6 42 -43 0
-44 0 0 -47 c1 -78 19 -185 38 -217 21 -37 72 -58 124 -51 58 8 84 24 109 69
22 38 24 54 27 201 6 244 -11 291 -113 316 -83 20 -85 22 -85 92 0 69 10 87
51 87 33 0 46 -15 51 -60 3 -33 5 -35 46 -38 l42 -3 0 84 c0 94 -20 175 -50
202 -23 21 -121 31 -155 16z"/>
<path d="M1754 1894 c-73 -36 -93 -135 -93 -469 -1 -257 8 -353 38 -421 22
-48 42 -62 104 -70 113 -16 166 73 167 279 l0 87 -50 0 -50 0 0 -51 c0 -66
-13 -89 -50 -89 -56 0 -60 19 -60 267 0 210 1 224 20 243 44 44 90 12 90 -63
l0 -47 51 0 52 0 -6 113 c-7 137 -19 178 -58 211 -36 30 -105 35 -155 10z"/>
<path d="M2089 1895 c-46 -25 -62 -83 -67 -246 -7 -245 15 -301 126 -321 75
-14 87 -31 79 -112 -5 -53 -24 -76 -63 -76 -34 0 -54 26 -54 71 l0 39 -46 0
-47 0 5 -102 c9 -166 39 -213 138 -213 70 0 105 21 135 81 18 35 20 59 20 219
0 146 -3 187 -17 217 -18 40 -55 64 -116 74 -59 9 -65 17 -70 81 -5 69 11 93
58 93 34 0 50 -23 50 -69 0 -30 1 -31 46 -31 l47 0 -6 99 c-6 116 -31 185 -72
201 -38 14 -116 12 -146 -5z"/>
<path d="M1230 805 l0 -74 101 0 c82 0 101 3 106 16 3 9 1 24 -5 33 -9 14 -8
19 3 24 11 4 15 -2 15 -18 0 -41 11 -56 40 -56 19 0 30 6 33 18 4 16 5 16 6 0
1 -21 41 -25 41 -4 0 16 -63 31 -68 16 -8 -22 -22 -8 -22 20 0 23 4 30 20 30
11 0 20 7 20 15 0 8 -9 15 -20 15 -11 0 -20 5 -20 10 0 15 -27 12 -33 -4 -4
-10 -17 -13 -44 -9 -26 3 -43 1 -50 -9 -16 -18 -93 -12 -93 8 0 10 12 14 40
14 29 0 40 4 40 15 0 12 -13 15 -55 15 l-55 0 0 -75z m173 -2 c-7 -2 -19 -2
-25 0 -7 3 -2 5 12 5 14 0 19 -2 13 -5z m-58 -39 c-7 -8 -30 -14 -49 -14 -29
0 -36 4 -36 19 0 16 8 20 38 23 47 4 67 -8 47 -28z m65 -4 c0 -5 -9 -10 -20
-10 -11 0 -20 5 -20 10 0 6 9 10 20 10 11 0 20 -4 20 -10z"/>
<path d="M1600 855 c-23 -24 -21 -50 2 -27 23 23 30 12 26 -43 -2 -39 1 -55
10 -55 8 0 12 22 12 75 0 83 -10 93 -50 50z"/>
<path d="M1683 873 c-16 -6 -17 -65 -1 -81 7 -7 27 -12 46 -12 22 0 32 -4 30
-12 -6 -17 -47 -23 -61 -9 -6 6 -17 11 -24 11 -11 0 -11 -5 -3 -20 8 -15 21
-20 53 -20 56 0 67 13 67 75 0 28 -5 56 -12 63 -12 12 -71 15 -95 5z m77 -43
c0 -15 -7 -20 -29 -20 -31 0 -47 13 -36 30 3 6 19 10 36 10 22 0 29 -5 29 -20z"/>
<path d="M1814 869 c-11 -19 -13 -113 -2 -126 6 -7 30 -13 53 -13 23 0 47 6
53 13 11 13 10 106 -2 125 -9 15 -92 16 -102 1z m84 -31 c-3 -7 -17 -13 -33
-13 -16 0 -30 6 -32 13 -3 8 7 12 32 12 25 0 35 -4 33 -12z m0 -65 c-2 -12
-13 -18 -33 -18 -20 0 -31 6 -33 18 -3 14 4 17 33 17 29 0 36 -3 33 -17z"/>
<path d="M1948 840 l-3 -39 45 2 c42 2 45 0 45 -23 0 -20 -6 -26 -28 -28 -18
-2 -29 2 -33 12 -7 19 -34 21 -34 3 0 -24 24 -37 66 -37 48 0 55 7 56 51 1 39
-12 51 -56 51 -50 0 -45 16 6 20 65 5 61 28 -5 28 l-55 0 -4 -40z"/>
<path d="M2316 2140 c-25 -30 -26 -60 -1 -60 20 0 65 48 65 70 0 30 -34 25
-64 -10z"/>
<path d="M2507 1877 c-33 -18 -36 -23 -23 -35 13 -13 19 -12 48 5 33 19 51 54
26 52 -7 0 -30 -10 -51 -22z"/>
<path d="M686 1881 c-7 -10 7 -22 51 -45 41 -20 43 -20 43 4 0 31 -79 65 -94
41z"/>
<path d="M2583 1434 c-8 -20 13 -34 53 -34 34 0 55 16 47 36 -8 21 -92 19
-100 -2z"/>
<path d="M623 1163 c-21 -7 -15 -33 7 -33 11 0 20 6 20 14 0 18 -11 25 -27 19z"/>
<path d="M1206 554 c-8 -21 -1 -28 19 -20 9 3 15 11 13 18 -7 19 -25 20 -32 2z"/>
<path d="M1688 426 c-4 -18 -1 -26 8 -26 16 0 18 18 5 38 -6 10 -10 7 -13 -12z"/>
<path d="M2591 534 c-71 -50 -54 -160 29 -185 78 -23 154 52 130 127 -22 66
-104 96 -159 58z m116 -26 c30 -28 36 -63 18 -98 -27 -52 -82 -66 -128 -30
-51 40 -42 120 17 146 36 15 62 10 93 -18z"/>
<path d="M2607 503 c-4 -3 -7 -30 -7 -60 0 -40 4 -53 15 -53 8 0 15 9 15 20 0
11 4 20 9 20 5 0 13 -9 16 -20 4 -11 15 -20 27 -20 20 0 20 1 3 27 -12 18 -14
28 -7 31 19 6 14 40 -7 52 -22 11 -54 13 -64 3z m51 -31 c2 -7 -3 -12 -12 -12
-9 0 -16 7 -16 16 0 17 22 14 28 -4z"/>
</g>
</svg>
