<svg xmlns="http://www.w3.org/2000/svg" width="614" height="388" viewBox="0 0 614 388" version="1.1"><path d="M 295.924 30.230 C 284.721 42.478, 274.064 54.023, 272.243 55.884 C 269.115 59.081, 269.025 59.370, 270.606 61.117 C 272.183 62.860, 271.540 65.869, 259.474 113.233 C 252.430 140.880, 246.467 164.969, 246.223 166.764 C 245.969 168.622, 246.343 170.708, 247.090 171.608 C 248.214 172.962, 248.711 171.921, 250.557 164.344 C 254.823 146.840, 262.927 113.234, 266.073 100 C 267.839 92.575, 269.761 85.894, 270.344 85.153 C 271.782 83.328, 313.063 62.730, 313.802 63.469 C 314.124 63.791, 313.615 75.630, 312.670 89.777 C 311.725 103.925, 310.068 128.775, 308.989 145 C 307.910 161.225, 306.304 184.996, 305.420 197.824 C 304.537 210.652, 304.016 221.350, 304.264 221.597 C 304.649 221.983, 361.196 179.903, 364.771 176.571 C 366.035 175.393, 365.799 173.103, 356.873 99.817 L 355.694 90.133 335.384 76.317 C 318.105 64.562, 312.579 60, 315.619 60 C 316.193 60, 339.194 75.777, 350.409 83.864 L 355.318 87.403 354.631 80.452 C 353.441 68.409, 353.197 67.821, 347.497 63.283 C 342.370 59.203, 342.233 59.157, 343.252 61.857 C 344.446 65.019, 343.643 69.539, 341.759 70.263 C 340.835 70.617, 340.593 69.581, 340.851 66.369 C 341.163 62.481, 340.827 61.637, 337.851 58.831 C 334.801 55.955, 334.715 55.725, 336.894 56.279 C 339.813 57.022, 339.998 57.204, 327 46.518 L 316.500 37.885 316.260 42.193 C 316.127 44.562, 315.756 49.299, 315.433 52.719 L 314.847 58.938 294.174 69.719 C 273.116 80.700, 271 81.680, 271 80.447 C 271 77.768, 275.366 61.946, 276.318 61.176 C 276.968 60.650, 285.825 55.170, 296 48.999 C 306.175 42.827, 314.609 37.681, 314.742 37.564 C 315.079 37.265, 316.835 8.562, 316.536 8.230 C 316.402 8.081, 307.127 17.981, 295.924 30.230 M 317.656 18.597 C 316.499 37.500, 316.022 35.770, 324.250 42.519 C 355.456 68.116, 355.293 68.006, 356.658 64.449 C 356.993 63.576, 356.345 61.931, 355.175 60.687 C 354.033 59.470, 352.140 56.309, 350.968 53.661 C 349.602 50.572, 348.363 49.030, 347.510 49.358 C 346.641 49.691, 341.773 43.066, 333.425 30.184 C 326.408 19.358, 320.138 9.911, 319.490 9.191 C 318.573 8.174, 318.165 10.265, 317.656 18.597 M 291.021 56.116 C 287.709 57.437, 285.114 59.880, 283.305 63.377 C 281.933 66.031, 281.971 66.415, 283.788 68.233 C 285.753 70.198, 285.760 70.196, 285.291 67.741 C 284.724 64.774, 289.911 58.311, 293.605 57.384 C 294.914 57.056, 295.738 56.385, 295.434 55.893 C 294.766 54.812, 294.219 54.840, 291.021 56.116 M 288.491 63.655 C 286.993 65.940, 286.970 66.225, 288.325 65.706 C 289.469 65.266, 289.754 65.565, 289.367 66.801 C 288.936 68.183, 289.132 68.137, 290.418 66.559 C 292.124 64.466, 292.558 61, 291.115 61 C 290.628 61, 289.447 62.195, 288.491 63.655 M 335.528 62.955 C 335.167 63.538, 335.576 64.719, 336.436 65.579 C 337.855 66.997, 338 66.997, 338 65.571 C 338 64.707, 338.034 63.674, 338.075 63.275 C 338.200 62.068, 336.229 61.820, 335.528 62.955 M 292.709 83.434 C 291.322 84.821, 289.423 94.756, 290.364 95.698 C 291.452 96.785, 295.001 93.743, 295.011 91.715 C 295.017 90.497, 295.301 87.813, 295.642 85.750 C 296.303 81.753, 295.234 80.909, 292.709 83.434 M 331 90.965 C 331 95.906, 331.343 97.113, 333 98 C 334.904 99.019, 335 98.760, 335 92.642 C 335 86.603, 334.249 85, 331.418 85 C 331.188 85, 331 87.684, 331 90.965 M 284.428 87.198 C 282.874 87.909, 282.112 89.627, 281.376 94.073 C 280.388 100.046, 280.842 101.022, 283.748 99.177 C 284.868 98.466, 287.600 87.207, 286.819 86.526 C 286.643 86.374, 285.568 86.676, 284.428 87.198 M 340 95.965 C 340 100.906, 340.343 102.113, 342 103 C 343.894 104.014, 344 103.760, 344 98.235 C 344 92.902, 342.872 90, 340.800 90 C 340.360 90, 340 92.684, 340 95.965 M 290.613 98.437 C 288.886 99.200, 288.171 99.988, 288.833 100.397 C 289.863 101.033, 296 98.531, 296 97.474 C 296 96.676, 293.650 97.096, 290.613 98.437 M 330 99.805 C 330 100.954, 334.838 103.495, 335.591 102.742 C 335.918 102.415, 334.794 101.428, 333.093 100.548 C 331.392 99.668, 330 99.334, 330 99.805 M 281.750 102.299 C 280.238 102.897, 279 103.797, 279 104.300 C 279 104.803, 279.788 104.890, 280.750 104.494 C 281.712 104.097, 283.288 103.547, 284.250 103.270 C 285.212 102.993, 286 102.369, 286 101.883 C 286 100.818, 285.335 100.883, 281.750 102.299 M 339 104.814 C 339 105.828, 344.041 108.292, 344.722 107.611 C 344.977 107.356, 343.794 106.428, 342.093 105.548 C 340.392 104.668, 339 104.338, 339 104.814 M 284.500 110.478 C 281.564 111.766, 281.444 112.109, 278.836 126.647 C 277.371 134.816, 276.355 141.685, 276.579 141.910 C 276.804 142.136, 278.706 141.805, 280.807 141.176 L 284.628 140.031 286.819 125.766 C 288.024 117.920, 289.007 110.938, 289.005 110.250 C 288.999 108.741, 288.390 108.772, 284.500 110.478 M 335 121.865 C 335 125.623, 335.286 132.087, 335.637 136.229 C 336.254 143.538, 336.371 143.807, 339.599 145.346 C 341.428 146.218, 343.122 146.609, 343.363 146.216 C 343.604 145.822, 343.419 140.550, 342.952 134.500 C 342.484 128.450, 342.079 122.346, 342.051 120.935 C 342.013 119.012, 341.124 117.953, 338.500 116.701 L 335 115.032 335 121.865 M 277.665 144.507 C 271.850 146.106, 270.688 147, 274.429 147 C 277.296 147, 288 144.183, 288 143.429 C 288 142.610, 282.473 143.186, 277.665 144.507 M 334.500 147.739 C 336.008 149.244, 344.953 152.380, 345.676 151.657 C 346.372 150.961, 341.051 148.529, 336.445 147.439 C 334.486 146.975, 333.835 147.076, 334.500 147.739 M 46.265 233.482 C 17.647 241.516, 3.161 271.937, 15.638 297.798 C 18.939 304.639, 27.527 313.884, 33.671 317.209 C 48.550 325.263, 69.796 325.621, 87.250 318.114 L 92 316.071 92 309.036 C 92 305.166, 91.832 302, 91.626 302 C 91.420 302, 89.260 303.113, 86.826 304.474 C 62.591 318.019, 34.954 311.407, 26.937 290.147 C 24.076 282.559, 24.533 269.643, 27.892 263.151 C 37.876 243.852, 61.964 238.371, 85.215 250.108 L 91.089 253.074 90.795 245.874 L 90.500 238.675 82 235.728 C 71.525 232.095, 54.920 231.052, 46.265 233.482 M 247 276.342 L 247 319.683 250.750 320.787 C 252.813 321.395, 257.611 322.425, 261.413 323.077 C 275.067 325.418, 288.744 320.632, 294.883 311.363 C 299.166 304.897, 300.288 300.015, 299.809 289.942 C 299.222 277.585, 294.625 269.486, 285.500 264.733 C 279.909 261.821, 270.130 261.817, 263.750 264.723 L 259 266.888 259 249.944 L 259 233 253 233 L 247 233 247 276.342 M 413 277.450 L 413 322 419.010 322 L 425.021 322 424.760 277.750 L 424.500 233.500 418.750 233.200 L 413 232.900 413 277.450 M 584 248.545 L 584 264.091 580.250 263.295 C 559.295 258.851, 542.553 271.657, 542.720 292 C 542.816 303.601, 546.499 311.904, 553.862 317.115 C 559.863 321.362, 563.297 322, 580.149 322 L 596 322 596 277.500 L 596 233 590 233 L 584 233 584 248.545 M 178.008 263.181 C 176.088 263.732, 172.713 265.513, 170.508 267.139 L 166.500 270.095 166 266.798 C 165.504 263.528, 165.454 263.500, 160 263.500 L 154.500 263.500 154.235 292.750 L 153.970 322 159.985 322 L 166 322 166 300.589 L 166 279.178 169.045 276.615 C 176.238 270.563, 185.831 271.232, 189.248 278.025 C 190.741 280.991, 190.997 284.465, 190.998 301.750 L 191 322 197 322 L 203 322 203 300.619 L 203 279.237 206.561 276.521 C 212.014 272.362, 216.325 271.504, 220.797 273.690 C 227.296 276.866, 227.997 279.647, 227.998 302.250 L 228 322 234.068 322 L 240.135 322 239.818 299.168 L 239.500 276.336 236.500 271.509 C 229.526 260.287, 214.824 259.274, 204.271 269.288 L 201.041 272.352 196.917 268.269 C 194.256 265.634, 191.252 263.797, 188.453 263.093 C 183.431 261.828, 182.708 261.834, 178.008 263.181 M 325.500 263.096 C 305.829 267.929, 298.758 295.573, 312.564 313.673 C 320.462 324.028, 338.118 326.580, 352.653 319.469 L 358 316.853 358 311.426 C 358 308.442, 357.706 306, 357.346 306 C 356.987 306, 354.175 307.212, 351.096 308.694 C 343.459 312.370, 334 312.978, 327.717 310.199 C 322.886 308.062, 320.556 305.301, 318.471 299.241 L 317.183 295.500 337.842 295 L 358.500 294.500 358.226 289 C 357.688 278.173, 352.582 268.868, 345.080 265.041 C 340.533 262.721, 330.915 261.766, 325.500 263.096 M 390 263.121 C 386.790 264.397, 382.451 268.550, 379.680 273 L 377.500 276.500 377 270 L 376.500 263.500 371 263.500 L 365.500 263.500 365.235 292.750 L 364.970 322 370.985 322 L 377 322 377 304.696 C 377 288.291, 377.128 287.135, 379.474 282.427 C 383.688 273.972, 391.219 271.623, 398.429 276.517 C 400.469 277.901, 402.444 278.837, 402.819 278.598 C 403.193 278.359, 404.625 276.070, 406 273.512 L 408.500 268.861 405.570 266.681 C 399.908 262.467, 394.662 261.267, 390 263.121 M 444.753 263.084 C 442.692 263.570, 439.205 265.160, 437.003 266.617 L 433 269.266 433 276.329 L 433 283.392 436.250 280.308 C 441.093 275.712, 445.230 274, 451.496 274 C 458.671 274, 462 276.812, 462 282.872 L 462 286.836 454.250 289.442 C 437.950 294.923, 432 300.154, 432 309 C 432 321.364, 444.188 327.121, 456.971 320.795 C 461.171 318.716, 462.255 318.500, 462.697 319.652 C 463.332 321.309, 468.172 324, 470.515 324 C 471.403 324, 474.350 323.045, 477.065 321.877 C 481.800 319.840, 482 319.592, 482 315.762 L 482 311.770 479.419 313.461 C 474.345 316.786, 474.001 315.694, 473.994 296.281 C 473.991 286.502, 473.532 276.857, 472.975 274.848 C 470.371 265.475, 457.454 260.090, 444.753 263.084 M 511.994 262.886 C 508.070 264.155, 503.479 266.718, 502.055 268.434 C 499.998 270.912, 499 270.280, 499 266.500 L 499 263 493.500 263 L 488 263 488 292.500 L 488 322 493.500 322 L 499 322 499 302.565 C 499 291.876, 499.422 282.020, 499.938 280.663 C 501.461 276.658, 507.458 272.759, 512.899 272.236 C 517.179 271.824, 518.092 272.110, 521.107 274.803 L 524.500 277.832 524.804 299.916 L 525.108 322 531.054 322 L 537 322 537.107 312.250 C 537.321 292.692, 537.148 282.471, 536.532 278.363 C 535.789 273.413, 531.216 266.680, 527.176 264.591 C 523.599 262.741, 515.317 261.811, 511.994 262.886 M 97.182 285.698 C 97.479 306.963, 97.649 308.778, 99.706 312.624 C 102.698 318.218, 106.915 321.540, 112.821 322.957 C 118.874 324.409, 123.773 323.298, 130.095 319.038 L 134.500 316.069 134.813 319.035 C 135.122 321.955, 135.218 322, 141.078 322 L 147.030 322 146.765 292.750 L 146.500 263.500 140.750 263.200 L 135 262.900 135 284.254 L 135 305.608 131.750 308.719 C 127.609 312.684, 121.754 314.323, 116.709 312.930 C 110.033 311.087, 109.565 309.394, 109 285.048 L 108.500 263.500 102.682 263.198 L 96.864 262.896 97.182 285.698 M 264 275.250 L 259.500 277.659 259.226 294.207 C 258.912 313.227, 258.186 311.960, 269.412 311.986 C 281.491 312.014, 288.647 304.123, 287.808 291.700 C 287.044 280.380, 282.019 274.070, 273.122 273.262 C 269.588 272.940, 267.441 273.408, 264 275.250 M 324.041 275.619 C 320.750 278.388, 318 282.864, 318 285.450 C 318 286.779, 320.082 287, 332.608 287 L 347.217 287 346.600 284.544 C 344.397 275.763, 341.127 273, 332.942 273 C 328.156 273, 326.614 273.454, 324.041 275.619 M 566.030 274.583 C 558.344 277.917, 555 283.721, 555 293.726 C 555 301.350, 556.940 306.119, 561.394 309.445 C 563.518 311.030, 566.184 311.564, 574.044 311.977 L 584.002 312.500 584.001 293.848 L 584 275.196 580.851 274.098 C 576.501 272.581, 570.167 272.789, 566.030 274.583 M 453.379 296.897 C 446.464 300.169, 444 302.993, 444 307.650 C 444 314.156, 451.980 317.029, 458.632 312.918 L 462 310.837 462 302.418 C 462 296.350, 461.651 294, 460.750 294.001 C 460.063 294.001, 456.746 295.305, 453.379 296.897 M 375.329 342.458 C 369.864 344.835, 368.347 350.629, 371.981 355.249 C 373.071 356.634, 376.201 359.204, 378.938 360.960 C 384.495 364.526, 386.030 367.398, 383.650 369.778 C 381.430 371.999, 376.436 371.699, 372.971 369.137 L 370 366.940 370 369.848 C 370 373.253, 371.221 374.450, 376 375.728 C 383.498 377.733, 389.493 373.414, 389.287 366.157 C 389.179 362.344, 385.991 358.773, 378.868 354.487 C 370.905 349.695, 376.677 343.196, 385.050 347.526 C 387.992 349.047, 388 349.044, 388 346.124 C 388 343.739, 387.416 342.992, 384.851 342.098 C 380.833 340.697, 379.237 340.758, 375.329 342.458 M 113 354.965 L 113 367.930 115.996 371.343 C 119.646 375.500, 125.241 377.183, 131.065 375.874 C 140.595 373.733, 142 370.981, 142 354.453 L 142 342 139.500 342 L 137 342 137 353.865 C 137 364.355, 136.760 366.036, 134.927 368.365 C 133.158 370.614, 132.086 371, 127.602 371 C 123.404 371, 121.912 370.535, 120.174 368.686 C 118.187 366.571, 118 365.320, 118 354.186 L 118 342 115.500 342 L 113 342 113 354.965 M 163 359 L 163 376 165.470 376 L 167.940 376 168.220 363.297 L 168.500 350.595 179.500 363.268 C 187.416 372.388, 191.131 375.950, 192.750 375.971 C 194.996 376, 195 375.972, 195 359 L 195 342 192.530 342 L 190.060 342 189.780 354.540 L 189.500 367.080 178.552 354.540 C 170.475 345.289, 167 342, 165.302 342 L 163 342 163 359 M 217 359 L 217 376 219.500 376 L 222 376 222 359 L 222 342 219.500 342 L 217 342 217 359 M 240.279 343.285 C 243.500 351.678, 254.440 376, 254.994 376 C 255.391 376, 257.426 371.837, 259.518 366.750 C 261.609 361.663, 264.374 355.164, 265.663 352.309 C 270.328 341.969, 270.351 341.826, 267.311 342.184 C 264.918 342.465, 264.117 343.691, 260.071 353.250 C 257.569 359.163, 255.248 364, 254.913 364 C 254.578 364, 252.253 359.163, 249.746 353.250 C 245.672 343.641, 244.898 342.465, 242.457 342.170 C 240.408 341.923, 239.863 342.202, 240.279 343.285 M 288 359 L 288 376 298 376 L 308 376 308 373.500 C 308 371.056, 307.833 371, 300.500 371 L 293 371 293 366 L 293 361 300 361 C 306.800 361, 307 360.929, 307 358.500 C 307 356.070, 306.804 356, 299.945 356 L 292.890 356 293.195 351.250 L 293.500 346.500 300.250 346.204 C 306.180 345.945, 307 345.671, 307 343.954 C 307 342.152, 306.259 342, 297.500 342 L 288 342 288 359 M 327.226 358.750 C 327.496 375.264, 327.532 375.504, 329.750 375.820 C 331.902 376.125, 332 375.830, 332 369.038 C 332 363.633, 332.360 361.799, 333.508 361.359 C 335.884 360.447, 339.579 363.489, 343.998 369.998 C 347.205 374.719, 348.623 376, 350.644 376 C 352.533 376, 353.059 375.597, 352.631 374.480 C 351.805 372.327, 344.199 361.241, 343.069 360.543 C 342.552 360.223, 343.225 358.866, 344.565 357.526 C 346.987 355.104, 347.792 350.229, 346.379 346.545 C 345.297 343.727, 340.414 342, 333.525 342 L 326.952 342 327.226 358.750 M 409 359 L 409 376 411.500 376 L 414 376 414 359 L 414 342 411.500 342 L 409 342 409 359 M 433 343.950 C 433 345.623, 433.818 345.943, 438.750 346.200 L 444.500 346.500 444.777 361.250 L 445.053 376 447.527 376 L 450 376 450 361 L 450 346 456 346 C 461.333 346, 462 345.778, 462 344 C 462 342.092, 461.333 342, 447.500 342 C 433.790 342, 433 342.106, 433 343.950 M 478.667 344.422 C 479.675 345.754, 482.394 349.258, 484.708 352.210 C 488.857 357.501, 488.920 357.701, 489.208 366.538 C 489.483 374.968, 489.634 375.519, 491.750 375.820 C 493.939 376.130, 494 375.898, 494 367.199 L 494 358.258 500 350.741 C 503.300 346.607, 506 342.949, 506 342.612 C 506 342.276, 504.757 342, 503.237 342 C 501.070 342, 499.533 343.204, 496.116 347.579 C 493.720 350.648, 491.440 352.785, 491.050 352.329 C 490.660 351.873, 488.636 349.363, 486.550 346.750 C 483.561 343.005, 482.132 342, 479.796 342 L 476.833 342 478.667 344.422 M 332.667 346.667 C 331.461 347.872, 331.944 356.042, 333.250 356.527 C 335.968 357.535, 340.499 355.359, 341.480 352.574 C 342.315 350.201, 342.114 349.511, 340.119 347.895 C 337.800 346.017, 333.951 345.383, 332.667 346.667" stroke="none" fill="#1d0f10" fill-rule="evenodd"/><path d="M 0 194.002 L 0 388.003 307.250 387.752 L 614.500 387.500 614.753 193.750 L 615.005 0 307.503 0 L 0 0 0 194.002 M 0.490 194.500 C 0.490 301.200, 0.607 344.702, 0.750 291.170 C 0.893 237.639, 0.893 150.339, 0.750 97.170 C 0.607 44.002, 0.490 87.800, 0.490 194.500 M 295.924 30.230 C 284.721 42.478, 274.064 54.023, 272.243 55.884 C 269.115 59.081, 269.025 59.370, 270.606 61.117 C 272.183 62.860, 271.540 65.869, 259.474 113.233 C 252.430 140.880, 246.467 164.969, 246.223 166.764 C 245.969 168.622, 246.343 170.708, 247.090 171.608 C 248.214 172.962, 248.711 171.921, 250.557 164.344 C 254.823 146.840, 262.927 113.234, 266.073 100 C 267.839 92.575, 269.761 85.894, 270.344 85.153 C 271.782 83.328, 313.063 62.730, 313.802 63.469 C 314.124 63.791, 313.615 75.630, 312.670 89.777 C 311.725 103.925, 310.068 128.775, 308.989 145 C 307.910 161.225, 306.304 184.996, 305.420 197.824 C 304.537 210.652, 304.016 221.350, 304.264 221.597 C 304.649 221.983, 361.196 179.903, 364.771 176.571 C 366.035 175.393, 365.799 173.103, 356.873 99.817 L 355.694 90.133 335.384 76.317 C 318.105 64.562, 312.579 60, 315.619 60 C 316.193 60, 339.194 75.777, 350.409 83.864 L 355.318 87.403 354.631 80.452 C 353.441 68.409, 353.197 67.821, 347.497 63.283 C 342.370 59.203, 342.233 59.157, 343.252 61.857 C 344.446 65.019, 343.643 69.539, 341.759 70.263 C 340.835 70.617, 340.593 69.581, 340.851 66.369 C 341.163 62.481, 340.827 61.637, 337.851 58.831 C 334.801 55.955, 334.715 55.725, 336.894 56.279 C 339.813 57.022, 339.998 57.204, 327 46.518 L 316.500 37.885 316.260 42.193 C 316.127 44.562, 315.756 49.299, 315.433 52.719 L 314.847 58.938 294.174 69.719 C 273.116 80.700, 271 81.680, 271 80.447 C 271 77.768, 275.366 61.946, 276.318 61.176 C 276.968 60.650, 285.825 55.170, 296 48.999 C 306.175 42.827, 314.609 37.681, 314.742 37.564 C 315.079 37.265, 316.835 8.562, 316.536 8.230 C 316.402 8.081, 307.127 17.981, 295.924 30.230 M 317.656 18.597 C 316.499 37.500, 316.022 35.770, 324.250 42.519 C 355.456 68.116, 355.293 68.006, 356.658 64.449 C 356.993 63.576, 356.345 61.931, 355.175 60.687 C 354.033 59.470, 352.140 56.309, 350.968 53.661 C 349.602 50.572, 348.363 49.030, 347.510 49.358 C 346.641 49.691, 341.773 43.066, 333.425 30.184 C 326.408 19.358, 320.138 9.911, 319.490 9.191 C 318.573 8.174, 318.165 10.265, 317.656 18.597 M 291.021 56.116 C 287.709 57.437, 285.114 59.880, 283.305 63.377 C 281.933 66.031, 281.971 66.415, 283.788 68.233 C 285.753 70.198, 285.760 70.196, 285.291 67.741 C 284.724 64.774, 289.911 58.311, 293.605 57.384 C 294.914 57.056, 295.738 56.385, 295.434 55.893 C 294.766 54.812, 294.219 54.840, 291.021 56.116 M 288.491 63.655 C 286.993 65.940, 286.970 66.225, 288.325 65.706 C 289.469 65.266, 289.754 65.565, 289.367 66.801 C 288.936 68.183, 289.132 68.137, 290.418 66.559 C 292.124 64.466, 292.558 61, 291.115 61 C 290.628 61, 289.447 62.195, 288.491 63.655 M 335.528 62.955 C 335.167 63.538, 335.576 64.719, 336.436 65.579 C 337.855 66.997, 338 66.997, 338 65.571 C 338 64.707, 338.034 63.674, 338.075 63.275 C 338.200 62.068, 336.229 61.820, 335.528 62.955 M 292.709 83.434 C 291.322 84.821, 289.423 94.756, 290.364 95.698 C 291.452 96.785, 295.001 93.743, 295.011 91.715 C 295.017 90.497, 295.301 87.813, 295.642 85.750 C 296.303 81.753, 295.234 80.909, 292.709 83.434 M 331 90.965 C 331 95.906, 331.343 97.113, 333 98 C 334.904 99.019, 335 98.760, 335 92.642 C 335 86.603, 334.249 85, 331.418 85 C 331.188 85, 331 87.684, 331 90.965 M 284.428 87.198 C 282.874 87.909, 282.112 89.627, 281.376 94.073 C 280.388 100.046, 280.842 101.022, 283.748 99.177 C 284.868 98.466, 287.600 87.207, 286.819 86.526 C 286.643 86.374, 285.568 86.676, 284.428 87.198 M 340 95.965 C 340 100.906, 340.343 102.113, 342 103 C 343.894 104.014, 344 103.760, 344 98.235 C 344 92.902, 342.872 90, 340.800 90 C 340.360 90, 340 92.684, 340 95.965 M 290.613 98.437 C 288.886 99.200, 288.171 99.988, 288.833 100.397 C 289.863 101.033, 296 98.531, 296 97.474 C 296 96.676, 293.650 97.096, 290.613 98.437 M 330 99.805 C 330 100.954, 334.838 103.495, 335.591 102.742 C 335.918 102.415, 334.794 101.428, 333.093 100.548 C 331.392 99.668, 330 99.334, 330 99.805 M 281.750 102.299 C 280.238 102.897, 279 103.797, 279 104.300 C 279 104.803, 279.788 104.890, 280.750 104.494 C 281.712 104.097, 283.288 103.547, 284.250 103.270 C 285.212 102.993, 286 102.369, 286 101.883 C 286 100.818, 285.335 100.883, 281.750 102.299 M 339 104.814 C 339 105.828, 344.041 108.292, 344.722 107.611 C 344.977 107.356, 343.794 106.428, 342.093 105.548 C 340.392 104.668, 339 104.338, 339 104.814 M 284.500 110.478 C 281.564 111.766, 281.444 112.109, 278.836 126.647 C 277.371 134.816, 276.355 141.685, 276.579 141.910 C 276.804 142.136, 278.706 141.805, 280.807 141.176 L 284.628 140.031 286.819 125.766 C 288.024 117.920, 289.007 110.938, 289.005 110.250 C 288.999 108.741, 288.390 108.772, 284.500 110.478 M 335 121.865 C 335 125.623, 335.286 132.087, 335.637 136.229 C 336.254 143.538, 336.371 143.807, 339.599 145.346 C 341.428 146.218, 343.122 146.609, 343.363 146.216 C 343.604 145.822, 343.419 140.550, 342.952 134.500 C 342.484 128.450, 342.079 122.346, 342.051 120.935 C 342.013 119.012, 341.124 117.953, 338.500 116.701 L 335 115.032 335 121.865 M 277.665 144.507 C 271.850 146.106, 270.688 147, 274.429 147 C 277.296 147, 288 144.183, 288 143.429 C 288 142.610, 282.473 143.186, 277.665 144.507 M 334.500 147.739 C 336.008 149.244, 344.953 152.380, 345.676 151.657 C 346.372 150.961, 341.051 148.529, 336.445 147.439 C 334.486 146.975, 333.835 147.076, 334.500 147.739 M 46.265 233.482 C 17.647 241.516, 3.161 271.937, 15.638 297.798 C 18.939 304.639, 27.527 313.884, 33.671 317.209 C 48.550 325.263, 69.796 325.621, 87.250 318.114 L 92 316.071 92 309.036 C 92 305.166, 91.832 302, 91.626 302 C 91.420 302, 89.260 303.113, 86.826 304.474 C 62.591 318.019, 34.954 311.407, 26.937 290.147 C 24.076 282.559, 24.533 269.643, 27.892 263.151 C 37.876 243.852, 61.964 238.371, 85.215 250.108 L 91.089 253.074 90.795 245.874 L 90.500 238.675 82 235.728 C 71.525 232.095, 54.920 231.052, 46.265 233.482 M 247 276.342 L 247 319.683 250.750 320.787 C 252.813 321.395, 257.611 322.425, 261.413 323.077 C 275.067 325.418, 288.744 320.632, 294.883 311.363 C 299.166 304.897, 300.288 300.015, 299.809 289.942 C 299.222 277.585, 294.625 269.486, 285.500 264.733 C 279.909 261.821, 270.130 261.817, 263.750 264.723 L 259 266.888 259 249.944 L 259 233 253 233 L 247 233 247 276.342 M 413 277.450 L 413 322 419.010 322 L 425.021 322 424.760 277.750 L 424.500 233.500 418.750 233.200 L 413 232.900 413 277.450 M 584 248.545 L 584 264.091 580.250 263.295 C 559.295 258.851, 542.553 271.657, 542.720 292 C 542.816 303.601, 546.499 311.904, 553.862 317.115 C 559.863 321.362, 563.297 322, 580.149 322 L 596 322 596 277.500 L 596 233 590 233 L 584 233 584 248.545 M 178.008 263.181 C 176.088 263.732, 172.713 265.513, 170.508 267.139 L 166.500 270.095 166 266.798 C 165.504 263.528, 165.454 263.500, 160 263.500 L 154.500 263.500 154.235 292.750 L 153.970 322 159.985 322 L 166 322 166 300.589 L 166 279.178 169.045 276.615 C 176.238 270.563, 185.831 271.232, 189.248 278.025 C 190.741 280.991, 190.997 284.465, 190.998 301.750 L 191 322 197 322 L 203 322 203 300.619 L 203 279.237 206.561 276.521 C 212.014 272.362, 216.325 271.504, 220.797 273.690 C 227.296 276.866, 227.997 279.647, 227.998 302.250 L 228 322 234.068 322 L 240.135 322 239.818 299.168 L 239.500 276.336 236.500 271.509 C 229.526 260.287, 214.824 259.274, 204.271 269.288 L 201.041 272.352 196.917 268.269 C 194.256 265.634, 191.252 263.797, 188.453 263.093 C 183.431 261.828, 182.708 261.834, 178.008 263.181 M 325.500 263.096 C 305.829 267.929, 298.758 295.573, 312.564 313.673 C 320.462 324.028, 338.118 326.580, 352.653 319.469 L 358 316.853 358 311.426 C 358 308.442, 357.706 306, 357.346 306 C 356.987 306, 354.175 307.212, 351.096 308.694 C 343.459 312.370, 334 312.978, 327.717 310.199 C 322.886 308.062, 320.556 305.301, 318.471 299.241 L 317.183 295.500 337.842 295 L 358.500 294.500 358.226 289 C 357.688 278.173, 352.582 268.868, 345.080 265.041 C 340.533 262.721, 330.915 261.766, 325.500 263.096 M 390 263.121 C 386.790 264.397, 382.451 268.550, 379.680 273 L 377.500 276.500 377 270 L 376.500 263.500 371 263.500 L 365.500 263.500 365.235 292.750 L 364.970 322 370.985 322 L 377 322 377 304.696 C 377 288.291, 377.128 287.135, 379.474 282.427 C 383.688 273.972, 391.219 271.623, 398.429 276.517 C 400.469 277.901, 402.444 278.837, 402.819 278.598 C 403.193 278.359, 404.625 276.070, 406 273.512 L 408.500 268.861 405.570 266.681 C 399.908 262.467, 394.662 261.267, 390 263.121 M 444.753 263.084 C 442.692 263.570, 439.205 265.160, 437.003 266.617 L 433 269.266 433 276.329 L 433 283.392 436.250 280.308 C 441.093 275.712, 445.230 274, 451.496 274 C 458.671 274, 462 276.812, 462 282.872 L 462 286.836 454.250 289.442 C 437.950 294.923, 432 300.154, 432 309 C 432 321.364, 444.188 327.121, 456.971 320.795 C 461.171 318.716, 462.255 318.500, 462.697 319.652 C 463.332 321.309, 468.172 324, 470.515 324 C 471.403 324, 474.350 323.045, 477.065 321.877 C 481.800 319.840, 482 319.592, 482 315.762 L 482 311.770 479.419 313.461 C 474.345 316.786, 474.001 315.694, 473.994 296.281 C 473.991 286.502, 473.532 276.857, 472.975 274.848 C 470.371 265.475, 457.454 260.090, 444.753 263.084 M 511.994 262.886 C 508.070 264.155, 503.479 266.718, 502.055 268.434 C 499.998 270.912, 499 270.280, 499 266.500 L 499 263 493.500 263 L 488 263 488 292.500 L 488 322 493.500 322 L 499 322 499 302.565 C 499 291.876, 499.422 282.020, 499.938 280.663 C 501.461 276.658, 507.458 272.759, 512.899 272.236 C 517.179 271.824, 518.092 272.110, 521.107 274.803 L 524.500 277.832 524.804 299.916 L 525.108 322 531.054 322 L 537 322 537.107 312.250 C 537.321 292.692, 537.148 282.471, 536.532 278.363 C 535.789 273.413, 531.216 266.680, 527.176 264.591 C 523.599 262.741, 515.317 261.811, 511.994 262.886 M 97.182 285.698 C 97.479 306.963, 97.649 308.778, 99.706 312.624 C 102.698 318.218, 106.915 321.540, 112.821 322.957 C 118.874 324.409, 123.773 323.298, 130.095 319.038 L 134.500 316.069 134.813 319.035 C 135.122 321.955, 135.218 322, 141.078 322 L 147.030 322 146.765 292.750 L 146.500 263.500 140.750 263.200 L 135 262.900 135 284.254 L 135 305.608 131.750 308.719 C 127.609 312.684, 121.754 314.323, 116.709 312.930 C 110.033 311.087, 109.565 309.394, 109 285.048 L 108.500 263.500 102.682 263.198 L 96.864 262.896 97.182 285.698 M 264 275.250 L 259.500 277.659 259.226 294.207 C 258.912 313.227, 258.186 311.960, 269.412 311.986 C 281.491 312.014, 288.647 304.123, 287.808 291.700 C 287.044 280.380, 282.019 274.070, 273.122 273.262 C 269.588 272.940, 267.441 273.408, 264 275.250 M 324.041 275.619 C 320.750 278.388, 318 282.864, 318 285.450 C 318 286.779, 320.082 287, 332.608 287 L 347.217 287 346.600 284.544 C 344.397 275.763, 341.127 273, 332.942 273 C 328.156 273, 326.614 273.454, 324.041 275.619 M 566.030 274.583 C 558.344 277.917, 555 283.721, 555 293.726 C 555 301.350, 556.940 306.119, 561.394 309.445 C 563.518 311.030, 566.184 311.564, 574.044 311.977 L 584.002 312.500 584.001 293.848 L 584 275.196 580.851 274.098 C 576.501 272.581, 570.167 272.789, 566.030 274.583 M 453.379 296.897 C 446.464 300.169, 444 302.993, 444 307.650 C 444 314.156, 451.980 317.029, 458.632 312.918 L 462 310.837 462 302.418 C 462 296.350, 461.651 294, 460.750 294.001 C 460.063 294.001, 456.746 295.305, 453.379 296.897 M 375.329 342.458 C 369.864 344.835, 368.347 350.629, 371.981 355.249 C 373.071 356.634, 376.201 359.204, 378.938 360.960 C 384.495 364.526, 386.030 367.398, 383.650 369.778 C 381.430 371.999, 376.436 371.699, 372.971 369.137 L 370 366.940 370 369.848 C 370 373.253, 371.221 374.450, 376 375.728 C 383.498 377.733, 389.493 373.414, 389.287 366.157 C 389.179 362.344, 385.991 358.773, 378.868 354.487 C 370.905 349.695, 376.677 343.196, 385.050 347.526 C 387.992 349.047, 388 349.044, 388 346.124 C 388 343.739, 387.416 342.992, 384.851 342.098 C 380.833 340.697, 379.237 340.758, 375.329 342.458 M 113 354.965 L 113 367.930 115.996 371.343 C 119.646 375.500, 125.241 377.183, 131.065 375.874 C 140.595 373.733, 142 370.981, 142 354.453 L 142 342 139.500 342 L 137 342 137 353.865 C 137 364.355, 136.760 366.036, 134.927 368.365 C 133.158 370.614, 132.086 371, 127.602 371 C 123.404 371, 121.912 370.535, 120.174 368.686 C 118.187 366.571, 118 365.320, 118 354.186 L 118 342 115.500 342 L 113 342 113 354.965 M 163 359 L 163 376 165.470 376 L 167.940 376 168.220 363.297 L 168.500 350.595 179.500 363.268 C 187.416 372.388, 191.131 375.950, 192.750 375.971 C 194.996 376, 195 375.972, 195 359 L 195 342 192.530 342 L 190.060 342 189.780 354.540 L 189.500 367.080 178.552 354.540 C 170.475 345.289, 167 342, 165.302 342 L 163 342 163 359 M 217 359 L 217 376 219.500 376 L 222 376 222 359 L 222 342 219.500 342 L 217 342 217 359 M 240.279 343.285 C 243.500 351.678, 254.440 376, 254.994 376 C 255.391 376, 257.426 371.837, 259.518 366.750 C 261.609 361.663, 264.374 355.164, 265.663 352.309 C 270.328 341.969, 270.351 341.826, 267.311 342.184 C 264.918 342.465, 264.117 343.691, 260.071 353.250 C 257.569 359.163, 255.248 364, 254.913 364 C 254.578 364, 252.253 359.163, 249.746 353.250 C 245.672 343.641, 244.898 342.465, 242.457 342.170 C 240.408 341.923, 239.863 342.202, 240.279 343.285 M 288 359 L 288 376 298 376 L 308 376 308 373.500 C 308 371.056, 307.833 371, 300.500 371 L 293 371 293 366 L 293 361 300 361 C 306.800 361, 307 360.929, 307 358.500 C 307 356.070, 306.804 356, 299.945 356 L 292.890 356 293.195 351.250 L 293.500 346.500 300.250 346.204 C 306.180 345.945, 307 345.671, 307 343.954 C 307 342.152, 306.259 342, 297.500 342 L 288 342 288 359 M 327.226 358.750 C 327.496 375.264, 327.532 375.504, 329.750 375.820 C 331.902 376.125, 332 375.830, 332 369.038 C 332 363.633, 332.360 361.799, 333.508 361.359 C 335.884 360.447, 339.579 363.489, 343.998 369.998 C 347.205 374.719, 348.623 376, 350.644 376 C 352.533 376, 353.059 375.597, 352.631 374.480 C 351.805 372.327, 344.199 361.241, 343.069 360.543 C 342.552 360.223, 343.225 358.866, 344.565 357.526 C 346.987 355.104, 347.792 350.229, 346.379 346.545 C 345.297 343.727, 340.414 342, 333.525 342 L 326.952 342 327.226 358.750 M 409 359 L 409 376 411.500 376 L 414 376 414 359 L 414 342 411.500 342 L 409 342 409 359 M 433 343.950 C 433 345.623, 433.818 345.943, 438.750 346.200 L 444.500 346.500 444.777 361.250 L 445.053 376 447.527 376 L 450 376 450 361 L 450 346 456 346 C 461.333 346, 462 345.778, 462 344 C 462 342.092, 461.333 342, 447.500 342 C 433.790 342, 433 342.106, 433 343.950 M 478.667 344.422 C 479.675 345.754, 482.394 349.258, 484.708 352.210 C 488.857 357.501, 488.920 357.701, 489.208 366.538 C 489.483 374.968, 489.634 375.519, 491.750 375.820 C 493.939 376.130, 494 375.898, 494 367.199 L 494 358.258 500 350.741 C 503.300 346.607, 506 342.949, 506 342.612 C 506 342.276, 504.757 342, 503.237 342 C 501.070 342, 499.533 343.204, 496.116 347.579 C 493.720 350.648, 491.440 352.785, 491.050 352.329 C 490.660 351.873, 488.636 349.363, 486.550 346.750 C 483.561 343.005, 482.132 342, 479.796 342 L 476.833 342 478.667 344.422 M 332.667 346.667 C 331.461 347.872, 331.944 356.042, 333.250 356.527 C 335.968 357.535, 340.499 355.359, 341.480 352.574 C 342.315 350.201, 342.114 349.511, 340.119 347.895 C 337.800 346.017, 333.951 345.383, 332.667 346.667" stroke="none" fill="#fafafa" fill-rule="evenodd"/></svg>