<?xml version="1.0" standalone="no"?>
<!DOCTYPE svg PUBLIC "-//W3C//DTD SVG 20010904//EN"
 "http://www.w3.org/TR/2001/REC-SVG-20010904/DTD/svg10.dtd">
<svg version="1.0" xmlns="http://www.w3.org/2000/svg"
 width="900.000000pt" height="500.000000pt" viewBox="0 0 900.000000 500.000000"
 preserveAspectRatio="xMidYMid meet">

<g transform="translate(0.000000,500.000000) scale(0.100000,-0.100000)"
fill="#000000" stroke="none">
<path d="M2944 3626 c-28 -28 -34 -42 -34 -76 0 -58 50 -110 105 -110 55 0
105 52 105 110 0 58 -50 110 -105 110 -29 0 -45 -8 -71 -34z"/>
<path d="M3590 3069 c-49 -10 -112 -49 -142 -89 -10 -14 -23 -50 -29 -80 -15
-74 0 -128 49 -176 45 -44 86 -65 221 -116 178 -66 221 -99 221 -173 0 -66
-55 -105 -149 -105 -98 0 -213 67 -297 171 -68 85 -76 80 -69 -38 9 -150 -3
-135 135 -167 103 -24 135 -28 218 -24 67 3 111 11 142 25 79 35 130 113 130
198 0 63 -20 103 -75 153 -45 42 -77 59 -187 102 -207 80 -238 103 -238 173 0
27 7 41 31 61 26 22 40 26 96 26 54 0 75 -5 125 -32 54 -29 158 -127 158 -149
0 -5 7 -9 15 -9 12 0 15 15 15 74 0 117 -6 134 -49 142 -20 3 -79 14 -133 25
-104 21 -120 21 -188 8z"/>
<path d="M4402 3070 c-92 -19 -155 -82 -173 -171 -16 -79 -1 -125 59 -181 46
-43 89 -64 258 -128 107 -40 160 -79 173 -126 22 -81 -38 -134 -153 -134 -97
0 -222 80 -316 203 -40 51 -51 37 -45 -60 11 -162 -3 -145 135 -177 261 -62
441 -11 481 136 15 57 5 133 -23 175 -35 52 -112 99 -243 149 -191 72 -225 97
-225 167 0 27 7 41 31 61 26 22 40 26 96 26 54 0 75 -5 125 -32 54 -29 158
-127 158 -149 0 -5 7 -9 15 -9 12 0 15 16 15 83 0 114 -5 125 -49 132 -20 3
-63 12 -96 20 -85 19 -173 25 -223 15z"/>
<path d="M5475 3067 c-50 -17 -98 -42 -152 -79 l-43 -29 0 54 0 54 -147 -23
c-82 -13 -149 -23 -150 -23 -2 -1 -3 -8 -3 -16 0 -11 11 -15 35 -15 47 0 93
-25 100 -53 3 -12 5 -143 3 -290 l-3 -269 -24 -19 c-14 -11 -44 -25 -68 -32
-91 -24 -47 -32 182 -32 176 -1 225 2 225 12 0 7 -6 13 -12 13 -33 0 -93 24
-114 45 -24 24 -24 24 -24 274 l0 251 42 30 c84 61 203 74 275 30 61 -37 68
-69 71 -331 l3 -236 -31 -26 c-17 -15 -46 -29 -65 -33 -19 -3 -35 -11 -35 -18
0 -14 433 -13 437 1 2 5 -18 15 -44 22 -98 25 -102 38 -103 327 0 228 -6 266
-55 330 -54 70 -207 111 -300 81z"/>
<path d="M2955 3058 c-71 -5 -136 -11 -142 -13 -22 -8 -14 -24 15 -30 51 -11
91 -37 107 -72 14 -29 16 -71 13 -297 -3 -264 -3 -264 -27 -290 -17 -18 -39
-28 -73 -32 -26 -4 -48 -12 -48 -18 0 -8 68 -11 235 -11 167 0 235 3 235 11 0
6 -22 14 -48 18 -62 8 -89 28 -102 74 -6 22 -10 167 -10 355 0 248 -3 317 -12
316 -7 -1 -71 -6 -143 -11z"/>
<path d="M660 2030 c0 -7 1233 -10 3680 -10 2447 0 3680 3 3680 10 0 7 -1233
10 -3680 10 -2447 0 -3680 -3 -3680 -10z"/>
<path d="M2868 1877 c-29 -11 -35 -22 -18 -32 12 -8 14 -321 2 -329 -5 -3 -22
-2 -38 3 -29 7 -29 8 -32 91 -2 46 -8 90 -15 98 -19 24 -103 10 -135 -21 -20
-20 -23 -30 -15 -38 9 -9 19 -4 42 21 38 43 64 36 59 -16 -3 -33 -7 -38 -47
-53 -52 -19 -66 -38 -57 -74 8 -32 46 -45 82 -28 18 8 31 8 50 -1 19 -9 33 -9
55 -1 16 6 29 8 29 4 0 -4 27 -7 60 -6 59 0 75 7 45 19 -13 4 -15 35 -15 191
0 199 2 193 -52 172z m-157 -350 c-16 -16 -41 0 -41 26 0 15 8 28 23 34 20 9
22 7 25 -20 2 -16 -1 -34 -7 -40z"/>
<path d="M5041 1855 c-22 -25 -32 -49 -37 -86 -4 -28 -13 -53 -20 -56 -19 -7
-18 -23 1 -23 24 0 22 -165 -2 -179 -13 -8 1 -10 57 -10 72 0 74 0 48 15 -27
14 -28 18 -28 94 l0 80 36 0 c45 0 42 24 -4 28 -31 3 -32 5 -32 52 0 87 32
128 62 80 24 -38 69 -19 48 20 -8 15 -21 20 -54 20 -38 0 -48 -5 -75 -35z"/>
<path d="M221 1847 c-24 -29 17 -70 46 -46 20 17 12 53 -13 57 -11 2 -26 -3
-33 -11z"/>
<path d="M1937 1853 c-22 -22 7 -68 36 -57 21 8 30 34 16 50 -12 15 -41 19
-52 7z"/>
<path d="M3822 1848 c-18 -18 -15 -36 7 -48 15 -7 23 -6 35 6 9 8 16 19 16 23
0 11 -23 31 -35 31 -6 0 -16 -5 -23 -12z"/>
<path d="M7671 1847 c-25 -31 13 -66 46 -42 14 11 16 18 7 32 -14 23 -38 28
-53 10z"/>
<path d="M7991 1847 c-25 -31 13 -66 46 -42 14 11 16 18 7 32 -14 23 -38 28
-53 10z"/>
<path d="M8598 1813 c20 -4 22 -10 22 -59 0 -30 5 -54 10 -54 6 0 10 24 10 54
0 49 2 55 23 59 12 2 -3 4 -33 4 -30 0 -45 -2 -32 -4z"/>
<path d="M8690 1760 c0 -71 20 -82 21 -12 l1 47 16 -47 c8 -27 19 -48 23 -48
4 0 14 19 22 43 l15 42 1 -42 c1 -67 21 -50 21 17 0 75 -21 82 -40 14 -14 -50
-22 -48 -40 9 -19 60 -40 48 -40 -23z"/>
<path d="M681 1746 c-13 -14 -32 -28 -43 -32 -22 -7 -24 -24 -3 -24 12 0 15
-14 15 -69 0 -85 12 -119 44 -127 30 -7 78 7 84 25 3 9 -2 11 -16 7 -36 -12
-52 18 -52 95 l0 69 35 0 c24 0 35 5 35 15 0 10 -10 15 -34 15 -30 0 -35 4
-38 26 l-3 26 -24 -26z"/>
<path d="M4211 1746 c-13 -14 -32 -28 -43 -32 -22 -7 -24 -24 -3 -24 12 0 15
-14 15 -69 0 -85 12 -119 44 -127 30 -7 78 7 84 25 3 9 -2 11 -16 7 -36 -12
-52 18 -52 94 l0 68 43 5 c23 2 47 -1 54 -7 15 -14 73 -164 73 -189 0 -31 -29
-75 -51 -79 -29 -4 -49 -35 -30 -47 33 -21 51 3 131 165 49 100 85 164 94 164
8 0 18 5 21 10 4 6 -16 10 -52 10 -50 -1 -56 -2 -40 -14 22 -17 22 -23 -6 -86
-26 -59 -29 -58 -57 25 -16 46 -17 55 -4 55 7 0 14 5 14 10 0 6 -38 10 -94 10
-94 0 -95 0 -98 26 l-3 26 -24 -26z"/>
<path d="M7331 1746 c-13 -14 -32 -28 -43 -32 -22 -7 -24 -24 -3 -24 12 0 15
-14 15 -69 0 -85 12 -119 44 -127 30 -7 78 7 84 25 3 9 -2 11 -16 7 -36 -12
-52 18 -52 95 l0 69 35 0 c24 0 35 5 35 15 0 10 -10 15 -34 15 -30 0 -35 4
-38 26 l-3 26 -24 -26z"/>
<path d="M1768 1732 c-40 -29 -47 -42 -23 -42 12 0 15 -16 15 -83 0 -69 3 -87
18 -100 25 -23 65 -21 93 4 l24 20 -23 -6 c-40 -11 -52 10 -52 91 l0 73 33 3
c17 2 32 8 32 13 0 6 -15 11 -32 13 -25 2 -33 8 -33 23 0 24 -7 23 -52 -9z"/>
<path d="M6255 1740 c-10 -11 -26 -22 -36 -25 -23 -8 -25 -25 -4 -25 12 0 15
-14 15 -69 0 -85 12 -119 44 -127 30 -7 78 7 84 25 3 9 -2 11 -16 7 -36 -12
-52 18 -52 95 l0 69 35 0 c24 0 35 5 35 15 0 10 -11 15 -35 15 -28 0 -35 4
-35 20 0 25 -12 25 -35 0z"/>
<path d="M7835 1740 c-10 -11 -26 -22 -36 -25 -23 -8 -25 -25 -4 -25 12 0 15
-15 15 -78 0 -112 30 -144 105 -110 30 13 34 32 5 23 -37 -12 -50 11 -50 91
l0 74 35 0 c24 0 35 5 35 15 0 10 -11 15 -35 15 -28 0 -35 4 -35 20 0 25 -12
25 -35 0z"/>
<path d="M227 1717 c-20 -8 -26 -15 -20 -27 4 -8 9 -47 11 -86 3 -66 2 -73
-19 -88 -23 -15 -21 -16 46 -16 62 0 67 1 49 14 -17 13 -19 27 -19 115 0 106
0 107 -48 88z"/>
<path d="M371 1714 c-26 -11 -32 -17 -23 -26 7 -7 12 -43 12 -90 0 -63 -3 -79
-17 -87 -14 -8 -2 -10 46 -11 62 0 64 1 47 19 -24 26 -19 149 7 165 12 8 22 8
35 0 26 -16 30 -153 6 -171 -15 -11 -8 -13 49 -13 l67 0 -20 20 c-16 16 -20
33 -20 93 0 90 -13 111 -65 110 -20 -1 -42 -6 -48 -12 -15 -15 -27 -14 -27 4
0 18 -6 18 -49 -1z"/>
<path d="M883 1723 c-12 -2 -36 -20 -53 -39 -72 -83 -10 -211 92 -190 36 7 68
32 68 53 0 12 -4 11 -22 -1 -12 -9 -31 -16 -41 -16 -25 0 -77 53 -77 79 0 19
6 21 70 21 l70 0 0 30 c0 42 -53 73 -107 63z m52 -48 c0 -16 -8 -21 -37 -23
-40 -3 -50 12 -26 36 20 20 63 11 63 -13z"/>
<path d="M1056 1714 c-21 -12 -25 -19 -17 -27 6 -6 11 -44 11 -85 0 -60 -4
-78 -17 -88 -16 -12 -8 -13 55 -14 77 0 88 5 47 20 -25 9 -26 13 -23 82 l3 73
36 -3 c41 -3 60 21 36 46 -13 12 -19 12 -46 -2 -27 -15 -31 -15 -31 -1 0 19
-17 19 -54 -1z"/>
<path d="M1247 1717 c-20 -8 -26 -15 -20 -27 4 -8 9 -49 11 -91 3 -71 2 -76
-20 -86 -19 -10 -12 -12 47 -12 50 0 65 2 53 9 -19 11 -34 104 -24 145 7 29
49 44 71 25 23 -19 21 -148 -2 -166 -16 -12 -9 -13 47 -13 49 0 61 2 48 10
-15 8 -18 24 -18 85 0 41 -5 84 -11 95 -16 31 -54 41 -94 24 -31 -12 -35 -12
-35 1 0 16 -13 16 -53 1z"/>
<path d="M1941 1714 c-26 -11 -32 -17 -23 -26 7 -7 12 -43 12 -90 0 -63 -3
-79 -17 -87 -14 -8 -1 -10 52 -11 66 0 68 1 47 16 -20 14 -22 23 -22 115 0 54
-3 99 -7 99 -5 -1 -23 -7 -42 -16z"/>
<path d="M2134 1719 c-53 -15 -79 -53 -79 -115 0 -45 4 -58 28 -81 23 -24 36
-28 83 -28 50 0 58 3 85 33 24 27 29 41 29 83 0 43 -5 55 -29 80 -16 16 -36
29 -44 29 -9 0 -21 2 -29 4 -7 2 -27 0 -44 -5z m60 -34 c35 -35 32 -146 -4
-165 -23 -12 -54 0 -64 26 -10 25 -7 114 4 135 13 23 43 25 64 4z"/>
<path d="M2358 1717 c-28 -11 -36 -31 -18 -42 6 -3 10 -35 10 -71 0 -51 -4
-68 -20 -84 l-20 -20 67 0 c58 0 64 2 49 13 -23 17 -35 139 -16 162 18 21 57
19 70 -4 17 -32 12 -132 -7 -153 -15 -17 -13 -18 48 -18 48 1 60 3 47 11 -14
8 -18 24 -18 79 0 38 -4 80 -10 95 -14 37 -52 49 -97 30 -44 -18 -43 -18 -43
0 0 17 -4 17 -42 2z"/>
<path d="M3169 1719 c-33 -12 -52 -51 -40 -82 5 -13 27 -35 50 -50 43 -29 50
-47 27 -66 -18 -15 -50 0 -66 29 -6 11 -15 20 -20 20 -18 0 -10 -40 11 -61 42
-42 139 -5 139 53 0 18 -33 56 -84 96 -22 17 -16 36 13 40 13 2 29 -5 41 -20
l19 -23 1 28 c0 20 -6 30 -26 37 -29 12 -31 12 -65 -1z"/>
<path d="M3384 1719 c-53 -15 -79 -53 -79 -115 0 -45 4 -58 28 -81 23 -24 36
-28 83 -28 50 0 58 3 85 33 24 27 29 41 29 83 0 43 -5 55 -29 80 -16 16 -36
29 -44 29 -9 0 -21 2 -29 4 -7 2 -27 0 -44 -5z m53 -27 c30 -19 42 -101 22
-146 -24 -51 -72 -39 -89 22 -13 48 -13 56 4 97 15 34 37 44 63 27z"/>
<path d="M3821 1714 c-25 -11 -31 -18 -22 -27 6 -6 11 -44 11 -89 0 -63 -3
-79 -17 -87 -14 -8 -1 -10 52 -11 66 0 68 1 47 16 -20 14 -22 23 -22 115 0 54
-3 99 -7 98 -5 0 -23 -7 -42 -15z"/>
<path d="M4010 1717 c-79 -27 -105 -137 -46 -196 21 -20 36 -26 72 -26 38 0
50 5 70 29 30 34 25 44 -9 21 -44 -28 -98 -1 -112 57 l-7 27 73 3 c84 3 97 17
57 61 -29 33 -54 39 -98 24z m60 -32 c18 -22 3 -35 -41 -35 -42 0 -44 2 -29
31 13 22 52 25 70 4z"/>
<path d="M4786 1715 c-21 -7 -39 -15 -40 -17 -46 -61 -49 -123 -8 -168 52 -59
152 -48 187 20 50 96 -37 200 -139 165z m68 -37 c22 -30 22 -131 0 -152 -21
-21 -37 -20 -60 5 -23 25 -26 127 -5 152 19 24 47 21 65 -5z"/>
<path d="M5329 1719 c-33 -12 -52 -51 -40 -82 5 -13 27 -35 50 -50 43 -29 50
-47 27 -66 -18 -15 -50 0 -66 29 -6 11 -15 20 -20 20 -18 0 -10 -40 11 -61 42
-42 139 -5 139 53 0 18 -33 56 -84 96 -22 17 -16 36 13 40 13 2 29 -5 41 -20
l19 -23 1 28 c0 20 -6 30 -26 37 -29 12 -31 12 -65 -1z"/>
<path d="M5491 1714 c-25 -11 -31 -18 -22 -27 7 -7 11 -61 11 -155 0 -126 -2
-147 -17 -158 -16 -12 -9 -13 50 -14 43 0 66 4 62 10 -3 6 -13 10 -21 10 -10
0 -14 14 -14 54 l0 53 50 7 c61 8 105 48 115 104 15 88 -54 149 -132 117 -29
-12 -33 -12 -33 1 0 17 -5 17 -49 -2z m129 -44 c39 -39 26 -140 -21 -155 -38
-12 -59 20 -59 90 0 34 5 66 12 73 18 18 45 15 68 -8z"/>
<path d="M5820 1717 c-41 -14 -80 -67 -80 -109 0 -135 194 -160 229 -30 26 91
-58 169 -149 139z m75 -47 c34 -66 7 -171 -42 -156 -61 20 -55 186 7 186 11 0
26 -12 35 -30z"/>
<path d="M6046 1714 c-21 -12 -25 -19 -17 -27 6 -6 11 -44 11 -85 0 -60 -4
-78 -17 -88 -16 -12 -9 -13 50 -14 38 0 67 4 67 10 0 6 -9 10 -20 10 -18 0
-20 7 -20 80 l0 81 37 -3 c30 -2 38 1 41 16 6 27 -18 37 -50 20 -25 -13 -28
-13 -28 1 0 19 -17 19 -54 -1z"/>
<path d="M6432 1720 c-57 -24 -51 -94 13 -131 24 -15 35 -28 35 -44 0 -45 -46
-44 -70 0 -17 31 -30 32 -30 3 0 -35 13 -48 52 -54 72 -12 128 48 94 101 -8
12 -31 33 -51 45 -40 25 -44 53 -8 58 14 2 27 -4 35 -17 17 -28 28 -26 28 4 0
37 -48 54 -98 35z"/>
<path d="M6738 1717 c-29 -11 -35 -22 -18 -32 6 -3 10 -40 10 -82 0 -60 -4
-78 -17 -89 -16 -12 -9 -13 47 -13 56 0 63 1 48 13 -14 11 -18 29 -18 89 0 73
1 77 25 83 42 11 55 -10 55 -89 0 -55 -4 -73 -17 -83 -16 -12 -8 -13 52 -13
58 0 66 2 48 11 -21 10 -23 18 -23 85 0 113 -26 145 -100 119 -34 -12 -40 -12
-40 0 0 16 -14 16 -52 1z"/>
<path d="M7488 1717 c-29 -11 -35 -22 -18 -32 6 -3 10 -42 10 -86 0 -64 -3
-79 -15 -79 -8 0 -15 -4 -15 -10 0 -6 28 -10 65 -10 37 0 65 4 65 10 0 6 -9
10 -20 10 -18 0 -20 7 -20 80 l0 79 37 -2 c32 -2 38 1 41 19 4 29 -25 39 -54
19 -21 -14 -24 -14 -24 0 0 17 -13 18 -52 2z"/>
<path d="M7671 1714 c-25 -11 -31 -18 -22 -27 6 -6 11 -44 11 -89 0 -63 -3
-79 -17 -87 -14 -8 -1 -10 51 -11 62 0 68 2 51 14 -16 12 -20 30 -23 115 -2
56 -7 101 -11 100 -3 0 -21 -7 -40 -15z"/>
<path d="M7991 1714 c-25 -11 -31 -18 -22 -27 6 -6 11 -44 11 -89 0 -63 -3
-79 -17 -87 -14 -8 -1 -10 51 -11 62 0 68 2 51 14 -16 12 -20 30 -23 115 -2
56 -7 101 -11 100 -3 0 -21 -7 -40 -15z"/>
<path d="M8186 1719 c-93 -27 -114 -160 -32 -210 59 -36 142 -14 170 46 20 41
20 56 2 100 -23 53 -82 81 -140 64z m68 -41 c23 -32 21 -120 -2 -148 -37 -46
-82 0 -82 83 0 75 50 114 84 65z"/>
<path d="M8408 1717 c-29 -11 -35 -22 -18 -32 6 -3 10 -40 10 -82 0 -60 -4
-78 -17 -89 -16 -12 -9 -13 47 -13 56 0 63 1 48 13 -14 11 -18 29 -18 89 0 73
1 77 25 83 42 11 55 -10 55 -89 0 -55 -4 -73 -17 -83 -16 -12 -8 -13 52 -13
58 0 66 2 48 11 -21 10 -23 18 -23 85 0 113 -26 145 -100 119 -34 -12 -40 -12
-40 0 0 16 -14 16 -52 1z"/>
<path d="M1544 1701 c-36 -22 -48 -37 -40 -50 10 -16 43 0 55 25 13 29 36 31
51 5 20 -38 12 -59 -27 -71 -81 -26 -106 -66 -65 -103 22 -20 42 -21 77 -5 19
9 28 9 37 0 15 -15 43 -15 71 0 l22 12 -25 6 c-24 6 -25 9 -26 88 -1 50 -6 87
-14 97 -17 21 -79 19 -116 -4z m68 -146 c-9 -34 -29 -39 -46 -12 -9 15 -7 22
13 38 30 24 43 13 33 -26z"/>
<path d="M3628 1704 c-53 -28 -73 -105 -44 -163 27 -52 112 -68 160 -30 34 27
37 58 4 35 -31 -22 -60 -20 -92 5 -49 39 -26 149 31 149 9 0 27 -10 40 -21 20
-20 23 -20 29 -5 3 9 4 23 0 31 -7 20 -91 19 -128 -1z"/>
<path d="M6995 1711 c-3 -5 -1 -12 5 -16 5 -3 10 -37 10 -75 0 -38 4 -80 10
-94 12 -32 52 -43 99 -26 26 10 36 10 39 1 2 -7 17 -9 40 -6 61 11 70 16 45
26 -22 8 -23 14 -23 104 l0 95 -45 0 c-45 0 -58 -12 -30 -28 13 -7 15 -24 13
-83 l-3 -74 -33 -3 c-27 -3 -34 1 -43 25 -6 15 -9 58 -7 96 l3 67 -37 0 c-20
0 -39 -4 -43 -9z"/>
</g>
</svg>
