<?xml version="1.0" standalone="no"?>
<!DOCTYPE svg PUBLIC "-//W3C//DTD SVG 20010904//EN"
 "http://www.w3.org/TR/2001/REC-SVG-20010904/DTD/svg10.dtd">
<svg version="1.0" xmlns="http://www.w3.org/2000/svg"
 width="492.000000pt" height="600.000000pt" viewBox="0 0 492.000000 600.000000"
 preserveAspectRatio="xMidYMid meet">

<g transform="translate(0.000000,600.000000) scale(0.100000,-0.100000)"
fill="#000000" stroke="none">
<path d="M10 5475 l0 -525 165 0 165 0 0 -1455 0 -1455 -165 0 -165 0 0 -515
0 -515 800 0 800 0 0 -505 0 -505 970 0 970 0 0 510 0 510 -185 0 -185 0 0
590 c0 325 2 590 5 590 3 0 135 -261 295 -580 l290 -580 575 0 575 0 0 515 0
515 -194 0 -195 0 -186 365 c-103 201 -185 370 -183 374 2 5 173 182 380 394
l378 385 0 783 -1 784 -417 423 -417 423 -2037 -1 -2038 0 0 -525z m4442 37
l397 -407 1 -735 0 -735 -395 -402 c-217 -221 -395 -405 -395 -410 0 -5 95
-197 211 -426 l210 -417 185 0 184 0 0 -425 0 -425 -518 0 -517 0 -360 717
-360 718 -3 -800 c-1 -440 0 -806 3 -812 3 -9 54 -13 187 -15 l183 -3 0 -430
0 -430 -887 -3 -888 -2 0 435 0 435 185 0 185 0 0 940 0 940 -305 0 -305 0 0
-420 0 -420 150 0 150 0 0 -440 0 -440 -830 0 -830 0 0 425 0 425 168 2 167 3
3 1538 2 1537 -170 0 -170 0 0 445 0 445 1983 -1 1982 -1 397 -406z m-2474
-3629 l-3 -858 -70 0 -70 0 -3 523 -2 522 -150 0 -150 0 0 335 0 335 225 0
225 0 -2 -857z"/>
<path d="M260 5475 l0 -275 170 0 170 0 -2 -1707 -3 -1708 -167 -3 -168 -2 0
-255 0 -255 660 0 660 0 0 270 0 270 -150 0 -150 0 0 590 0 590 475 0 475 0 0
-1110 0 -1110 -185 0 -185 0 0 -265 0 -265 720 0 720 0 0 265 0 265 -187 2
-188 3 0 1105 0 1105 75 3 75 3 422 -846 423 -845 380 0 380 0 0 255 0 254
-152 3 -153 3 -262 515 c-144 283 -262 518 -262 522 -1 4 186 197 414 430
l415 423 0 665 0 665 -351 358 -351 357 -1859 0 -1859 0 0 -275z m3608 -462
l202 -186 0 -454 0 -455 -157 -164 -157 -164 -418 0 -418 0 2 263 3 262 188 3
187 2 -2 268 -3 267 -717 3 -718 2 0 -270 0 -270 183 -2 182 -3 3 -262 2 -263
-475 0 -475 0 0 805 0 805 1193 0 1192 0 203 -187z"/>
<path d="M1450 4395 l0 -635 305 0 305 0 0 95 0 95 -185 0 -185 0 0 440 0 440
888 -2 887 -3 3 -437 2 -438 -187 -2 -188 -3 -3 -92 -3 -93 298 0 298 0 108
114 107 114 -1 384 -1 383 -148 138 -148 137 -1076 0 -1076 0 0 -635z m2242
437 l127 -117 1 -346 0 -345 -86 -92 -86 -92 -234 0 c-149 0 -234 4 -234 10 0
6 68 10 185 10 l185 0 0 525 0 525 -970 0 -970 0 0 -525 0 -525 185 0 c117 0
185 -4 185 -10 0 -6 -82 -10 -225 -10 l-225 0 0 555 0 555 1018 0 1017 -1 127
-117z"/>
</g>
</svg>
