<?xml version="1.0" standalone="no"?>
<!DOCTYPE svg PUBLIC "-//W3C//DTD SVG 20010904//EN"
 "http://www.w3.org/TR/2001/REC-SVG-20010904/DTD/svg10.dtd">
<svg version="1.0" xmlns="http://www.w3.org/2000/svg"
 width="800.000000pt" height="909.000000pt" viewBox="0 0 800.000000 909.000000"
 preserveAspectRatio="xMidYMid meet">

<g transform="translate(0.000000,909.000000) scale(0.100000,-0.100000)"
fill="#000000" stroke="none">
<path d="M1682 9049 c-98 -120 -258 -417 -332 -614 -101 -267 -144 -507 -144
-790 0 -278 41 -510 130 -736 44 -112 274 -612 517 -1125 l176 -371 4 -844 c4
-899 3 -876 52 -1024 106 -315 384 -569 1090 -995 26 -17 1 13 -78 89 -276
268 -474 567 -542 821 -43 160 -42 227 9 810 25 289 61 707 80 929 l34 404
-89 281 c-50 155 -173 535 -274 846 -327 1007 -403 1266 -495 1685 -34 157
-86 465 -96 570 -9 91 -14 99 -42 64z"/>
<path d="M5925 9033 c-85 -663 -170 -990 -630 -2403 -306 -940 -325 -1003
-325 -1053 0 -51 73 -929 121 -1462 44 -484 37 -575 -58 -804 -83 -204 -229
-407 -447 -628 -83 -84 -142 -146 -131 -139 11 7 72 43 134 81 539 323 847
606 950 874 72 188 80 311 81 1228 l0 702 141 298 c354 747 522 1116 567 1243
194 555 134 1183 -169 1759 -56 107 -200 334 -219 346 -5 3 -11 -16 -15 -42z"/>
<path d="M1071 6878 c-100 -479 -48 -1037 121 -1287 18 -27 177 -221 353 -430
l320 -382 3 282 2 281 -382 819 c-211 450 -386 818 -389 819 -4 0 -16 -46 -28
-102z"/>
<path d="M6152 6163 l-382 -817 2 -282 3 -283 330 393 c411 488 427 516 488
851 25 136 29 495 9 645 -15 105 -50 278 -61 297 -3 7 -178 -354 -389 -804z"/>
<path d="M1120 5355 c0 -46 45 -251 84 -382 115 -386 341 -822 609 -1177 l62
-82 -3 394 -3 394 -352 416 c-194 229 -362 428 -374 442 l-22 25 -1 -30z"/>
<path d="M6143 4944 l-372 -439 -1 -355 c0 -195 -3 -373 -7 -394 -4 -28 -3
-37 5 -32 22 13 200 270 285 412 163 269 305 581 381 839 38 129 89 368 84
393 -2 9 -156 -165 -375 -424z"/>
<path d="M3720 4455 l-95 -285 -305 -2 -305 -3 235 -179 c129 -98 239 -182
243 -186 5 -4 -24 -111 -63 -236 -40 -126 -80 -255 -90 -286 l-18 -58 149 103
c82 56 194 133 249 170 l100 69 241 -166 c133 -92 244 -165 246 -162 3 2 -34
126 -81 274 -47 149 -86 274 -86 279 0 4 109 91 242 193 l242 185 -306 3 -306
2 -92 278 c-51 152 -95 280 -99 284 -4 4 -49 -121 -101 -277z"/>
<path d="M2340 1684 c-279 -54 -462 -195 -515 -399 -43 -168 7 -339 128 -439
58 -47 187 -107 317 -146 239 -71 301 -104 313 -166 13 -69 -43 -140 -128
-164 -25 -7 -82 -11 -133 -9 -72 3 -96 8 -118 25 -45 33 -64 66 -77 132 l-12
62 -239 0 -239 0 6 -77 c20 -250 178 -415 459 -480 112 -26 358 -23 463 6 237
63 411 206 465 379 28 91 33 168 16 248 -43 210 -181 319 -508 400 -208 53
-258 83 -258 157 0 57 47 101 124 117 63 13 145 6 187 -16 44 -22 79 -72 79
-110 l0 -34 230 0 230 0 0 53 c0 166 -99 320 -252 392 -117 55 -175 67 -353
70 -88 2 -171 1 -185 -1z"/>
<path d="M237 1653 c-10 -16 -228 -1081 -234 -1138 -6 -70 13 -159 53 -236 55
-109 195 -204 369 -250 106 -29 380 -32 493 -6 268 61 444 211 526 447 19 53
256 1154 256 1187 0 7 -489 2 -494 -5 -3 -5 -48 -215 -101 -468 -53 -252 -103
-484 -111 -514 -21 -74 -60 -148 -98 -188 -116 -123 -329 -99 -367 42 -17 63
-8 124 100 645 56 266 101 485 101 487 0 8 -489 4 -493 -3z"/>
<path d="M3460 858 c-255 -442 -465 -806 -467 -811 -3 -4 110 -6 249 -5 l253
3 60 112 60 113 266 0 266 0 13 -115 12 -115 245 0 245 0 -6 33 c-6 34 -246
1577 -246 1583 0 2 -109 4 -243 4 l-243 0 -464 -802z m620 27 c11 -104 23
-207 26 -227 l6 -38 -157 0 -156 0 97 188 c128 247 158 300 161 282 1 -8 12
-100 23 -205z"/>
<path d="M4875 1648 c-4 -12 -85 -396 -85 -404 0 -2 101 -5 223 -6 l224 -3
-123 -590 c-68 -324 -123 -593 -124 -597 0 -5 112 -8 248 -8 l248 0 124 600
124 600 225 2 225 3 42 200 c23 110 40 203 37 208 -2 4 -315 7 -694 7 -543 0
-691 -3 -694 -12z"/>
<path d="M6455 1648 c-5 -14 -335 -1592 -335 -1602 0 -3 111 -6 248 -6 l247 0
59 288 c33 158 63 297 67 310 l9 22 315 0 315 0 5 23 c3 12 18 87 35 167 17
80 32 155 35 168 l5 22 -318 0 -319 0 21 100 21 100 375 0 376 0 39 188 c21
103 40 197 43 210 l4 22 -621 0 c-488 0 -623 -3 -626 -12z"/>
<path d="M7780 1650 c0 -5 8 -10 19 -10 17 0 18 -3 6 -55 -7 -30 -9 -55 -5
-55 5 0 14 25 20 55 9 44 15 55 31 55 10 0 19 5 19 10 0 6 -20 10 -45 10 -25
0 -45 -4 -45 -10z"/>
<path d="M7897 1653 c-10 -17 -29 -114 -24 -120 3 -3 9 8 12 23 18 78 22 82
30 26 4 -30 12 -51 18 -49 12 4 71 106 65 112 -3 3 -18 -19 -34 -47 l-28 -53
-11 52 c-10 53 -19 71 -28 56z"/>
<path d="M7989 1570 c-7 -35 -4 -48 7 -38 3 4 4 21 2 40 l-3 33 -6 -35z"/>
</g>
</svg>
