<?xml version="1.0" standalone="no"?>
<!DOCTYPE svg PUBLIC "-//W3C//DTD SVG 20010904//EN"
 "http://www.w3.org/TR/2001/REC-SVG-20010904/DTD/svg10.dtd">
<svg version="1.0" xmlns="http://www.w3.org/2000/svg"
 width="600.000000pt" height="300.000000pt" viewBox="0 0 600.000000 300.000000"
 preserveAspectRatio="xMidYMid meet">

<g transform="translate(0.000000,300.000000) scale(0.100000,-0.100000)"
fill="#000000" stroke="none">
<path d="M932 2191 c-18 -5 -36 -12 -40 -16 -10 -10 -9 -1482 1 -1492 11 -10
215 -10 241 0 19 7 19 26 12 710 -4 386 -9 719 -12 740 -4 21 -14 41 -23 46
-25 13 -142 21 -179 12z"/>
<path d="M1205 2187 c-20 -15 -20 -27 -20 -759 l0 -743 97 -3 c54 -1 111 1
128 5 l31 8 -1 528 c0 526 0 528 20 517 20 -10 20 -20 20 -400 l0 -390 108 0
107 0 70 165 c54 127 74 165 88 165 15 0 18 -6 13 -27 -3 -16 -8 -90 -12 -165
l-6 -138 104 0 105 0 197 390 c174 343 216 418 216 380 0 -10 -177 -737 -185
-757 -3 -10 27 -13 133 -13 l137 0 29 128 c16 70 32 133 34 140 3 8 33 12 106
12 l101 0 116 61 117 60 39 159 40 158 -84 61 -84 61 -437 0 -437 0 40 -34 40
-34 -79 -159 -78 -158 6 115 c3 63 9 150 12 193 l7 78 -63 -3 -62 -3 -74 -170
c-41 -93 -78 -179 -84 -190 -6 -14 -9 40 -7 173 l2 192 -157 0 -158 0 -1 138
c-1 143 -10 246 -22 259 -4 4 -49 9 -100 11 -71 3 -97 0 -112 -11z m515 -452
c0 -11 -18 -15 -82 -17 l-83 -3 4 -367 c3 -368 3 -368 -18 -368 -20 0 -21 2
-23 385 l-3 385 103 0 c83 0 102 -3 102 -15z m280 1 c0 -8 -7 -16 -16 -18 -10
-2 -46 -73 -98 -193 -75 -175 -84 -190 -109 -193 -22 -3 -27 1 -27 17 0 12 6
21 14 21 8 0 47 76 97 190 79 181 84 190 111 190 18 0 28 -5 28 -14z m414 -1
c-4 -10 -27 -15 -82 -17 l-77 -3 -94 -192 c-90 -183 -96 -193 -123 -193 -32 0
-40 29 -10 37 12 3 47 64 103 181 46 97 83 183 83 190 -1 9 25 12 102 12 86 0
102 -2 98 -15z m540 0 c-5 -13 -37 -15 -204 -15 l-198 0 -88 -356 c-49 -196
-94 -364 -100 -372 -6 -8 -16 -12 -21 -9 -7 4 13 101 53 264 35 142 76 313 91
380 l28 123 222 0 c194 0 222 -2 217 -15z m-58 -122 c-3 -10 -12 -47 -21 -83
-9 -36 -21 -82 -26 -102 l-10 -38 -90 0 c-81 0 -90 2 -85 18 3 9 13 48 22 86
l17 69 -39 34 -39 33 138 0 c127 0 138 -1 133 -17z m74 1 c0 -9 -16 -78 -37
-155 l-36 -139 -129 0 c-115 0 -128 2 -120 16 7 13 30 17 112 19 75 1 105 6
110 16 4 8 20 66 35 129 15 63 30 118 32 123 8 13 33 7 33 -9z m-1034 -426
c-13 -185 -17 -209 -34 -206 -8 2 -15 6 -15 11 0 4 4 70 8 147 7 131 9 140 27
140 19 0 20 -5 14 -92z"/>
<path d="M4610 2191 c-33 -9 -38 -48 -39 -288 -1 -101 -4 -183 -9 -183 -4 0
-31 16 -59 35 l-52 35 -153 0 -153 0 -110 -63 -109 -62 -32 -127 -31 -127 86
-60 86 -61 126 0 126 0 -20 -90 -20 -90 -94 0 c-51 0 -93 1 -93 3 0 1 7 26 14
54 8 29 11 55 7 57 -4 3 -64 4 -134 3 l-128 -2 -10 -40 c-16 -64 -20 -79 -25
-97 -4 -12 18 -35 72 -77 l77 -61 167 0 167 0 94 52 c116 63 125 71 132 111 3
18 17 76 30 130 l24 97 -84 60 -83 60 -116 0 -116 0 7 33 c4 17 9 41 12 53 4
16 -6 29 -38 52 l-43 32 143 0 c120 0 142 -2 138 -14 -3 -8 -9 -31 -13 -50
l-6 -36 106 0 106 0 0 -415 0 -415 27 -11 c14 -5 71 -8 127 -7 l101 3 8 580
c4 319 6 654 4 744 -4 145 -6 166 -23 178 -19 14 -148 17 -194 4z m-144 -456
c17 -13 3 -14 -134 -15 l-154 0 -93 -52 -94 -53 -23 -93 c-26 -109 -32 -122
-49 -105 -10 10 -8 34 11 113 13 54 26 103 29 108 3 5 49 32 101 60 l95 52
146 0 c112 0 150 -3 165 -15z m-25 -132 c-5 -18 -15 -29 -29 -31 -16 -3 -21 1
-17 12 3 9 7 23 10 31 2 8 13 15 24 15 16 0 18 -4 12 -27z m-47 -198 c18 -13
4 -15 -127 -15 -126 0 -146 2 -141 15 9 22 240 21 268 0z m-34 -132 c-1 -5
-13 -60 -29 -123 l-27 -115 -132 -3 c-73 -1 -132 1 -132 5 1 27 22 32 125 35
l110 3 24 103 c20 84 27 102 42 102 11 0 19 -3 19 -7z m-480 -97 c0 -27 -23
-116 -30 -116 -4 0 -12 6 -18 13 -10 12 -6 47 13 105 6 17 35 15 35 -2z"/>
<path d="M4937 2190 c-27 -5 -51 -11 -55 -14 -12 -13 -21 -382 -21 -919 -1
-532 0 -568 17 -575 24 -10 228 -9 239 1 4 5 8 339 8 742 0 658 -2 736 -16
750 -19 20 -106 27 -172 15z"/>
<path d="M1797 2172 c8 -5 13 -49 15 -137 l3 -130 36 -3 c35 -3 37 -1 54 45
26 72 35 74 35 10 l0 -57 33 0 c32 0 34 3 100 135 37 74 67 137 67 140 0 3
-25 5 -55 5 -41 0 -53 -3 -49 -13 5 -13 -32 -107 -42 -107 -3 0 -2 27 2 60 6
57 6 60 -15 60 -17 0 -28 -14 -51 -62 l-29 -63 0 63 -1 62 -57 0 c-32 0 -53
-4 -46 -8z m71 -9 l-28 -4 0 -126 c0 -70 -2 -124 -4 -122 -7 7 -15 247 -8 253
3 3 19 5 36 5 30 -2 30 -2 4 -6z m85 -63 c-18 -38 -37 -70 -41 -70 -5 0 7 32
25 70 18 39 37 70 41 70 5 0 -7 -31 -25 -70z m146 63 c-20 -3 -32 -18 -57 -68
-17 -36 -36 -65 -40 -65 -5 0 7 31 27 70 33 64 39 70 66 68 27 -1 28 -1 4 -5z
m-135 -200 c-9 -65 -14 -67 -14 -5 0 30 4 52 11 52 7 0 8 -16 3 -47z"/>
<path d="M2199 2166 c9 -11 5 -41 -19 -134 -16 -67 -30 -123 -30 -126 0 -3 20
-6 44 -6 l43 0 32 125 c17 69 31 132 31 140 0 11 -13 15 -56 15 -47 0 -55 -2
-45 -14z m66 -5 c-28 -6 -30 -10 -59 -129 -17 -67 -33 -122 -37 -122 -3 0 8
58 25 130 l31 130 35 -1 c35 -1 35 -1 5 -8z"/>
<path d="M2358 2167 c8 -9 2 -46 -19 -131 -16 -65 -29 -123 -29 -127 0 -5 53
-9 119 -9 l118 0 16 63 c8 34 12 66 7 70 -4 5 -23 7 -41 5 -30 -3 -36 -8 -47
-45 -12 -38 -17 -43 -44 -43 -23 0 -28 4 -24 18 9 32 46 193 46 203 0 5 -25 9
-56 9 -45 0 -54 -3 -46 -13z m67 -6 c-28 -6 -30 -10 -59 -129 -17 -67 -34
-122 -39 -122 -5 0 -6 6 -4 13 3 6 18 65 33 130 l28 117 36 -1 c35 -1 35 -1 5
-8z m113 -148 c-22 -3 -30 -12 -38 -44 -10 -38 -12 -39 -53 -37 l-42 1 37 4
c34 4 39 8 48 44 10 36 14 39 43 38 30 -2 30 -2 5 -6z"/>
<path d="M2740 2170 c12 -8 10 -25 -14 -127 -16 -65 -31 -124 -34 -130 -3 -9
9 -13 41 -13 l46 0 13 48 c13 46 15 47 58 53 76 10 95 24 112 85 l15 54 -27
20 c-24 17 -44 20 -127 20 -64 0 -93 -4 -83 -10z m109 -7 l-67 -4 -27 -112
c-15 -62 -32 -119 -36 -127 -19 -34 -7 25 42 213 l10 37 72 -2 72 -2 -66 -3z
m41 -50 c0 -46 -12 -63 -42 -63 -27 0 -30 2 -24 26 4 15 2 32 -5 40 -9 12 -4
14 30 14 32 0 41 -4 41 -17z m17 -43 c-12 -44 -14 -45 -56 -48 -28 -2 -41 0
-36 7 3 6 21 11 39 11 32 0 34 3 46 48 7 26 14 42 16 37 2 -6 -2 -30 -9 -55z"/>
<path d="M3059 2160 c-33 -18 -36 -23 -59 -119 l-23 -100 24 -20 c47 -39 182
-22 207 27 5 9 19 56 32 105 l22 87 -23 20 c-32 26 -130 27 -180 0z m106 3
c-27 -2 -65 -11 -83 -21 -33 -17 -36 -22 -63 -137 -6 -27 -16 -54 -22 -60 -6
-7 -8 -2 -4 15 4 14 14 58 24 98 15 67 20 75 53 92 23 13 53 19 90 18 l55 -2
-50 -3z m5 -37 c0 -7 -30 -138 -36 -158 -4 -12 -15 -18 -35 -18 -34 0 -34 -4
-10 88 18 67 18 73 3 82 -13 7 -5 9 31 10 26 0 47 -2 47 -4z m30 2 c-1 -2 -11
-46 -24 -98 l-23 -95 -49 -1 c-45 -1 -46 -1 -7 3 47 5 49 9 74 136 6 31 16 57
20 57 5 0 9 -1 9 -2z"/>
<path d="M3278 2168 c8 -8 12 -54 12 -140 l0 -128 34 0 c32 0 36 4 60 55 14
30 27 55 31 55 3 0 2 -25 -1 -55 l-7 -55 36 0 c35 0 35 0 106 136 39 75 71
138 71 140 0 2 -28 4 -61 4 -48 0 -59 -3 -51 -12 7 -9 3 -26 -14 -58 l-25 -45
4 58 c3 52 2 57 -17 57 -16 0 -28 -14 -48 -57 l-26 -58 -1 58 -1 57 -57 0
c-44 0 -54 -3 -45 -12z m67 -7 l-30 -6 4 -116 c2 -79 0 -119 -8 -123 -8 -5
-11 30 -11 123 l0 131 38 -1 c36 -1 36 -2 7 -8z m83 -61 c-17 -38 -34 -70 -39
-70 -4 0 7 31 24 70 18 38 35 70 39 70 4 0 -7 -31 -24 -70z m149 63 c-23 -4
-34 -16 -60 -69 -17 -35 -35 -64 -39 -64 -5 0 8 32 27 70 33 66 37 70 68 69
31 -2 31 -2 4 -6z m-137 -204 c0 -27 -3 -48 -8 -45 -7 4 -4 96 4 96 2 0 4 -23
4 -51z"/>
<path d="M3677 2169 c7 -7 2 -43 -18 -122 -16 -62 -29 -120 -29 -129 0 -16 12
-18 114 -18 113 0 114 0 118 25 5 25 4 25 -63 25 -72 0 -75 2 -63 47 5 19 14
23 58 25 47 3 51 5 54 31 3 26 1 27 -40 27 -36 0 -45 4 -55 25 l-11 25 84 0
c46 0 84 4 84 9 0 5 3 16 6 25 5 14 -9 16 -122 16 -91 0 -125 -3 -117 -11z
m223 -6 c0 -5 -39 -7 -86 -5 -48 2 -90 0 -95 -5 -5 -5 -21 -56 -34 -114 -29
-120 -34 -134 -41 -127 -2 3 9 62 27 132 l31 126 99 0 c55 0 99 -3 99 -7z
m-77 -110 c-13 -2 -35 -2 -50 0 -16 2 -5 4 22 4 28 0 40 -2 28 -4z m-6 -120
c-20 -2 -52 -2 -70 0 -17 2 0 4 38 4 39 0 53 -2 32 -4z"/>
<path d="M3970 2170 c12 -8 10 -25 -14 -127 -16 -65 -31 -124 -34 -130 -3 -9
9 -13 42 -13 l46 0 11 46 c9 33 18 48 36 55 40 15 42 11 27 -43 -7 -29 -14
-54 -14 -56 0 -2 19 -2 42 0 41 3 42 4 55 53 16 64 17 60 -9 72 -23 10 -22 10
8 26 44 23 55 79 22 107 -19 16 -39 19 -128 20 -68 0 -100 -4 -90 -10z m113
-7 l-72 -4 -10 -37 c-5 -20 -19 -75 -31 -121 -19 -80 -30 -109 -30 -82 0 11
21 99 51 214 l10 37 77 -2 77 -2 -72 -3z m37 -57 c0 -18 -8 -27 -31 -35 -42
-14 -41 -14 -34 9 4 12 1 27 -5 35 -11 13 -6 15 29 15 37 0 41 -3 41 -24z m24
-14 c-5 -26 -14 -33 -52 -46 -52 -18 -60 -19 -46 -7 5 5 25 14 45 20 29 9 38
18 43 43 3 17 8 29 11 26 3 -3 2 -19 -1 -36z m-29 -123 c-14 -51 -25 -74 -25
-50 0 25 23 101 30 101 5 0 2 -23 -5 -51z"/>
<path d="M650 2014 c-6 -15 -10 -251 -10 -600 l0 -575 98 3 97 3 0 583 c0 674
11 612 -107 612 -64 0 -69 -2 -78 -26z"/>
<path d="M5198 2033 c-26 -7 -29 -96 -26 -668 l3 -520 95 0 95 0 0 588 c0 512
-2 589 -15 597 -15 10 -120 12 -152 3z"/>
<path d="M482 1828 c-9 -9 -12 -117 -12 -424 l0 -412 30 -7 c17 -4 49 -4 72 0
l41 7 -7 412 c-8 457 -4 436 -76 436 -20 0 -41 -5 -48 -12z"/>
<path d="M5429 1833 c-20 -5 -29 -171 -29 -565 l0 -276 40 -7 c22 -4 53 -4 70
0 l30 7 0 404 c0 260 -4 412 -10 425 -10 18 -57 24 -101 12z"/>
<path d="M3290 1728 c-63 -33 -117 -62 -119 -64 -9 -7 -149 -590 -143 -595 4
-3 41 -32 83 -63 l76 -56 169 1 169 0 109 62 110 62 28 110 c15 61 28 113 28
118 0 4 -60 7 -133 7 l-133 0 -25 -102 -24 -103 -92 -3 c-71 -2 -93 0 -93 10
0 7 25 110 55 228 l55 215 -43 37 -42 38 143 0 c107 0 142 -3 142 -12 0 -7 -7
-38 -15 -68 -23 -86 -31 -81 117 -78 l132 3 23 94 c12 52 21 96 20 96 -1 1
-41 29 -90 63 l-87 62 -153 0 -152 0 -115 -62z m434 7 c18 -13 3 -15 -135 -15
l-154 -1 -100 -52 -100 -52 -68 -270 c-38 -148 -70 -272 -73 -274 -2 -2 -10 1
-18 8 -11 10 -3 54 54 282 37 149 71 273 74 277 4 3 50 29 104 58 l97 52 150
1 c117 0 154 -3 169 -14z m-38 -122 c-3 -10 -10 -37 -16 -60 -8 -32 -16 -43
-30 -43 -11 0 -18 6 -16 13 2 6 10 33 16 60 10 36 17 47 32 47 14 0 18 -5 14
-17z m62 -360 c-3 -15 -16 -18 -80 -21 l-76 -3 -24 -97 -24 -97 -132 -3 c-73
-1 -132 1 -132 5 1 27 22 32 125 35 l109 3 24 98 24 97 95 0 c85 0 94 -2 91
-17z"/>
<path d="M309 1523 c-22 -5 -29 -33 -29 -121 0 -104 6 -112 85 -112 l65 0 0
120 0 120 -52 -1 c-29 -1 -60 -3 -69 -6z"/>
<path d="M5580 1410 l0 -120 59 0 c87 0 94 10 89 127 -3 68 -8 97 -18 104 -8
5 -41 9 -72 9 l-58 0 0 -120z"/>
<path d="M1814 805 c-8 -12 -15 -39 -17 -61 -2 -36 0 -39 27 -42 42 -5 73 5
79 27 3 14 -1 19 -20 19 -19 0 -24 -5 -20 -18 3 -13 0 -16 -15 -12 -14 3 -18
10 -14 26 3 11 6 31 6 44 0 15 6 22 20 22 11 0 20 -7 20 -15 0 -8 9 -15 20
-15 13 0 20 7 20 20 0 11 -3 20 -7 21 -82 6 -85 6 -99 -16z"/>
<path d="M1960 820 c12 -7 12 -10 1 -10 -7 0 -11 -6 -8 -14 3 -7 2 -17 -3 -22
-4 -5 -11 -24 -15 -41 -6 -28 -4 -33 13 -33 13 0 22 9 26 25 6 25 29 34 41 15
3 -5 2 -10 -3 -10 -5 0 -9 -7 -9 -15 0 -8 8 -15 18 -15 13 0 21 12 28 38 23
88 23 88 2 88 -11 0 -17 -4 -15 -8 3 -4 0 -8 -7 -8 -6 0 -9 -8 -7 -18 4 -13
-1 -18 -15 -19 -16 -2 -18 3 -14 25 5 24 2 28 -21 30 -21 1 -24 0 -12 -8z"/>
<path d="M2115 781 c-11 -25 -19 -49 -17 -53 1 -5 -2 -8 -8 -8 -5 0 -10 -4
-10 -10 0 -5 9 -10 19 -10 11 0 23 5 26 10 3 6 15 10 26 10 11 0 17 -4 14 -10
-3 -5 3 -10 14 -10 16 0 21 6 21 28 0 15 3 44 6 64 l7 38 -40 -2 c-37 -1 -40
-4 -58 -47z m53 -11 c-1 -18 -8 -30 -16 -30 -10 0 -12 6 -7 18 4 9 8 23 8 30
0 6 4 12 9 12 4 0 7 -13 6 -30z"/>
<path d="M2248 800 c-2 -37 -9 -62 -25 -92 -2 -5 7 -8 21 -8 19 0 26 5 26 19
0 11 5 23 10 26 6 4 10 -5 10 -19 0 -35 11 -33 33 5 21 37 32 34 18 -5 -9 -22
-8 -26 9 -26 19 0 23 9 46 103 6 25 4 27 -26 27 -21 0 -30 -4 -28 -12 3 -7 -1
-19 -9 -26 -7 -8 -10 -18 -7 -24 4 -7 2 -8 -4 -4 -7 4 -12 20 -12 37 0 26 -3
29 -30 27 -24 -2 -30 -7 -32 -28z"/>
<path d="M2439 821 c9 -6 10 -10 2 -12 -7 -3 -13 -16 -15 -30 -1 -13 -6 -30
-10 -37 -4 -7 -5 -16 -2 -21 4 -5 0 -12 -6 -14 -7 -3 -1 -6 13 -6 19 -1 28 5
32 19 3 11 13 20 24 20 42 1 81 71 47 84 -25 10 -101 7 -85 -3z m66 -20 c3 -5
1 -12 -5 -16 -6 -4 -8 -11 -5 -16 3 -5 -1 -6 -9 -3 -20 8 -21 44 -2 44 8 0 17
-4 21 -9z"/>
<path d="M2565 820 c3 -5 -1 -35 -9 -65 -14 -55 -14 -56 7 -53 16 2 24 15 34
53 17 68 17 70 -13 73 -14 1 -22 -2 -19 -8z"/>
<path d="M2650 820 c-12 -7 -32 -90 -26 -106 7 -18 80 -19 94 -1 13 15 35 97
28 104 -6 7 -86 9 -96 3z m53 -36 c-2 -11 -4 -31 -5 -45 -2 -17 -8 -25 -18
-22 -11 3 -15 18 -15 52 0 44 2 48 20 41 12 -5 19 -15 18 -26z"/>
<path d="M2773 780 c-4 -25 -8 -49 -8 -55 0 -5 -4 -13 -10 -17 -5 -4 2 -8 18
-8 22 0 27 4 27 25 0 31 17 33 22 3 2 -14 11 -24 24 -26 18 -3 23 5 33 45 7
26 14 56 17 66 4 13 -1 17 -21 17 -15 0 -25 -5 -24 -12 3 -26 -1 -39 -11 -33
-5 3 -10 15 -10 25 0 15 -6 19 -25 18 -21 -2 -26 -9 -32 -48z"/>
<path d="M2941 810 c-8 -10 -10 -11 -5 -1 4 8 3 12 -3 8 -6 -4 -10 -18 -10
-32 0 -20 6 -27 28 -32 28 -5 46 -28 29 -38 -4 -3 -15 2 -23 10 -18 18 -43 20
-53 4 -17 -28 73 -40 100 -13 18 17 22 53 6 55 -5 1 -14 3 -20 4 -5 1 -14 3
-20 4 -16 2 -11 31 5 31 8 0 15 -4 15 -10 0 -5 9 -10 21 -10 14 0 19 5 17 17
-4 23 -71 25 -87 3z"/>
<path d="M3069 821 c8 -5 9 -11 3 -15 -8 -5 -13 -21 -28 -93 -5 -25 36 -13 42
12 3 14 13 25 21 25 11 0 14 -7 11 -25 -8 -40 28 -33 41 8 23 75 23 93 1 93
-18 0 -23 -10 -23 -41 0 -6 -9 -12 -19 -12 -16 -2 -18 3 -13 28 6 27 4 29 -22
29 -19 0 -24 -3 -14 -9z"/>
<path d="M3221 819 c8 -5 9 -9 3 -9 -7 0 -15 -15 -18 -32 -3 -18 -8 -43 -10
-55 -4 -17 0 -23 13 -23 14 0 22 12 30 48 7 26 14 54 16 62 3 10 -3 15 -22 17
-19 1 -22 -1 -12 -8z"/>
<path d="M3290 809 c6 -11 6 -19 0 -21 -5 -2 -11 -19 -12 -38 -2 -19 -7 -38
-13 -42 -5 -4 2 -8 18 -8 20 0 27 5 27 20 0 12 7 20 18 20 32 0 63 30 60 58
-3 24 -7 26 -55 28 -47 1 -51 -1 -43 -17z m66 -26 c1 -14 -4 -20 -15 -18 -9 1
-17 12 -17 24 -1 15 4 21 15 19 9 -2 16 -13 17 -25z"/>
<path d="M3479 820 c-6 -4 -9 -12 -5 -18 3 -6 2 -14 -4 -17 -16 -10 8 -35 34
-35 14 0 22 -6 22 -19 0 -12 -6 -17 -18 -13 -10 2 -18 8 -18 13 0 5 -9 9 -19
9 -34 0 -18 -35 17 -38 60 -6 104 46 59 70 -12 6 -24 10 -27 9 -3 -1 -12 8
-20 20 -8 13 -10 21 -5 18 63 -32 66 -32 77 -21 6 6 9 14 6 18 -9 9 -85 12
-99 4z"/>
<path d="M3608 823 c9 -3 10 -9 3 -17 -5 -6 -11 -29 -13 -51 -2 -22 -7 -43
-13 -47 -5 -4 16 -8 48 -8 31 0 57 4 57 8 0 5 -14 6 -31 4 -28 -4 -30 -2 -27
19 2 18 10 25 31 27 15 2 27 7 27 11 0 5 -10 6 -23 4 -17 -3 -23 0 -24 16 -2
18 4 21 38 21 21 0 39 4 39 9 0 5 -28 9 -62 8 -35 0 -57 -2 -50 -4z"/>
<path d="M3755 813 c1 -10 -1 -23 -6 -28 -4 -6 -9 -24 -11 -40 -2 -17 -7 -33
-13 -37 -5 -4 2 -8 17 -8 20 0 27 6 30 23 2 15 11 23 28 25 14 2 20 -1 14 -5
-6 -4 -13 -16 -17 -26 -6 -15 -2 -18 16 -15 17 2 22 10 22 33 0 17 6 36 13 43
30 32 11 48 -60 51 -30 1 -36 -2 -33 -16z m65 -13 c11 -7 11 -10 2 -10 -7 0
-11 -4 -8 -9 4 -5 -1 -8 -11 -7 -9 2 -17 10 -19 19 -3 19 13 22 36 7z"/>
<path d="M3884 806 c-4 -61 -10 -92 -19 -99 -5 -4 1 -7 14 -5 20 2 27 12 38
53 17 67 17 70 -10 71 -16 1 -22 -4 -23 -20z"/>
<path d="M3970 820 c8 -5 10 -10 4 -10 -7 0 -15 -15 -18 -32 -3 -18 -8 -43
-10 -55 -5 -22 -2 -23 50 -23 30 0 54 4 54 8 0 5 -14 6 -31 4 -28 -4 -30 -2
-27 19 2 16 11 25 26 27 12 2 22 7 22 12 0 4 -9 6 -20 3 -15 -4 -20 0 -20 16
0 17 6 21 34 21 19 0 38 5 41 10 4 6 -17 10 -57 10 -44 0 -59 -3 -48 -10z"/>
<path d="M4111 816 c-22 -27 -16 -51 16 -60 20 -6 31 -16 30 -26 -1 -18 -37
-16 -37 1 0 5 -9 9 -21 9 -14 0 -19 -5 -17 -17 2 -13 15 -19 45 -21 36 -3 44
1 59 23 13 20 14 28 4 40 -7 8 -20 15 -29 15 -9 0 -22 9 -28 19 -10 16 -9 18
8 14 11 -3 22 -9 25 -14 9 -15 44 -10 44 6 0 8 -3 15 -7 16 -5 0 -25 1 -46 3
-20 2 -41 -2 -46 -8z"/>
</g>
</svg>
